<ttFont>
    <TTGlyph name=".notdef" xMin="228" yMin="0" xMax="1644" yMax="1416">
      <contour>
        <pt x="1644" y="1416" on="1"/>
        <pt x="1644" y="0" on="1"/>
        <pt x="228" y="0" on="1"/>
        <pt x="228" y="1416" on="1"/>
      </contour>
      <contour>
        <pt x="1295" y="219" on="1"/>
        <pt x="1417" y="341" on="1"/>
        <pt x="1054" y="709" on="1"/>
        <pt x="1417" y="1067" on="1"/>
        <pt x="1289" y="1191" on="1"/>
        <pt x="937" y="825" on="1"/>
        <pt x="580" y="1193" on="1"/>
        <pt x="457" y="1068" on="1"/>
        <pt x="816" y="705" on="1"/>
        <pt x="458" y="363" on="1"/>
        <pt x="586" y="219" on="1"/>
        <pt x="933" y="587" on="1"/>
      </contour>
    </TTGlyph>
    <TTGlyph name="A" xMin="21" yMin="0" xMax="1386" yMax="1538">
      <contour>
        <pt x="1016" y="385" on="1"/>
        <pt x="393" y="385" on="1"/>
        <pt x="257" y="0" on="1"/>
        <pt x="21" y="0" on="1"/>
        <pt x="603" y="1538" on="1"/>
        <pt x="818" y="1538" on="1"/>
        <pt x="1386" y="0" on="1"/>
        <pt x="1145" y="0" on="1"/>
      </contour>
      <contour>
        <pt x="960" y="551" on="1"/>
        <pt x="755" y="1160" on="1"/>
        <pt x="712" y="1302" on="1"/>
        <pt x="668" y="1160" on="1"/>
        <pt x="452" y="551" on="1"/>
      </contour>
    </TTGlyph>
    <TTGlyph name="AE" xMin="-73" yMin="0" xMax="1786" yMax="1522">
      <contour>
        <pt x="1786" y="175" on="1"/>
        <pt x="1786" y="0" on="1"/>
        <pt x="837" y="0" on="1"/>
        <pt x="837" y="385" on="1"/>
        <pt x="356" y="385" on="1"/>
        <pt x="173" y="0" on="1"/>
        <pt x="-73" y="0" on="1"/>
        <pt x="652" y="1522" on="1"/>
        <pt x="1713" y="1522" on="1"/>
        <pt x="1713" y="1350" on="1"/>
        <pt x="1060" y="1350" on="1"/>
        <pt x="1060" y="870" on="1"/>
        <pt x="1539" y="870" on="1"/>
        <pt x="1539" y="698" on="1"/>
        <pt x="1060" y="698" on="1"/>
        <pt x="1060" y="175" on="1"/>
      </contour>
      <contour>
        <pt x="837" y="551" on="1"/>
        <pt x="837" y="1376" on="1"/>
        <pt x="827" y="1376" on="1"/>
        <pt x="435" y="551" on="1"/>
      </contour>
    </TTGlyph>
    <TTGlyph name="AEacute" xMin="-73" yMin="0" xMax="1786" yMax="1980">
      <component glyphName="acute.cap" x="834" y="0" flags="0x0"/>
      <component glyphName="AE" x="0" y="0" flags="0x0"/>
    </TTGlyph>
    <TTGlyph name="Aacute" xMin="21" yMin="0" xMax="1386" yMax="1980">
      <component glyphName="A" x="0" y="0" flags="0x0"/>
      <component glyphName="acute.cap" x="516" y="0" flags="0x0"/>
    </TTGlyph>
    <TTGlyph name="Abreve" xMin="21" yMin="0" xMax="1386" yMax="1970">
      <component glyphName="A" x="0" y="0" flags="0x0"/>
      <component glyphName="breve.cap" x="311" y="0" flags="0x0"/>
    </TTGlyph>
    <TTGlyph name="Acircumflex" xMin="21" yMin="0" xMax="1386" yMax="1990">
      <component glyphName="A" x="0" y="0" flags="0x0"/>
      <component glyphName="circumflex.cap" x="296" y="0" flags="0x0"/>
    </TTGlyph>
    <TTGlyph name="Adieresis" xMin="21" yMin="0" xMax="1386" yMax="1955">
      <component glyphName="A" x="0" y="0" flags="0x0"/>
      <component glyphName="dieresis.cap" x="256" y="0" flags="0x0"/>
    </TTGlyph>
    <TTGlyph name="Agrave" xMin="21" yMin="0" xMax="1386" yMax="1980">
      <component glyphName="A" x="0" y="0" flags="0x0"/>
      <component glyphName="grave.cap" x="292" y="0" flags="0x0"/>
    </TTGlyph>
    <TTGlyph name="Amacron" xMin="21" yMin="0" xMax="1386" yMax="1891">
      <component glyphName="A" x="0" y="0" flags="0x0"/>
      <component glyphName="macron.cap" x="381" y="0" flags="0x0"/>
    </TTGlyph>
    <TTGlyph name="Aogonek" xMin="21" yMin="-512" xMax="1394" yMax="1538">
      <contour>
        <pt x="1319" y="-364" on="0"/>
        <pt x="1394" y="-335" on="1"/>
        <pt x="1394" y="-453" on="1"/>
        <pt x="1354" y="-483" on="0"/>
        <pt x="1226" y="-512" on="0"/>
        <pt x="1157" y="-512" on="1"/>
        <pt x="1048" y="-512" on="0"/>
        <pt x="911" y="-400" on="0"/>
        <pt x="911" y="-299" on="1"/>
        <pt x="911" y="-212" on="0"/>
        <pt x="1070" y="-55" on="0"/>
        <pt x="1177" y="0" on="1"/>
        <pt x="1145" y="0" on="1"/>
        <pt x="1016" y="385" on="1"/>
        <pt x="393" y="385" on="1"/>
        <pt x="257" y="0" on="1"/>
        <pt x="21" y="0" on="1"/>
        <pt x="603" y="1538" on="1"/>
        <pt x="818" y="1538" on="1"/>
        <pt x="1386" y="0" on="1"/>
        <pt x="1348" y="0" on="1"/>
        <pt x="1254" y="-52" on="0"/>
        <pt x="1127" y="-191" on="0"/>
        <pt x="1127" y="-256" on="1"/>
        <pt x="1127" y="-318" on="0"/>
        <pt x="1194" y="-364" on="0"/>
        <pt x="1255" y="-364" on="1"/>
      </contour>
      <contour>
        <pt x="960" y="551" on="1"/>
        <pt x="755" y="1160" on="1"/>
        <pt x="712" y="1302" on="1"/>
        <pt x="668" y="1160" on="1"/>
        <pt x="452" y="551" on="1"/>
      </contour>
    </TTGlyph>
    <TTGlyph name="Aring" xMin="21" yMin="0" xMax="1386" yMax="1970">
      <contour>
        <pt x="1016" y="385" on="1"/>
        <pt x="393" y="385" on="1"/>
        <pt x="257" y="0" on="1"/>
        <pt x="21" y="0" on="1"/>
        <pt x="571" y="1453" on="1"/>
        <pt x="482" y="1480" on="0"/>
        <pt x="381" y="1611" on="0"/>
        <pt x="381" y="1703" on="1"/>
        <pt x="381" y="1795" on="0"/>
        <pt x="472" y="1915" on="0"/>
        <pt x="617" y="1970" on="0"/>
        <pt x="701" y="1970" on="1"/>
        <pt x="849" y="1970" on="0"/>
        <pt x="1022" y="1834" on="0"/>
        <pt x="1022" y="1709" on="1"/>
        <pt x="1022" y="1613" on="0"/>
        <pt x="928" y="1487" on="0"/>
        <pt x="847" y="1459" on="1"/>
        <pt x="1386" y="0" on="1"/>
        <pt x="1145" y="0" on="1"/>
      </contour>
      <contour>
        <pt x="627" y="1846" on="0"/>
        <pt x="537" y="1782" on="0"/>
        <pt x="537" y="1708" on="1"/>
        <pt x="537" y="1640" on="0"/>
        <pt x="627" y="1561" on="0"/>
        <pt x="703" y="1561" on="1"/>
        <pt x="780" y="1561" on="0"/>
        <pt x="868" y="1630" on="0"/>
        <pt x="868" y="1706" on="1"/>
        <pt x="868" y="1774" on="0"/>
        <pt x="771" y="1846" on="0"/>
        <pt x="695" y="1846" on="1"/>
      </contour>
      <contour>
        <pt x="960" y="551" on="1"/>
        <pt x="755" y="1160" on="1"/>
        <pt x="712" y="1302" on="1"/>
        <pt x="668" y="1160" on="1"/>
        <pt x="452" y="551" on="1"/>
      </contour>
    </TTGlyph>
    <TTGlyph name="Atilde" xMin="21" yMin="0" xMax="1386" yMax="1966">
      <component glyphName="A" x="0" y="0" flags="0x0"/>
      <component glyphName="tilde.cap" x="239" y="0" flags="0x0"/>
    </TTGlyph>
    <TTGlyph name="B" xMin="194" yMin="-14" xMax="1247" yMax="1537">
      <contour>
        <pt x="298" y="1522" on="1"/>
        <pt x="339" y="1522" on="0"/>
        <pt x="437" y="1528" on="1"/>
        <pt x="574" y="1537" on="0"/>
        <pt x="648" y="1537" on="1"/>
        <pt x="897" y="1537" on="0"/>
        <pt x="1144" y="1346" on="0"/>
        <pt x="1144" y="1177" on="1"/>
        <pt x="1144" y="1103" on="0"/>
        <pt x="1095" y="956" on="0"/>
        <pt x="992" y="844" on="0"/>
        <pt x="913" y="823" on="1"/>
        <pt x="1004" y="819" on="0"/>
        <pt x="1157" y="715" on="0"/>
        <pt x="1247" y="548" on="0"/>
        <pt x="1247" y="456" on="1"/>
        <pt x="1247" y="232" on="0"/>
        <pt x="967" y="-14" on="0"/>
        <pt x="632" y="-14" on="1"/>
        <pt x="504" y="-14" on="0"/>
        <pt x="305" y="0" on="1"/>
        <pt x="194" y="0" on="1"/>
        <pt x="194" y="1523" on="1"/>
      </contour>
      <contour>
        <pt x="759" y="862" on="0"/>
        <pt x="866" y="926" on="0"/>
        <pt x="928" y="1054" on="0"/>
        <pt x="928" y="1145" on="1"/>
        <pt x="928" y="1263" on="0"/>
        <pt x="764" y="1380" on="0"/>
        <pt x="607" y="1380" on="1"/>
        <pt x="561" y="1380" on="0"/>
        <pt x="434" y="1374" on="0"/>
        <pt x="416" y="1367" on="1"/>
        <pt x="416" y="867" on="1"/>
        <pt x="459" y="860" on="0"/>
        <pt x="543" y="860" on="1"/>
        <pt x="625" y="861" on="1"/>
        <pt x="649" y="862" on="0"/>
        <pt x="693" y="862" on="1"/>
      </contour>
      <contour>
        <pt x="837" y="148" on="0"/>
        <pt x="1021" y="277" on="0"/>
        <pt x="1021" y="430" on="1"/>
        <pt x="1021" y="572" on="0"/>
        <pt x="850" y="703" on="0"/>
        <pt x="668" y="703" on="1"/>
        <pt x="554" y="704" on="1"/>
        <pt x="458" y="704" on="0"/>
        <pt x="416" y="698" on="1"/>
        <pt x="416" y="171" on="1"/>
        <pt x="439" y="157" on="0"/>
        <pt x="573" y="148" on="0"/>
        <pt x="658" y="148" on="1"/>
      </contour>
    </TTGlyph>
    <TTGlyph name="C" xMin="95" yMin="-16" xMax="1198" yMax="1538">
      <contour>
        <pt x="927" y="1538" on="0"/>
        <pt x="1097" y="1510" on="0"/>
        <pt x="1168" y="1489" on="1"/>
        <pt x="1198" y="1481" on="1"/>
        <pt x="1166" y="1283" on="1"/>
        <pt x="1129" y="1302" on="0"/>
        <pt x="1063" y="1329" on="0"/>
        <pt x="917" y="1357" on="0"/>
        <pt x="814" y="1357" on="1"/>
        <pt x="661" y="1357" on="0"/>
        <pt x="436" y="1213" on="0"/>
        <pt x="316" y="947" on="0"/>
        <pt x="316" y="768" on="1"/>
        <pt x="316" y="590" on="0"/>
        <pt x="436" y="314" on="0"/>
        <pt x="661" y="160" on="0"/>
        <pt x="813" y="160" on="1"/>
        <pt x="888" y="160" on="0"/>
        <pt x="1042" y="186" on="0"/>
        <pt x="1160" y="229" on="0"/>
        <pt x="1187" y="253" on="1"/>
        <pt x="1188" y="64" on="1"/>
        <pt x="1123" y="38" on="0"/>
        <pt x="1030" y="7" on="0"/>
        <pt x="891" y="-16" on="0"/>
        <pt x="804" y="-16" on="1"/>
        <pt x="591" y="-16" on="0"/>
        <pt x="270" y="176" on="0"/>
        <pt x="95" y="524" on="0"/>
        <pt x="95" y="753" on="1"/>
        <pt x="95" y="996" on="0"/>
        <pt x="287" y="1352" on="0"/>
        <pt x="609" y="1538" on="0"/>
        <pt x="799" y="1538" on="1"/>
      </contour>
    </TTGlyph>
    <TTGlyph name="Cacute" xMin="95" yMin="-16" xMax="1198" yMax="1980">
      <component glyphName="C" x="0" y="0" flags="0x0"/>
      <component glyphName="acute.cap" x="609" y="0" flags="0x0"/>
    </TTGlyph>
    <TTGlyph name="Ccaron" xMin="95" yMin="-16" xMax="1198" yMax="1990">
      <component glyphName="C" x="0" y="0" flags="0x0"/>
      <component glyphName="caron.cap" x="404" y="0" flags="0x0"/>
    </TTGlyph>
    <TTGlyph name="Ccedilla" xMin="95" yMin="-464" xMax="1198" yMax="1538">
      <contour>
        <pt x="1188" y="64" on="1"/>
        <pt x="1126" y="40" on="0"/>
        <pt x="1048" y="13" on="0"/>
        <pt x="931" y="-11" on="0"/>
        <pt x="860" y="-15" on="1"/>
        <pt x="890" y="-78" on="0"/>
        <pt x="890" y="-180" on="1"/>
        <pt x="890" y="-195" on="0"/>
        <pt x="888" y="-229" on="1"/>
        <pt x="878" y="-348" on="0"/>
        <pt x="743" y="-464" on="0"/>
        <pt x="648" y="-464" on="1"/>
        <pt x="606" y="-464" on="0"/>
        <pt x="518" y="-448" on="0"/>
        <pt x="501" y="-436" on="1"/>
        <pt x="516" y="-294" on="1"/>
        <pt x="538" y="-308" on="0"/>
        <pt x="598" y="-308" on="1"/>
        <pt x="651" y="-308" on="0"/>
        <pt x="720" y="-235" on="0"/>
        <pt x="725" y="-158" on="1"/>
        <pt x="730" y="-126" on="0"/>
        <pt x="730" y="-89" on="1"/>
        <pt x="730" y="-50" on="0"/>
        <pt x="721" y="-12" on="1"/>
        <pt x="531" y="6" on="0"/>
        <pt x="248" y="206" on="0"/>
        <pt x="95" y="539" on="0"/>
        <pt x="95" y="753" on="1"/>
        <pt x="95" y="996" on="0"/>
        <pt x="287" y="1352" on="0"/>
        <pt x="609" y="1538" on="0"/>
        <pt x="799" y="1538" on="1"/>
        <pt x="927" y="1538" on="0"/>
        <pt x="1097" y="1510" on="0"/>
        <pt x="1168" y="1489" on="1"/>
        <pt x="1198" y="1481" on="1"/>
        <pt x="1166" y="1283" on="1"/>
        <pt x="1129" y="1302" on="0"/>
        <pt x="1063" y="1329" on="0"/>
        <pt x="917" y="1357" on="0"/>
        <pt x="814" y="1357" on="1"/>
        <pt x="661" y="1357" on="0"/>
        <pt x="436" y="1213" on="0"/>
        <pt x="316" y="947" on="0"/>
        <pt x="316" y="768" on="1"/>
        <pt x="316" y="590" on="0"/>
        <pt x="436" y="314" on="0"/>
        <pt x="661" y="160" on="0"/>
        <pt x="813" y="160" on="1"/>
        <pt x="888" y="160" on="0"/>
        <pt x="1042" y="186" on="0"/>
        <pt x="1160" y="229" on="0"/>
        <pt x="1187" y="253" on="1"/>
      </contour>
    </TTGlyph>
    <TTGlyph name="Ccircumflex" xMin="95" yMin="-16" xMax="1198" yMax="1990">
      <component glyphName="C" x="0" y="0" flags="0x0"/>
      <component glyphName="circumflex.cap" x="389" y="0" flags="0x0"/>
    </TTGlyph>
    <TTGlyph name="Cdotaccent" xMin="95" yMin="-16" xMax="1198" yMax="1956">
      <component glyphName="dotaccent.cap" x="595" y="0" flags="0x0"/>
      <component glyphName="C" x="0" y="0" flags="0x0"/>
    </TTGlyph>
    <TTGlyph name="D" xMin="194" yMin="-16" xMax="1388" yMax="1538">
      <contour>
        <pt x="306" y="1522" on="1"/>
        <pt x="363" y="1522" on="0"/>
        <pt x="463" y="1529" on="1"/>
        <pt x="477" y="1530" on="0"/>
        <pt x="608" y="1538" on="0"/>
        <pt x="666" y="1538" on="1"/>
        <pt x="1027" y="1538" on="0"/>
        <pt x="1388" y="1158" on="0"/>
        <pt x="1388" y="804" on="1"/>
        <pt x="1388" y="550" on="0"/>
        <pt x="1212" y="181" on="0"/>
        <pt x="884" y="-16" on="0"/>
        <pt x="661" y="-16" on="1"/>
        <pt x="615" y="-16" on="0"/>
        <pt x="485" y="-8" on="1"/>
        <pt x="341" y="0" on="0"/>
        <pt x="279" y="0" on="1"/>
        <pt x="194" y="0" on="1"/>
        <pt x="194" y="1522" on="1"/>
      </contour>
      <contour>
        <pt x="899" y="154" on="0"/>
        <pt x="1156" y="457" on="0"/>
        <pt x="1156" y="771" on="1"/>
        <pt x="1156" y="993" on="0"/>
        <pt x="1036" y="1259" on="0"/>
        <pt x="798" y="1377" on="0"/>
        <pt x="614" y="1377" on="1"/>
        <pt x="496" y="1377" on="0"/>
        <pt x="418" y="1361" on="1"/>
        <pt x="418" y="168" on="1"/>
        <pt x="465" y="157" on="0"/>
        <pt x="606" y="148" on="0"/>
        <pt x="677" y="149" on="1"/>
      </contour>
    </TTGlyph>
    <TTGlyph name="Dcaron" xMin="194" yMin="-16" xMax="1388" yMax="1990">
      <component glyphName="caron.cap" x="341" y="0" flags="0x0"/>
      <component glyphName="D" x="0" y="0" flags="0x0"/>
    </TTGlyph>
    <TTGlyph name="Dcroat" xMin="66" yMin="-16" xMax="1388" yMax="1538">
      <contour>
        <pt x="1027" y="1538" on="0"/>
        <pt x="1388" y="1158" on="0"/>
        <pt x="1388" y="804" on="1"/>
        <pt x="1388" y="550" on="0"/>
        <pt x="1212" y="181" on="0"/>
        <pt x="884" y="-16" on="0"/>
        <pt x="661" y="-16" on="1"/>
        <pt x="615" y="-16" on="0"/>
        <pt x="485" y="-8" on="1"/>
        <pt x="341" y="0" on="0"/>
        <pt x="279" y="0" on="1"/>
        <pt x="194" y="0" on="1"/>
        <pt x="194" y="720" on="1"/>
        <pt x="66" y="720" on="1"/>
        <pt x="66" y="869" on="1"/>
        <pt x="194" y="869" on="1"/>
        <pt x="194" y="1522" on="1"/>
        <pt x="306" y="1522" on="1"/>
        <pt x="363" y="1522" on="0"/>
        <pt x="463" y="1529" on="1"/>
        <pt x="477" y="1530" on="0"/>
        <pt x="608" y="1538" on="0"/>
        <pt x="666" y="1538" on="1"/>
      </contour>
      <contour>
        <pt x="899" y="154" on="0"/>
        <pt x="1156" y="457" on="0"/>
        <pt x="1156" y="771" on="1"/>
        <pt x="1156" y="993" on="0"/>
        <pt x="1036" y="1259" on="0"/>
        <pt x="798" y="1377" on="0"/>
        <pt x="614" y="1377" on="1"/>
        <pt x="496" y="1377" on="0"/>
        <pt x="418" y="1361" on="1"/>
        <pt x="418" y="869" on="1"/>
        <pt x="812" y="869" on="1"/>
        <pt x="812" y="720" on="1"/>
        <pt x="418" y="720" on="1"/>
        <pt x="418" y="168" on="1"/>
        <pt x="465" y="157" on="0"/>
        <pt x="606" y="148" on="0"/>
        <pt x="677" y="149" on="1"/>
      </contour>
    </TTGlyph>
    <TTGlyph name="E" xMin="194" yMin="0" xMax="1143" yMax="1522">
      <contour>
        <pt x="1070" y="1522" on="1"/>
        <pt x="1070" y="1350" on="1"/>
        <pt x="417" y="1350" on="1"/>
        <pt x="417" y="870" on="1"/>
        <pt x="896" y="870" on="1"/>
        <pt x="896" y="698" on="1"/>
        <pt x="417" y="698" on="1"/>
        <pt x="417" y="175" on="1"/>
        <pt x="1143" y="175" on="1"/>
        <pt x="1143" y="0" on="1"/>
        <pt x="194" y="0" on="1"/>
        <pt x="194" y="1522" on="1"/>
      </contour>
    </TTGlyph>
    <TTGlyph name="Eacute" xMin="194" yMin="0" xMax="1143" yMax="1980">
      <component glyphName="acute.cap" x="494" y="0" flags="0x0"/>
      <component glyphName="E" x="0" y="0" flags="0x0"/>
    </TTGlyph>
    <TTGlyph name="Ebreve" xMin="194" yMin="0" xMax="1143" yMax="1970">
      <component glyphName="breve.cap" x="289" y="0" flags="0x0"/>
      <component glyphName="E" x="0" y="0" flags="0x0"/>
    </TTGlyph>
    <TTGlyph name="Ecaron" xMin="194" yMin="0" xMax="1143" yMax="1990">
      <component glyphName="caron.cap" x="289" y="0" flags="0x0"/>
      <component glyphName="E" x="0" y="0" flags="0x0"/>
    </TTGlyph>
    <TTGlyph name="Ecircumflex" xMin="194" yMin="0" xMax="1143" yMax="1990">
      <component glyphName="E" x="0" y="0" flags="0x0"/>
      <component glyphName="circumflex.cap" x="274" y="0" flags="0x0"/>
    </TTGlyph>
    <TTGlyph name="Edieresis" xMin="194" yMin="0" xMax="1143" yMax="1955">
      <component glyphName="dieresis.cap" x="234" y="0" flags="0x0"/>
      <component glyphName="E" x="0" y="0" flags="0x0"/>
    </TTGlyph>
    <TTGlyph name="Edotaccent" xMin="194" yMin="0" xMax="1143" yMax="1956">
      <component glyphName="dotaccent.cap" x="480" y="0" flags="0x0"/>
      <component glyphName="E" x="0" y="0" flags="0x0"/>
    </TTGlyph>
    <TTGlyph name="Egrave" xMin="194" yMin="0" xMax="1143" yMax="1980">
      <component glyphName="grave.cap" x="270" y="0" flags="0x0"/>
      <component glyphName="E" x="0" y="0" flags="0x0"/>
    </TTGlyph>
    <TTGlyph name="Emacron" xMin="194" yMin="0" xMax="1143" yMax="1891">
      <component glyphName="macron.cap" x="359" y="0" flags="0x0"/>
      <component glyphName="E" x="0" y="0" flags="0x0"/>
    </TTGlyph>
    <TTGlyph name="Eng" xMin="193" yMin="-406" xMax="1390" yMax="1522">
      <contour>
        <pt x="1390" y="400" on="1"/>
        <pt x="1390" y="283" on="0"/>
        <pt x="1381" y="123" on="0"/>
        <pt x="1366" y="54" on="1"/>
        <pt x="1340" y="-75" on="0"/>
        <pt x="1166" y="-274" on="0"/>
        <pt x="936" y="-392" on="0"/>
        <pt x="824" y="-406" on="1"/>
        <pt x="767" y="-301" on="1"/>
        <pt x="855" y="-276" on="0"/>
        <pt x="1035" y="-163" on="0"/>
        <pt x="1153" y="-22" on="0"/>
        <pt x="1153" y="45" on="1"/>
        <pt x="525" y="976" on="1"/>
        <pt x="402" y="1194" on="1"/>
        <pt x="412" y="955" on="1"/>
        <pt x="412" y="0" on="1"/>
        <pt x="195" y="0" on="1"/>
        <pt x="193" y="1522" on="1"/>
        <pt x="398" y="1522" on="1"/>
        <pt x="1075" y="508" on="1"/>
        <pt x="1186" y="301" on="1"/>
        <pt x="1171" y="541" on="1"/>
        <pt x="1171" y="1522" on="1"/>
        <pt x="1390" y="1522" on="1"/>
        <pt x="1390" y="539" on="1"/>
      </contour>
    </TTGlyph>
    <TTGlyph name="Eogonek" xMin="194" yMin="-512" xMax="1143" yMax="1522">
      <contour>
        <pt x="1000" y="-52" on="0"/>
        <pt x="873" y="-191" on="0"/>
        <pt x="873" y="-256" on="1"/>
        <pt x="873" y="-318" on="0"/>
        <pt x="940" y="-364" on="0"/>
        <pt x="1001" y="-364" on="1"/>
        <pt x="1065" y="-364" on="0"/>
        <pt x="1140" y="-335" on="1"/>
        <pt x="1140" y="-453" on="1"/>
        <pt x="1100" y="-483" on="0"/>
        <pt x="972" y="-512" on="0"/>
        <pt x="903" y="-512" on="1"/>
        <pt x="792" y="-512" on="0"/>
        <pt x="657" y="-409" on="0"/>
        <pt x="657" y="-309" on="1"/>
        <pt x="657" y="-247" on="0"/>
        <pt x="727" y="-128" on="0"/>
        <pt x="847" y="-31" on="0"/>
        <pt x="921" y="0" on="1"/>
        <pt x="194" y="0" on="1"/>
        <pt x="194" y="1522" on="1"/>
        <pt x="1070" y="1522" on="1"/>
        <pt x="1070" y="1350" on="1"/>
        <pt x="417" y="1350" on="1"/>
        <pt x="417" y="870" on="1"/>
        <pt x="896" y="870" on="1"/>
        <pt x="896" y="698" on="1"/>
        <pt x="417" y="698" on="1"/>
        <pt x="417" y="175" on="1"/>
        <pt x="1143" y="175" on="1"/>
        <pt x="1143" y="0" on="1"/>
        <pt x="1094" y="0" on="1"/>
      </contour>
    </TTGlyph>
    <TTGlyph name="Eth" xMin="66" yMin="-16" xMax="1388" yMax="1538">
      <contour>
        <pt x="1027" y="1538" on="0"/>
        <pt x="1388" y="1158" on="0"/>
        <pt x="1388" y="804" on="1"/>
        <pt x="1388" y="550" on="0"/>
        <pt x="1212" y="181" on="0"/>
        <pt x="884" y="-16" on="0"/>
        <pt x="661" y="-16" on="1"/>
        <pt x="615" y="-16" on="0"/>
        <pt x="485" y="-8" on="1"/>
        <pt x="341" y="0" on="0"/>
        <pt x="279" y="0" on="1"/>
        <pt x="194" y="0" on="1"/>
        <pt x="194" y="720" on="1"/>
        <pt x="66" y="720" on="1"/>
        <pt x="66" y="869" on="1"/>
        <pt x="194" y="869" on="1"/>
        <pt x="194" y="1522" on="1"/>
        <pt x="306" y="1522" on="1"/>
        <pt x="363" y="1522" on="0"/>
        <pt x="463" y="1529" on="1"/>
        <pt x="477" y="1530" on="0"/>
        <pt x="608" y="1538" on="0"/>
        <pt x="666" y="1538" on="1"/>
      </contour>
      <contour>
        <pt x="899" y="154" on="0"/>
        <pt x="1156" y="457" on="0"/>
        <pt x="1156" y="771" on="1"/>
        <pt x="1156" y="993" on="0"/>
        <pt x="1036" y="1259" on="0"/>
        <pt x="798" y="1377" on="0"/>
        <pt x="614" y="1377" on="1"/>
        <pt x="496" y="1377" on="0"/>
        <pt x="418" y="1361" on="1"/>
        <pt x="418" y="869" on="1"/>
        <pt x="812" y="869" on="1"/>
        <pt x="812" y="720" on="1"/>
        <pt x="418" y="720" on="1"/>
        <pt x="418" y="168" on="1"/>
        <pt x="465" y="157" on="0"/>
        <pt x="606" y="148" on="0"/>
        <pt x="677" y="149" on="1"/>
      </contour>
    </TTGlyph>
    <TTGlyph name="Euro" xMin="114" yMin="-28" xMax="1371" yMax="1539">
      <contour>
        <pt x="1371" y="60" on="1"/>
        <pt x="1348" y="56" on="0"/>
        <pt x="1297" y="37" on="0"/>
        <pt x="1292" y="35" on="1"/>
        <pt x="1243" y="16" on="0"/>
        <pt x="1160" y="-9" on="0"/>
        <pt x="1021" y="-28" on="0"/>
        <pt x="926" y="-28" on="1"/>
        <pt x="759" y="-28" on="0"/>
        <pt x="509" y="103" on="0"/>
        <pt x="353" y="345" on="0"/>
        <pt x="323" y="511" on="1"/>
        <pt x="114" y="511" on="1"/>
        <pt x="114" y="654" on="1"/>
        <pt x="308" y="654" on="1"/>
        <pt x="306" y="698" on="0"/>
        <pt x="306" y="720" on="1"/>
        <pt x="306" y="809" on="0"/>
        <pt x="316" y="883" on="1"/>
        <pt x="146" y="883" on="1"/>
        <pt x="146" y="1026" on="1"/>
        <pt x="343" y="1026" on="1"/>
        <pt x="406" y="1264" on="0"/>
        <pt x="730" y="1529" on="0"/>
        <pt x="967" y="1538" on="1"/>
        <pt x="983" y="1539" on="0"/>
        <pt x="1012" y="1539" on="1"/>
        <pt x="1101" y="1539" on="0"/>
        <pt x="1216" y="1516" on="0"/>
        <pt x="1279" y="1495" on="1"/>
        <pt x="1315" y="1483" on="0"/>
        <pt x="1339" y="1477" on="1"/>
        <pt x="1286" y="1303" on="1"/>
        <pt x="1220" y="1339" on="0"/>
        <pt x="1085" y="1371" on="0"/>
        <pt x="959" y="1371" on="1"/>
        <pt x="816" y="1371" on="0"/>
        <pt x="614" y="1194" on="0"/>
        <pt x="572" y="1026" on="1"/>
        <pt x="1101" y="1026" on="1"/>
        <pt x="1101" y="883" on="1"/>
        <pt x="549" y="883" on="1"/>
        <pt x="545" y="840" on="0"/>
        <pt x="545" y="784" on="1"/>
        <pt x="545" y="710" on="0"/>
        <pt x="549" y="654" on="1"/>
        <pt x="1067" y="654" on="1"/>
        <pt x="1067" y="511" on="1"/>
        <pt x="565" y="511" on="1"/>
        <pt x="597" y="331" on="0"/>
        <pt x="781" y="132" on="0"/>
        <pt x="955" y="132" on="1"/>
        <pt x="1060" y="132" on="0"/>
        <pt x="1254" y="185" on="0"/>
        <pt x="1311" y="225" on="1"/>
      </contour>
    </TTGlyph>
    <TTGlyph name="F" xMin="194" yMin="0" xMax="1068" yMax="1522">
      <contour>
        <pt x="1068" y="1522" on="1"/>
        <pt x="1068" y="1350" on="1"/>
        <pt x="418" y="1350" on="1"/>
        <pt x="418" y="851" on="1"/>
        <pt x="905" y="851" on="1"/>
        <pt x="905" y="679" on="1"/>
        <pt x="418" y="679" on="1"/>
        <pt x="418" y="0" on="1"/>
        <pt x="194" y="0" on="1"/>
        <pt x="194" y="1522" on="1"/>
      </contour>
    </TTGlyph>
    <TTGlyph name="G" xMin="99" yMin="-16" xMax="1317" yMax="1538">
      <contour>
        <pt x="1317" y="761" on="1"/>
        <pt x="1317" y="94" on="1"/>
        <pt x="1297" y="93" on="0"/>
        <pt x="1252" y="79" on="0"/>
        <pt x="1215" y="64" on="1"/>
        <pt x="1122" y="28" on="0"/>
        <pt x="940" y="-16" on="0"/>
        <pt x="804" y="-16" on="1"/>
        <pt x="584" y="-16" on="0"/>
        <pt x="266" y="182" on="0"/>
        <pt x="99" y="531" on="0"/>
        <pt x="99" y="753" on="1"/>
        <pt x="99" y="1006" on="0"/>
        <pt x="284" y="1360" on="0"/>
        <pt x="603" y="1538" on="0"/>
        <pt x="804" y="1538" on="1"/>
        <pt x="919" y="1538" on="0"/>
        <pt x="1057" y="1518" on="0"/>
        <pt x="1139" y="1498" on="1"/>
        <pt x="1197" y="1484" on="0"/>
        <pt x="1230" y="1478" on="1"/>
        <pt x="1220" y="1278" on="1"/>
        <pt x="1137" y="1321" on="0"/>
        <pt x="945" y="1364" on="0"/>
        <pt x="790" y="1364" on="1"/>
        <pt x="657" y="1364" on="0"/>
        <pt x="448" y="1224" on="0"/>
        <pt x="330" y="960" on="0"/>
        <pt x="330" y="780" on="1"/>
        <pt x="330" y="599" on="0"/>
        <pt x="434" y="317" on="0"/>
        <pt x="646" y="154" on="0"/>
        <pt x="801" y="154" on="1"/>
        <pt x="890" y="154" on="0"/>
        <pt x="1061" y="183" on="0"/>
        <pt x="1102" y="211" on="1"/>
        <pt x="1102" y="588" on="1"/>
        <pt x="825" y="601" on="1"/>
        <pt x="825" y="761" on="1"/>
      </contour>
    </TTGlyph>
    <TTGlyph name="Gbreve" xMin="99" yMin="-16" xMax="1317" yMax="1970">
      <component glyphName="breve.cap" x="416" y="0" flags="0x0"/>
      <component glyphName="G" x="0" y="0" flags="0x0"/>
    </TTGlyph>
    <TTGlyph name="Gcaron" xMin="99" yMin="-16" xMax="1317" yMax="1990">
      <component glyphName="G" x="0" y="0" flags="0x0"/>
      <component glyphName="caron.cap" x="416" y="0" flags="0x0"/>
    </TTGlyph>
    <TTGlyph name="Gcircumflex" xMin="99" yMin="-16" xMax="1317" yMax="1990">
      <component glyphName="G" x="0" y="0" flags="0x0"/>
      <component glyphName="circumflex.cap" x="401" y="0" flags="0x0"/>
    </TTGlyph>
    <TTGlyph name="Gcommaaccent" xMin="99" yMin="-560" xMax="1317" yMax="1538">
      <component glyphName="uni0326" x="1007" y="0" flags="0x0"/>
      <component glyphName="G" x="0" y="0" flags="0x0"/>
    </TTGlyph>
    <TTGlyph name="Gdotaccent" xMin="99" yMin="-16" xMax="1317" yMax="1956">
      <component glyphName="dotaccent.cap" x="607" y="0" flags="0x0"/>
      <component glyphName="G" x="0" y="0" flags="0x0"/>
    </TTGlyph>
    <TTGlyph name="Gtilde" xMin="99" yMin="-16" xMax="1317" yMax="1966">
      <component glyphName="G" x="0" y="0" flags="0x0"/>
      <component glyphName="tilde.cap" x="344" y="0" flags="0x0"/>
    </TTGlyph>
    <TTGlyph name="H" xMin="194" yMin="0" xMax="1358" yMax="1522">
      <contour>
        <pt x="417" y="1522" on="1"/>
        <pt x="417" y="855" on="1"/>
        <pt x="1135" y="855" on="1"/>
        <pt x="1135" y="1522" on="1"/>
        <pt x="1358" y="1522" on="1"/>
        <pt x="1358" y="0" on="1"/>
        <pt x="1135" y="0" on="1"/>
        <pt x="1135" y="683" on="1"/>
        <pt x="417" y="683" on="1"/>
        <pt x="417" y="0" on="1"/>
        <pt x="194" y="0" on="1"/>
        <pt x="194" y="1522" on="1"/>
      </contour>
    </TTGlyph>
    <TTGlyph name="Hbar" xMin="8" yMin="0" xMax="1558" yMax="1522">
      <contour>
        <pt x="1558" y="1065" on="1"/>
        <pt x="1369" y="1065" on="1"/>
        <pt x="1369" y="0" on="1"/>
        <pt x="1146" y="0" on="1"/>
        <pt x="1146" y="674" on="1"/>
        <pt x="417" y="674" on="1"/>
        <pt x="417" y="0" on="1"/>
        <pt x="194" y="0" on="1"/>
        <pt x="194" y="1065" on="1"/>
        <pt x="8" y="1065" on="1"/>
        <pt x="8" y="1207" on="1"/>
        <pt x="194" y="1207" on="1"/>
        <pt x="194" y="1522" on="1"/>
        <pt x="417" y="1522" on="1"/>
        <pt x="417" y="1207" on="1"/>
        <pt x="1146" y="1207" on="1"/>
        <pt x="1146" y="1522" on="1"/>
        <pt x="1369" y="1522" on="1"/>
        <pt x="1369" y="1207" on="1"/>
        <pt x="1558" y="1207" on="1"/>
      </contour>
      <contour>
        <pt x="1146" y="1065" on="1"/>
        <pt x="417" y="1065" on="1"/>
        <pt x="417" y="845" on="1"/>
        <pt x="1146" y="845" on="1"/>
      </contour>
    </TTGlyph>
    <TTGlyph name="Hcircumflex" xMin="194" yMin="0" xMax="1358" yMax="1990">
      <component glyphName="H" x="0" y="0" flags="0x0"/>
      <component glyphName="circumflex.cap" x="370" y="0" flags="0x0"/>
    </TTGlyph>
    <TTGlyph name="I" xMin="207" yMin="0" xMax="433" yMax="1522">
      <contour>
        <pt x="433" y="1522" on="1"/>
        <pt x="433" y="0" on="1"/>
        <pt x="207" y="0" on="1"/>
        <pt x="207" y="1522" on="1"/>
      </contour>
    </TTGlyph>
    <TTGlyph name="I.uc" xMin="173" yMin="0" xMax="472" yMax="1956">
      <component glyphName="I" x="0" y="0" flags="0x0"/>
      <component glyphName="dotaccent.cap" x="121" y="0" flags="0x0"/>
    </TTGlyph>
    <TTGlyph name="IJ" xMin="207" yMin="-332" xMax="1135" yMax="1522">
      <component glyphName="I" x="0" y="0" flags="0x0"/>
      <component glyphName="J" x="640" y="0" flags="0x0"/>
    </TTGlyph>
    <TTGlyph name="IJ_acutecomb" xMin="193" yMin="-332" xMax="1383" yMax="1980">
      <contour>
        <pt x="249" y="1715" on="0"/>
        <pt x="533" y="1972" on="0"/>
        <pt x="536" y="1980" on="1"/>
        <pt x="682" y="1847" on="1"/>
        <pt x="608" y="1771" on="0"/>
        <pt x="368" y="1602" on="0"/>
        <pt x="286" y="1573" on="1"/>
        <pt x="193" y="1665" on="1"/>
      </contour>
      <contour>
        <pt x="950" y="1705" on="0"/>
        <pt x="1234" y="1962" on="0"/>
        <pt x="1237" y="1970" on="1"/>
        <pt x="1383" y="1837" on="1"/>
        <pt x="1309" y="1761" on="0"/>
        <pt x="1069" y="1592" on="0"/>
        <pt x="987" y="1563" on="1"/>
        <pt x="894" y="1655" on="1"/>
      </contour>
      <contour>
        <pt x="433" y="1522" on="1"/>
        <pt x="433" y="0" on="1"/>
        <pt x="207" y="0" on="1"/>
        <pt x="207" y="1522" on="1"/>
      </contour>
      <contour>
        <pt x="691" y="-181" on="0"/>
        <pt x="847" y="-42" on="0"/>
        <pt x="876" y="66" on="1"/>
        <pt x="897" y="142" on="0"/>
        <pt x="908" y="379" on="0"/>
        <pt x="908" y="572" on="1"/>
        <pt x="908" y="608" on="1"/>
        <pt x="908" y="1522" on="1"/>
        <pt x="1134" y="1522" on="1"/>
        <pt x="1134" y="613" on="1"/>
        <pt x="1135" y="399" on="1"/>
        <pt x="1135" y="300" on="0"/>
        <pt x="1127" y="150" on="0"/>
        <pt x="1115" y="86" on="1"/>
        <pt x="1093" y="-36" on="0"/>
        <pt x="948" y="-216" on="0"/>
        <pt x="758" y="-318" on="0"/>
        <pt x="666" y="-332" on="1"/>
        <pt x="598" y="-215" on="1"/>
      </contour>
    </TTGlyph>
    <TTGlyph name="Iacute" xMin="193" yMin="0" xMax="682" yMax="1980">
      <component glyphName="I" x="0" y="0" flags="0x0"/>
      <component glyphName="acute.cap" x="135" y="0" flags="0x0"/>
    </TTGlyph>
    <TTGlyph name="Ibreve" xMin="-22" yMin="0" xMax="664" yMax="1970">
      <component glyphName="I" x="0" y="0" flags="0x0"/>
      <component glyphName="breve.cap" x="-70" y="0" flags="0x0"/>
    </TTGlyph>
    <TTGlyph name="Icircumflex" xMin="-37" yMin="0" xMax="681" yMax="1990">
      <component glyphName="I" x="0" y="0" flags="0x0"/>
      <component glyphName="circumflex.cap" x="-85" y="0" flags="0x0"/>
    </TTGlyph>
    <TTGlyph name="Idieresis" xMin="-75" yMin="0" xMax="718" yMax="1955">
      <component glyphName="I" x="0" y="0" flags="0x0"/>
      <component glyphName="dieresis.cap" x="-125" y="0" flags="0x0"/>
    </TTGlyph>
    <TTGlyph name="Idotaccent" xMin="173" yMin="0" xMax="472" yMax="1956">
      <component glyphName="I" x="0" y="0" flags="0x0"/>
      <component glyphName="dotaccent.cap" x="121" y="0" flags="0x0"/>
    </TTGlyph>
    <TTGlyph name="Igrave" xMin="-39" yMin="0" xMax="450" yMax="1980">
      <component glyphName="I" x="0" y="0" flags="0x0"/>
      <component glyphName="grave.cap" x="-89" y="0" flags="0x0"/>
    </TTGlyph>
    <TTGlyph name="Imacron" xMin="50" yMin="0" xMax="597" yMax="1891">
      <component glyphName="I" x="0" y="0" flags="0x0"/>
      <component glyphName="macron.cap" x="0" y="0" flags="0x0"/>
    </TTGlyph>
    <TTGlyph name="Iogonek" xMin="43" yMin="-512" xMax="536" yMax="1522">
      <contour>
        <pt x="461" y="-364" on="0"/>
        <pt x="536" y="-335" on="1"/>
        <pt x="536" y="-453" on="1"/>
        <pt x="495" y="-484" on="0"/>
        <pt x="377" y="-512" on="0"/>
        <pt x="309" y="-512" on="1"/>
        <pt x="233" y="-512" on="0"/>
        <pt x="112" y="-458" on="0"/>
        <pt x="43" y="-356" on="0"/>
        <pt x="43" y="-288" on="1"/>
        <pt x="43" y="-206" on="0"/>
        <pt x="159" y="-50" on="0"/>
        <pt x="241" y="0" on="1"/>
        <pt x="207" y="0" on="1"/>
        <pt x="207" y="1522" on="1"/>
        <pt x="433" y="1522" on="1"/>
        <pt x="433" y="0" on="1"/>
        <pt x="408" y="0" on="1"/>
        <pt x="259" y="-95" on="0"/>
        <pt x="259" y="-242" on="1"/>
        <pt x="259" y="-306" on="0"/>
        <pt x="337" y="-364" on="0"/>
        <pt x="397" y="-364" on="1"/>
      </contour>
    </TTGlyph>
    <TTGlyph name="Itilde" xMin="-95" yMin="0" xMax="739" yMax="1966">
      <component glyphName="I" x="0" y="0" flags="0x0"/>
      <component glyphName="tilde.cap" x="-142" y="0" flags="0x0"/>
    </TTGlyph>
    <TTGlyph name="J" xMin="-42" yMin="-332" xMax="495" yMax="1522">
      <contour>
        <pt x="51" y="-181" on="0"/>
        <pt x="207" y="-42" on="0"/>
        <pt x="236" y="66" on="1"/>
        <pt x="257" y="142" on="0"/>
        <pt x="268" y="379" on="0"/>
        <pt x="268" y="572" on="1"/>
        <pt x="268" y="608" on="1"/>
        <pt x="268" y="1522" on="1"/>
        <pt x="494" y="1522" on="1"/>
        <pt x="494" y="613" on="1"/>
        <pt x="495" y="399" on="1"/>
        <pt x="495" y="300" on="0"/>
        <pt x="487" y="150" on="0"/>
        <pt x="475" y="86" on="1"/>
        <pt x="453" y="-36" on="0"/>
        <pt x="308" y="-216" on="0"/>
        <pt x="118" y="-318" on="0"/>
        <pt x="26" y="-332" on="1"/>
        <pt x="-42" y="-215" on="1"/>
      </contour>
    </TTGlyph>
    <TTGlyph name="Jcircumflex" xMin="-42" yMin="-332" xMax="736" yMax="1990">
      <component glyphName="J" x="0" y="0" flags="0x0"/>
      <component glyphName="circumflex.cap" x="-30" y="0" flags="0x0"/>
    </TTGlyph>
    <TTGlyph name="K" xMin="194" yMin="0" xMax="1302" yMax="1522">
      <contour>
        <pt x="1302" y="0" on="1"/>
        <pt x="1045" y="0" on="1"/>
        <pt x="1035" y="15" on="0"/>
        <pt x="1019" y="46" on="1"/>
        <pt x="1002" y="83" on="0"/>
        <pt x="984" y="113" on="1"/>
        <pt x="943" y="187" on="0"/>
        <pt x="835" y="356" on="0"/>
        <pt x="745" y="490" on="1"/>
        <pt x="719" y="529" on="0"/>
        <pt x="633" y="659" on="0"/>
        <pt x="607" y="701" on="1"/>
        <pt x="417" y="481" on="1"/>
        <pt x="417" y="0" on="1"/>
        <pt x="194" y="0" on="1"/>
        <pt x="194" y="1522" on="1"/>
        <pt x="417" y="1522" on="1"/>
        <pt x="417" y="758" on="1"/>
        <pt x="1020" y="1522" on="1"/>
        <pt x="1283" y="1522" on="1"/>
        <pt x="744" y="866" on="1"/>
        <pt x="777" y="811" on="0"/>
        <pt x="908" y="617" on="0"/>
        <pt x="926" y="591" on="1"/>
        <pt x="1047" y="412" on="0"/>
        <pt x="1190" y="195" on="0"/>
        <pt x="1237" y="110" on="1"/>
      </contour>
    </TTGlyph>
    <TTGlyph name="Kcommaaccent" xMin="194" yMin="-560" xMax="1302" yMax="1522">
      <component glyphName="uni0326" x="895" y="0" flags="0x0"/>
      <component glyphName="K" x="0" y="0" flags="0x0"/>
    </TTGlyph>
    <TTGlyph name="L" xMin="194" yMin="0" xMax="1026" yMax="1522">
      <contour>
        <pt x="422" y="1522" on="1"/>
        <pt x="422" y="175" on="1"/>
        <pt x="1026" y="175" on="1"/>
        <pt x="1026" y="0" on="1"/>
        <pt x="194" y="0" on="1"/>
        <pt x="194" y="1522" on="1"/>
      </contour>
    </TTGlyph>
    <TTGlyph name="Lacute" xMin="178" yMin="0" xMax="1026" yMax="1980">
      <component glyphName="acute.cap" x="120" y="0" flags="0x0"/>
      <component glyphName="L" x="0" y="0" flags="0x0"/>
    </TTGlyph>
    <TTGlyph name="Lcaron" xMin="194" yMin="0" xMax="1026" yMax="1687">
      <component glyphName="L" x="0" y="0" flags="0x0"/>
      <component glyphName="caronvertical" x="671" y="0" flags="0x0"/>
    </TTGlyph>
    <TTGlyph name="Lcommaaccent" xMin="194" yMin="-560" xMax="1026" yMax="1522">
      <component glyphName="uni0326" x="806" y="0" flags="0x0"/>
      <component glyphName="L" x="0" y="0" flags="0x0"/>
    </TTGlyph>
    <TTGlyph name="Ldot" xMin="194" yMin="0" xMax="1213" yMax="1522">
      <component glyphName="period" x="758" y="706" flags="0x4"/>
      <component glyphName="L" x="0" y="0" flags="0x0"/>
    </TTGlyph>
    <TTGlyph name="Lslash" xMin="18" yMin="0" xMax="1026" yMax="1522">
      <contour>
        <pt x="1026" y="175" on="1"/>
        <pt x="1026" y="0" on="1"/>
        <pt x="194" y="0" on="1"/>
        <pt x="194" y="613" on="1"/>
        <pt x="71" y="568" on="1"/>
        <pt x="18" y="704" on="1"/>
        <pt x="194" y="769" on="1"/>
        <pt x="194" y="1522" on="1"/>
        <pt x="422" y="1522" on="1"/>
        <pt x="422" y="853" on="1"/>
        <pt x="812" y="997" on="1"/>
        <pt x="865" y="859" on="1"/>
        <pt x="422" y="697" on="1"/>
        <pt x="422" y="175" on="1"/>
      </contour>
    </TTGlyph>
    <TTGlyph name="M" xMin="134" yMin="-15" xMax="1790" yMax="1522">
      <contour>
        <pt x="603" y="1522" on="1"/>
        <pt x="885" y="653" on="1"/>
        <pt x="964" y="330" on="1"/>
        <pt x="1039" y="653" on="1"/>
        <pt x="1309" y="1522" on="1"/>
        <pt x="1608" y="1522" on="1"/>
        <pt x="1790" y="0" on="1"/>
        <pt x="1566" y="0" on="1"/>
        <pt x="1473" y="946" on="1"/>
        <pt x="1444" y="1356" on="1"/>
        <pt x="1342" y="946" on="1"/>
        <pt x="1024" y="-15" on="1"/>
        <pt x="904" y="-15" on="1"/>
        <pt x="572" y="946" on="1"/>
        <pt x="460" y="1355" on="1"/>
        <pt x="433" y="946" on="1"/>
        <pt x="350" y="0" on="1"/>
        <pt x="134" y="-1" on="1"/>
        <pt x="288" y="1522" on="1"/>
      </contour>
    </TTGlyph>
    <TTGlyph name="N" xMin="193" yMin="0" xMax="1363" yMax="1522">
      <contour>
        <pt x="1363" y="1522" on="1"/>
        <pt x="1363" y="0" on="1"/>
        <pt x="1156" y="0" on="1"/>
        <pt x="526" y="967" on="1"/>
        <pt x="386" y="1216" on="1"/>
        <pt x="398" y="952" on="1"/>
        <pt x="398" y="0" on="1"/>
        <pt x="193" y="0" on="1"/>
        <pt x="193" y="1522" on="1"/>
        <pt x="397" y="1522" on="1"/>
        <pt x="1048" y="517" on="1"/>
        <pt x="1172" y="292" on="1"/>
        <pt x="1158" y="545" on="1"/>
        <pt x="1158" y="1522" on="1"/>
      </contour>
    </TTGlyph>
    <TTGlyph name="Nacute" xMin="193" yMin="0" xMax="1363" yMax="1980">
      <component glyphName="acute.cap" x="606" y="0" flags="0x0"/>
      <component glyphName="N" x="0" y="0" flags="0x0"/>
    </TTGlyph>
    <TTGlyph name="Ncaron" xMin="193" yMin="0" xMax="1363" yMax="1990">
      <component glyphName="caron.cap" x="401" y="0" flags="0x0"/>
      <component glyphName="N" x="0" y="0" flags="0x0"/>
    </TTGlyph>
    <TTGlyph name="Ncommaaccent" xMin="193" yMin="-560" xMax="1363" yMax="1522">
      <component glyphName="uni0326" x="946" y="0" flags="0x0"/>
      <component glyphName="N" x="0" y="0" flags="0x0"/>
    </TTGlyph>
    <TTGlyph name="Ntilde" xMin="193" yMin="0" xMax="1363" yMax="1966">
      <component glyphName="tilde.cap" x="329" y="0" flags="0x0"/>
      <component glyphName="N" x="0" y="0" flags="0x0"/>
    </TTGlyph>
    <TTGlyph name="O" xMin="100" yMin="-16" xMax="1469" yMax="1538">
      <contour>
        <pt x="100" y="1003" on="0"/>
        <pt x="287" y="1359" on="0"/>
        <pt x="608" y="1538" on="0"/>
        <pt x="808" y="1538" on="1"/>
        <pt x="1005" y="1538" on="0"/>
        <pt x="1304" y="1352" on="0"/>
        <pt x="1469" y="1011" on="0"/>
        <pt x="1469" y="784" on="1"/>
        <pt x="1469" y="527" on="0"/>
        <pt x="1287" y="167" on="0"/>
        <pt x="968" y="-16" on="0"/>
        <pt x="762" y="-16" on="1"/>
        <pt x="563" y="-16" on="0"/>
        <pt x="263" y="180" on="0"/>
        <pt x="100" y="528" on="0"/>
        <pt x="100" y="749" on="1"/>
      </contour>
      <contour>
        <pt x="1243" y="935" on="0"/>
        <pt x="1141" y="1207" on="0"/>
        <pt x="942" y="1368" on="0"/>
        <pt x="801" y="1368" on="1"/>
        <pt x="668" y="1368" on="0"/>
        <pt x="452" y="1233" on="0"/>
        <pt x="325" y="959" on="0"/>
        <pt x="325" y="758" on="1"/>
        <pt x="325" y="596" on="0"/>
        <pt x="431" y="321" on="0"/>
        <pt x="639" y="155" on="0"/>
        <pt x="785" y="155" on="1"/>
        <pt x="924" y="155" on="0"/>
        <pt x="1131" y="297" on="0"/>
        <pt x="1243" y="574" on="0"/>
        <pt x="1243" y="772" on="1"/>
      </contour>
    </TTGlyph>
    <TTGlyph name="OE" xMin="96" yMin="-16" xMax="1989" yMax="1540">
      <contour>
        <pt x="1989" y="175" on="1"/>
        <pt x="1989" y="0" on="1"/>
        <pt x="1040" y="0" on="1"/>
        <pt x="1040" y="51" on="1"/>
        <pt x="981" y="18" on="0"/>
        <pt x="847" y="-16" on="0"/>
        <pt x="760" y="-16" on="1"/>
        <pt x="558" y="-16" on="0"/>
        <pt x="256" y="187" on="0"/>
        <pt x="96" y="545" on="0"/>
        <pt x="100" y="769" on="1"/>
        <pt x="105" y="1014" on="0"/>
        <pt x="284" y="1354" on="0"/>
        <pt x="597" y="1531" on="0"/>
        <pt x="805" y="1538" on="1"/>
        <pt x="863" y="1540" on="0"/>
        <pt x="986" y="1522" on="0"/>
        <pt x="1040" y="1498" on="1"/>
        <pt x="1040" y="1522" on="1"/>
        <pt x="1916" y="1522" on="1"/>
        <pt x="1916" y="1350" on="1"/>
        <pt x="1263" y="1350" on="1"/>
        <pt x="1263" y="870" on="1"/>
        <pt x="1742" y="870" on="1"/>
        <pt x="1742" y="698" on="1"/>
        <pt x="1263" y="698" on="1"/>
        <pt x="1263" y="175" on="1"/>
      </contour>
      <contour>
        <pt x="938" y="152" on="0"/>
        <pt x="1040" y="232" on="1"/>
        <pt x="1040" y="1309" on="1"/>
        <pt x="948" y="1369" on="0"/>
        <pt x="800" y="1369" on="1"/>
        <pt x="670" y="1369" on="0"/>
        <pt x="454" y="1236" on="0"/>
        <pt x="324" y="962" on="0"/>
        <pt x="324" y="758" on="1"/>
        <pt x="324" y="594" on="0"/>
        <pt x="430" y="317" on="0"/>
        <pt x="639" y="152" on="0"/>
        <pt x="784" y="152" on="1"/>
      </contour>
    </TTGlyph>
    <TTGlyph name="Oacute" xMin="100" yMin="-16" xMax="1469" yMax="1980">
      <component glyphName="acute.cap" x="622" y="0" flags="0x0"/>
      <component glyphName="O" x="0" y="0" flags="0x0"/>
    </TTGlyph>
    <TTGlyph name="Obreve" xMin="100" yMin="-16" xMax="1469" yMax="1970">
      <component glyphName="breve.cap" x="417" y="0" flags="0x0"/>
      <component glyphName="O" x="0" y="0" flags="0x0"/>
    </TTGlyph>
    <TTGlyph name="Ocircumflex" xMin="100" yMin="-16" xMax="1469" yMax="1990">
      <component glyphName="O" x="0" y="0" flags="0x0"/>
      <component glyphName="circumflex.cap" x="402" y="0" flags="0x0"/>
    </TTGlyph>
    <TTGlyph name="Odieresis" xMin="100" yMin="-16" xMax="1469" yMax="1955">
      <component glyphName="dieresis.cap" x="362" y="0" flags="0x0"/>
      <component glyphName="O" x="0" y="0" flags="0x0"/>
    </TTGlyph>
    <TTGlyph name="Ograve" xMin="100" yMin="-16" xMax="1469" yMax="1980">
      <component glyphName="grave.cap" x="398" y="0" flags="0x0"/>
      <component glyphName="O" x="0" y="0" flags="0x0"/>
    </TTGlyph>
    <TTGlyph name="Ohungarumlaut" xMin="100" yMin="-16" xMax="1469" yMax="2000">
      <component glyphName="O" x="0" y="0" flags="0x0"/>
      <component glyphName="hungarumlaut.cap" x="393" y="0" flags="0x0"/>
    </TTGlyph>
    <TTGlyph name="Omacron" xMin="100" yMin="-16" xMax="1469" yMax="1891">
      <component glyphName="macron.cap" x="487" y="0" flags="0x0"/>
      <component glyphName="O" x="0" y="0" flags="0x0"/>
    </TTGlyph>
    <TTGlyph name="Oslash" xMin="100" yMin="-200" xMax="1469" yMax="1738">
      <contour>
        <pt x="1219" y="1416" on="0"/>
        <pt x="1382" y="1219" on="0"/>
        <pt x="1469" y="948" on="0"/>
        <pt x="1469" y="786" on="1"/>
        <pt x="1469" y="527" on="0"/>
        <pt x="1286" y="166" on="0"/>
        <pt x="965" y="-16" on="0"/>
        <pt x="759" y="-16" on="1"/>
        <pt x="668" y="-16" on="0"/>
        <pt x="580" y="8" on="1"/>
        <pt x="505" y="-200" on="1"/>
        <pt x="380" y="-164" on="1"/>
        <pt x="459" y="55" on="1"/>
        <pt x="347" y="114" on="0"/>
        <pt x="185" y="319" on="0"/>
        <pt x="100" y="592" on="0"/>
        <pt x="100" y="751" on="1"/>
        <pt x="100" y="1004" on="0"/>
        <pt x="287" y="1359" on="0"/>
        <pt x="608" y="1538" on="0"/>
        <pt x="808" y="1538" on="1"/>
        <pt x="903" y="1538" on="0"/>
        <pt x="985" y="1517" on="1"/>
        <pt x="1065" y="1738" on="1"/>
        <pt x="1190" y="1702" on="1"/>
        <pt x="1107" y="1472" on="1"/>
      </contour>
      <contour>
        <pt x="325" y="597" on="0"/>
        <pt x="429" y="324" on="0"/>
        <pt x="527" y="244" on="1"/>
        <pt x="925" y="1349" on="1"/>
        <pt x="869" y="1368" on="0"/>
        <pt x="801" y="1368" on="1"/>
        <pt x="668" y="1368" on="0"/>
        <pt x="452" y="1233" on="0"/>
        <pt x="325" y="959" on="0"/>
        <pt x="325" y="758" on="1"/>
      </contour>
      <contour>
        <pt x="924" y="155" on="0"/>
        <pt x="1131" y="297" on="0"/>
        <pt x="1243" y="574" on="0"/>
        <pt x="1243" y="772" on="1"/>
        <pt x="1243" y="937" on="0"/>
        <pt x="1139" y="1211" on="0"/>
        <pt x="1041" y="1288" on="1"/>
        <pt x="642" y="179" on="1"/>
        <pt x="707" y="155" on="0"/>
        <pt x="785" y="155" on="1"/>
      </contour>
    </TTGlyph>
    <TTGlyph name="Oslashacute" xMin="100" yMin="-200" xMax="1469" yMax="1980">
      <component glyphName="Oslash" x="0" y="0" flags="0x0"/>
      <component glyphName="acute.cap" x="522" y="0" flags="0x0"/>
    </TTGlyph>
    <TTGlyph name="Otilde" xMin="100" yMin="-16" xMax="1469" yMax="1966">
      <component glyphName="tilde.cap" x="345" y="0" flags="0x0"/>
      <component glyphName="O" x="0" y="0" flags="0x0"/>
    </TTGlyph>
    <TTGlyph name="P" xMin="194" yMin="0" xMax="1196" yMax="1538">
      <contour>
        <pt x="299" y="1522" on="1"/>
        <pt x="352" y="1522" on="0"/>
        <pt x="468" y="1530" on="1"/>
        <pt x="592" y="1538" on="0"/>
        <pt x="665" y="1538" on="1"/>
        <pt x="920" y="1538" on="0"/>
        <pt x="1196" y="1297" on="0"/>
        <pt x="1196" y="1045" on="1"/>
        <pt x="1196" y="879" on="0"/>
        <pt x="1063" y="645" on="0"/>
        <pt x="802" y="522" on="0"/>
        <pt x="614" y="522" on="1"/>
        <pt x="531" y="522" on="0"/>
        <pt x="455" y="526" on="1"/>
        <pt x="417" y="527" on="1"/>
        <pt x="417" y="0" on="1"/>
        <pt x="194" y="0" on="1"/>
        <pt x="194" y="1522" on="1"/>
      </contour>
      <contour>
        <pt x="711" y="686" on="0"/>
        <pt x="874" y="744" on="0"/>
        <pt x="974" y="902" on="0"/>
        <pt x="974" y="1043" on="1"/>
        <pt x="974" y="1216" on="0"/>
        <pt x="799" y="1378" on="0"/>
        <pt x="625" y="1378" on="1"/>
        <pt x="493" y="1378" on="0"/>
        <pt x="417" y="1359" on="1"/>
        <pt x="417" y="696" on="1"/>
        <pt x="491" y="686" on="0"/>
        <pt x="601" y="686" on="1"/>
      </contour>
    </TTGlyph>
    <TTGlyph name="Q" xMin="100" yMin="-294" xMax="1511" yMax="1538">
      <contour>
        <pt x="1456" y="-113" on="0"/>
        <pt x="1511" y="-94" on="1"/>
        <pt x="1511" y="-254" on="1"/>
        <pt x="1487" y="-270" on="0"/>
        <pt x="1383" y="-294" on="0"/>
        <pt x="1328" y="-294" on="1"/>
        <pt x="1214" y="-294" on="0"/>
        <pt x="1025" y="-246" on="0"/>
        <pt x="848" y="-124" on="0"/>
        <pt x="767" y="-16" on="1"/>
        <pt x="567" y="-17" on="0"/>
        <pt x="264" y="178" on="0"/>
        <pt x="100" y="527" on="0"/>
        <pt x="100" y="749" on="1"/>
        <pt x="100" y="1003" on="0"/>
        <pt x="287" y="1359" on="0"/>
        <pt x="608" y="1538" on="0"/>
        <pt x="808" y="1538" on="1"/>
        <pt x="1005" y="1538" on="0"/>
        <pt x="1304" y="1352" on="0"/>
        <pt x="1469" y="1011" on="0"/>
        <pt x="1469" y="784" on="1"/>
        <pt x="1469" y="575" on="0"/>
        <pt x="1347" y="257" on="0"/>
        <pt x="1127" y="55" on="0"/>
        <pt x="979" y="13" on="1"/>
        <pt x="1040" y="-51" on="0"/>
        <pt x="1224" y="-113" on="0"/>
        <pt x="1327" y="-113" on="1"/>
      </contour>
      <contour>
        <pt x="325" y="596" on="0"/>
        <pt x="431" y="321" on="0"/>
        <pt x="639" y="155" on="0"/>
        <pt x="785" y="155" on="1"/>
        <pt x="924" y="155" on="0"/>
        <pt x="1131" y="297" on="0"/>
        <pt x="1243" y="574" on="0"/>
        <pt x="1243" y="772" on="1"/>
        <pt x="1243" y="935" on="0"/>
        <pt x="1141" y="1207" on="0"/>
        <pt x="942" y="1368" on="0"/>
        <pt x="801" y="1368" on="1"/>
        <pt x="668" y="1368" on="0"/>
        <pt x="452" y="1233" on="0"/>
        <pt x="325" y="959" on="0"/>
        <pt x="325" y="758" on="1"/>
      </contour>
    </TTGlyph>
    <TTGlyph name="R" xMin="194" yMin="0" xMax="1306" yMax="1538">
      <contour>
        <pt x="1278" y="50" on="0"/>
        <pt x="1306" y="0" on="1"/>
        <pt x="1053" y="0" on="1"/>
        <pt x="1038" y="22" on="0"/>
        <pt x="1020" y="63" on="1"/>
        <pt x="998" y="112" on="1"/>
        <pt x="979" y="152" on="0"/>
        <pt x="939" y="257" on="1"/>
        <pt x="897" y="369" on="0"/>
        <pt x="830" y="516" on="0"/>
        <pt x="739" y="632" on="0"/>
        <pt x="682" y="650" on="1"/>
        <pt x="623" y="648" on="0"/>
        <pt x="417" y="648" on="1"/>
        <pt x="417" y="0" on="1"/>
        <pt x="194" y="0" on="1"/>
        <pt x="194" y="1522" on="1"/>
        <pt x="291" y="1522" on="1"/>
        <pt x="345" y="1522" on="0"/>
        <pt x="448" y="1529" on="1"/>
        <pt x="608" y="1538" on="0"/>
        <pt x="679" y="1538" on="1"/>
        <pt x="923" y="1538" on="0"/>
        <pt x="1197" y="1329" on="0"/>
        <pt x="1197" y="1110" on="1"/>
        <pt x="1197" y="946" on="0"/>
        <pt x="1054" y="734" on="0"/>
        <pt x="922" y="688" on="1"/>
        <pt x="967" y="657" on="0"/>
        <pt x="1045" y="543" on="0"/>
        <pt x="1108" y="414" on="0"/>
        <pt x="1152" y="311" on="1"/>
        <pt x="1214" y="170" on="0"/>
        <pt x="1245" y="112" on="1"/>
      </contour>
      <contour>
        <pt x="470" y="800" on="0"/>
        <pt x="652" y="800" on="1"/>
        <pt x="805" y="800" on="0"/>
        <pt x="969" y="945" on="0"/>
        <pt x="969" y="1099" on="1"/>
        <pt x="969" y="1195" on="0"/>
        <pt x="904" y="1316" on="0"/>
        <pt x="763" y="1374" on="0"/>
        <pt x="646" y="1374" on="1"/>
        <pt x="506" y="1374" on="0"/>
        <pt x="417" y="1356" on="1"/>
        <pt x="417" y="806" on="1"/>
      </contour>
    </TTGlyph>
    <TTGlyph name="Racute" xMin="194" yMin="0" xMax="1306" yMax="1980">
      <component glyphName="R" x="0" y="0" flags="0x0"/>
      <component glyphName="acute.cap" x="524" y="0" flags="0x0"/>
    </TTGlyph>
    <TTGlyph name="Rcaron" xMin="194" yMin="0" xMax="1306" yMax="1990">
      <component glyphName="caron.cap" x="319" y="0" flags="0x0"/>
      <component glyphName="R" x="0" y="0" flags="0x0"/>
    </TTGlyph>
    <TTGlyph name="Rcommaaccent" xMin="194" yMin="-560" xMax="1306" yMax="1538">
      <component glyphName="uni0326" x="892" y="0" flags="0x0"/>
      <component glyphName="R" x="0" y="0" flags="0x0"/>
    </TTGlyph>
    <TTGlyph name="S" xMin="125" yMin="-16" xMax="1062" yMax="1538">
      <contour>
        <pt x="181" y="254" on="1"/>
        <pt x="242" y="216" on="0"/>
        <pt x="442" y="161" on="0"/>
        <pt x="540" y="161" on="1"/>
        <pt x="688" y="161" on="0"/>
        <pt x="843" y="263" on="0"/>
        <pt x="843" y="372" on="1"/>
        <pt x="843" y="444" on="0"/>
        <pt x="768" y="546" on="0"/>
        <pt x="636" y="626" on="0"/>
        <pt x="506" y="689" on="1"/>
        <pt x="339" y="770" on="0"/>
        <pt x="125" y="996" on="0"/>
        <pt x="125" y="1147" on="1"/>
        <pt x="125" y="1285" on="0"/>
        <pt x="269" y="1460" on="0"/>
        <pt x="497" y="1538" on="0"/>
        <pt x="631" y="1538" on="1"/>
        <pt x="756" y="1538" on="0"/>
        <pt x="936" y="1491" on="0"/>
        <pt x="985" y="1459" on="1"/>
        <pt x="940" y="1283" on="1"/>
        <pt x="875" y="1322" on="0"/>
        <pt x="739" y="1363" on="0"/>
        <pt x="628" y="1363" on="1"/>
        <pt x="552" y="1363" on="0"/>
        <pt x="420" y="1323" on="0"/>
        <pt x="338" y="1239" on="0"/>
        <pt x="338" y="1177" on="1"/>
        <pt x="338" y="1104" on="0"/>
        <pt x="396" y="1007" on="0"/>
        <pt x="517" y="926" on="0"/>
        <pt x="641" y="862" on="1"/>
        <pt x="769" y="796" on="0"/>
        <pt x="942" y="679" on="0"/>
        <pt x="1062" y="509" on="0"/>
        <pt x="1062" y="398" on="1"/>
        <pt x="1062" y="261" on="0"/>
        <pt x="935" y="75" on="0"/>
        <pt x="707" y="-16" on="0"/>
        <pt x="555" y="-16" on="1"/>
        <pt x="461" y="-16" on="0"/>
        <pt x="286" y="12" on="0"/>
        <pt x="157" y="52" on="0"/>
        <pt x="128" y="71" on="1"/>
      </contour>
    </TTGlyph>
    <TTGlyph name="Sacute" xMin="125" yMin="-16" xMax="1062" yMax="1980">
      <component glyphName="S" x="0" y="0" flags="0x0"/>
      <component glyphName="acute.cap" x="417" y="0" flags="0x0"/>
    </TTGlyph>
    <TTGlyph name="Scaron" xMin="125" yMin="-16" xMax="1062" yMax="1990">
      <component glyphName="S" x="0" y="0" flags="0x0"/>
      <component glyphName="caron.cap" x="212" y="0" flags="0x0"/>
    </TTGlyph>
    <TTGlyph name="Scedilla" xMin="125" yMin="-464" xMax="1062" yMax="1538">
      <contour>
        <pt x="1062" y="212" on="0"/>
        <pt x="834" y="5" on="0"/>
        <pt x="635" y="-13" on="1"/>
        <pt x="666" y="-76" on="0"/>
        <pt x="666" y="-180" on="1"/>
        <pt x="666" y="-195" on="0"/>
        <pt x="664" y="-229" on="1"/>
        <pt x="654" y="-348" on="0"/>
        <pt x="519" y="-464" on="0"/>
        <pt x="424" y="-464" on="1"/>
        <pt x="382" y="-464" on="0"/>
        <pt x="294" y="-448" on="0"/>
        <pt x="277" y="-436" on="1"/>
        <pt x="292" y="-294" on="1"/>
        <pt x="314" y="-308" on="0"/>
        <pt x="374" y="-308" on="1"/>
        <pt x="427" y="-308" on="0"/>
        <pt x="496" y="-235" on="0"/>
        <pt x="501" y="-158" on="1"/>
        <pt x="506" y="-126" on="0"/>
        <pt x="506" y="-89" on="1"/>
        <pt x="506" y="-47" on="0"/>
        <pt x="498" y="-15" on="1"/>
        <pt x="376" y="-9" on="0"/>
        <pt x="170" y="44" on="0"/>
        <pt x="128" y="71" on="1"/>
        <pt x="181" y="254" on="1"/>
        <pt x="242" y="216" on="0"/>
        <pt x="442" y="161" on="0"/>
        <pt x="540" y="161" on="1"/>
        <pt x="688" y="161" on="0"/>
        <pt x="843" y="263" on="0"/>
        <pt x="843" y="372" on="1"/>
        <pt x="843" y="444" on="0"/>
        <pt x="768" y="546" on="0"/>
        <pt x="636" y="626" on="0"/>
        <pt x="506" y="689" on="1"/>
        <pt x="339" y="770" on="0"/>
        <pt x="125" y="996" on="0"/>
        <pt x="125" y="1147" on="1"/>
        <pt x="125" y="1285" on="0"/>
        <pt x="269" y="1460" on="0"/>
        <pt x="497" y="1538" on="0"/>
        <pt x="631" y="1538" on="1"/>
        <pt x="756" y="1538" on="0"/>
        <pt x="936" y="1491" on="0"/>
        <pt x="985" y="1459" on="1"/>
        <pt x="940" y="1283" on="1"/>
        <pt x="875" y="1322" on="0"/>
        <pt x="739" y="1363" on="0"/>
        <pt x="628" y="1363" on="1"/>
        <pt x="552" y="1363" on="0"/>
        <pt x="420" y="1323" on="0"/>
        <pt x="338" y="1239" on="0"/>
        <pt x="338" y="1177" on="1"/>
        <pt x="338" y="1104" on="0"/>
        <pt x="396" y="1007" on="0"/>
        <pt x="517" y="926" on="0"/>
        <pt x="641" y="862" on="1"/>
        <pt x="769" y="796" on="0"/>
        <pt x="942" y="679" on="0"/>
        <pt x="1062" y="509" on="0"/>
        <pt x="1062" y="398" on="1"/>
      </contour>
    </TTGlyph>
    <TTGlyph name="Scircumflex" xMin="125" yMin="-16" xMax="1062" yMax="1990">
      <component glyphName="S" x="0" y="0" flags="0x0"/>
      <component glyphName="circumflex.cap" x="197" y="0" flags="0x0"/>
    </TTGlyph>
    <TTGlyph name="Scommaaccent" xMin="130" yMin="-560" xMax="1067" yMax="1538">
      <component glyphName="uni0326" x="767" y="0" flags="0x0"/>
      <component glyphName="S" x="5" y="0" flags="0x0"/>
    </TTGlyph>
    <TTGlyph name="T" xMin="63" yMin="0" xMax="1240" yMax="1522">
      <contour>
        <pt x="63" y="1350" on="1"/>
        <pt x="63" y="1522" on="1"/>
        <pt x="1240" y="1522" on="1"/>
        <pt x="1240" y="1350" on="1"/>
        <pt x="763" y="1350" on="1"/>
        <pt x="763" y="0" on="1"/>
        <pt x="538" y="0" on="1"/>
        <pt x="538" y="1350" on="1"/>
      </contour>
    </TTGlyph>
    <TTGlyph name="Tbar" xMin="63" yMin="0" xMax="1240" yMax="1522">
      <contour>
        <pt x="763" y="1350" on="1"/>
        <pt x="763" y="796" on="1"/>
        <pt x="1059" y="796" on="1"/>
        <pt x="1059" y="651" on="1"/>
        <pt x="763" y="651" on="1"/>
        <pt x="763" y="0" on="1"/>
        <pt x="538" y="0" on="1"/>
        <pt x="538" y="651" on="1"/>
        <pt x="249" y="651" on="1"/>
        <pt x="249" y="796" on="1"/>
        <pt x="538" y="796" on="1"/>
        <pt x="538" y="1350" on="1"/>
        <pt x="63" y="1350" on="1"/>
        <pt x="63" y="1522" on="1"/>
        <pt x="1240" y="1522" on="1"/>
        <pt x="1240" y="1350" on="1"/>
      </contour>
    </TTGlyph>
    <TTGlyph name="Tcaron" xMin="63" yMin="0" xMax="1240" yMax="1990">
      <component glyphName="caron.cap" x="252" y="0" flags="0x0"/>
      <component glyphName="T" x="0" y="0" flags="0x0"/>
    </TTGlyph>
    <TTGlyph name="Thorn" xMin="194" yMin="0" xMax="1182" yMax="1522">
      <contour>
        <pt x="1182" y="1259" on="0"/>
        <pt x="1182" y="793" on="1"/>
        <pt x="1182" y="632" on="0"/>
        <pt x="1049" y="405" on="0"/>
        <pt x="789" y="285" on="0"/>
        <pt x="601" y="285" on="1"/>
        <pt x="541" y="285" on="0"/>
        <pt x="446" y="290" on="1"/>
        <pt x="426" y="292" on="0"/>
        <pt x="417" y="292" on="1"/>
        <pt x="417" y="0" on="1"/>
        <pt x="194" y="0" on="1"/>
        <pt x="194" y="1522" on="1"/>
        <pt x="417" y="1522" on="1"/>
        <pt x="417" y="1247" on="1"/>
        <pt x="453" y="1250" on="1"/>
        <pt x="463" y="1251" on="0"/>
        <pt x="588" y="1259" on="0"/>
        <pt x="650" y="1259" on="1"/>
      </contour>
      <contour>
        <pt x="693" y="447" on="0"/>
        <pt x="859" y="501" on="0"/>
        <pt x="960" y="652" on="0"/>
        <pt x="960" y="790" on="1"/>
        <pt x="960" y="949" on="0"/>
        <pt x="785" y="1099" on="0"/>
        <pt x="605" y="1099" on="1"/>
        <pt x="489" y="1099" on="0"/>
        <pt x="417" y="1082" on="1"/>
        <pt x="417" y="456" on="1"/>
        <pt x="485" y="447" on="0"/>
        <pt x="579" y="447" on="1"/>
      </contour>
    </TTGlyph>
    <TTGlyph name="U" xMin="158" yMin="-16" xMax="1305" yMax="1522">
      <contour>
        <pt x="159" y="1522" on="1"/>
        <pt x="382" y="1522" on="1"/>
        <pt x="381" y="686" on="1"/>
        <pt x="381" y="481" on="0"/>
        <pt x="465" y="250" on="0"/>
        <pt x="624" y="158" on="0"/>
        <pt x="748" y="158" on="1"/>
        <pt x="858" y="158" on="0"/>
        <pt x="1004" y="251" on="0"/>
        <pt x="1083" y="483" on="0"/>
        <pt x="1083" y="686" on="1"/>
        <pt x="1083" y="1522" on="1"/>
        <pt x="1305" y="1522" on="1"/>
        <pt x="1305" y="630" on="1"/>
        <pt x="1305" y="315" on="0"/>
        <pt x="1023" y="-16" on="0"/>
        <pt x="741" y="-16" on="1"/>
        <pt x="436" y="-16" on="0"/>
        <pt x="158" y="314" on="0"/>
        <pt x="159" y="633" on="1"/>
      </contour>
    </TTGlyph>
    <TTGlyph name="Uacute" xMin="158" yMin="-16" xMax="1305" yMax="1980">
      <component glyphName="acute.cap" x="559" y="0" flags="0x0"/>
      <component glyphName="U" x="0" y="0" flags="0x0"/>
    </TTGlyph>
    <TTGlyph name="Ubreve" xMin="158" yMin="-16" xMax="1305" yMax="1970">
      <component glyphName="breve.cap" x="354" y="0" flags="0x0"/>
      <component glyphName="U" x="0" y="0" flags="0x0"/>
    </TTGlyph>
    <TTGlyph name="Ucircumflex" xMin="158" yMin="-16" xMax="1305" yMax="1990">
      <component glyphName="U" x="0" y="0" flags="0x0"/>
      <component glyphName="circumflex.cap" x="339" y="0" flags="0x0"/>
    </TTGlyph>
    <TTGlyph name="Udieresis" xMin="158" yMin="-16" xMax="1305" yMax="1955">
      <component glyphName="dieresis.cap" x="299" y="0" flags="0x0"/>
      <component glyphName="U" x="0" y="0" flags="0x0"/>
    </TTGlyph>
    <TTGlyph name="Ugrave" xMin="158" yMin="-16" xMax="1305" yMax="1980">
      <component glyphName="grave.cap" x="335" y="0" flags="0x0"/>
      <component glyphName="U" x="0" y="0" flags="0x0"/>
    </TTGlyph>
    <TTGlyph name="Uhungarumlaut" xMin="158" yMin="-16" xMax="1305" yMax="2000">
      <component glyphName="U" x="0" y="0" flags="0x0"/>
      <component glyphName="hungarumlaut.cap" x="330" y="0" flags="0x0"/>
    </TTGlyph>
    <TTGlyph name="Umacron" xMin="158" yMin="-16" xMax="1305" yMax="1891">
      <component glyphName="macron.cap" x="424" y="0" flags="0x0"/>
      <component glyphName="U" x="0" y="0" flags="0x0"/>
    </TTGlyph>
    <TTGlyph name="Uogonek" xMin="158" yMin="-512" xMax="1305" yMax="1522">
      <contour>
        <pt x="1305" y="1522" on="1"/>
        <pt x="1305" y="630" on="1"/>
        <pt x="1305" y="375" on="0"/>
        <pt x="1121" y="60" on="0"/>
        <pt x="936" y="9" on="1"/>
        <pt x="868" y="-55" on="0"/>
        <pt x="785" y="-199" on="0"/>
        <pt x="785" y="-255" on="1"/>
        <pt x="785" y="-317" on="0"/>
        <pt x="852" y="-364" on="0"/>
        <pt x="913" y="-364" on="1"/>
        <pt x="977" y="-364" on="0"/>
        <pt x="1052" y="-335" on="1"/>
        <pt x="1052" y="-453" on="1"/>
        <pt x="1012" y="-483" on="0"/>
        <pt x="884" y="-512" on="0"/>
        <pt x="815" y="-512" on="1"/>
        <pt x="705" y="-512" on="0"/>
        <pt x="569" y="-399" on="0"/>
        <pt x="569" y="-297" on="1"/>
        <pt x="569" y="-252" on="0"/>
        <pt x="616" y="-146" on="0"/>
        <pt x="699" y="-49" on="0"/>
        <pt x="749" y="-16" on="1"/>
        <pt x="741" y="-16" on="1"/>
        <pt x="436" y="-16" on="0"/>
        <pt x="158" y="314" on="0"/>
        <pt x="159" y="633" on="1"/>
        <pt x="159" y="1522" on="1"/>
        <pt x="382" y="1522" on="1"/>
        <pt x="381" y="686" on="1"/>
        <pt x="381" y="481" on="0"/>
        <pt x="465" y="250" on="0"/>
        <pt x="624" y="158" on="0"/>
        <pt x="748" y="158" on="1"/>
        <pt x="858" y="158" on="0"/>
        <pt x="1004" y="251" on="0"/>
        <pt x="1083" y="483" on="0"/>
        <pt x="1083" y="686" on="1"/>
        <pt x="1083" y="1522" on="1"/>
      </contour>
    </TTGlyph>
    <TTGlyph name="Uring" xMin="158" yMin="-16" xMax="1305" yMax="2070">
      <component glyphName="U" x="0" y="0" flags="0x0"/>
      <component glyphName="ring.cap" x="379" y="100" flags="0x4"/>
    </TTGlyph>
    <TTGlyph name="Utilde" xMin="158" yMin="-16" xMax="1305" yMax="1966">
      <component glyphName="tilde.cap" x="282" y="0" flags="0x0"/>
      <component glyphName="U" x="0" y="0" flags="0x0"/>
    </TTGlyph>
    <TTGlyph name="V" xMin="22" yMin="-13" xMax="1333" yMax="1522">
      <contour>
        <pt x="259" y="1522" on="1"/>
        <pt x="619" y="498" on="1"/>
        <pt x="686" y="263" on="1"/>
        <pt x="755" y="498" on="1"/>
        <pt x="1099" y="1522" on="1"/>
        <pt x="1333" y="1522" on="1"/>
        <pt x="778" y="-13" on="1"/>
        <pt x="591" y="-13" on="1"/>
        <pt x="22" y="1522" on="1"/>
      </contour>
    </TTGlyph>
    <TTGlyph name="W" xMin="22" yMin="-16" xMax="1896" yMax="1522">
      <contour>
        <pt x="1896" y="1522" on="1"/>
        <pt x="1503" y="-16" on="1"/>
        <pt x="1285" y="-16" on="1"/>
        <pt x="995" y="982" on="1"/>
        <pt x="961" y="1164" on="1"/>
        <pt x="926" y="981" on="1"/>
        <pt x="632" y="-16" on="1"/>
        <pt x="441" y="-16" on="1"/>
        <pt x="22" y="1522" on="1"/>
        <pt x="251" y="1522" on="1"/>
        <pt x="493" y="534" on="1"/>
        <pt x="544" y="258" on="1"/>
        <pt x="594" y="534" on="1"/>
        <pt x="881" y="1522" on="1"/>
        <pt x="1042" y="1522" on="1"/>
        <pt x="1333" y="534" on="1"/>
        <pt x="1399" y="256" on="1"/>
        <pt x="1446" y="533" on="1"/>
        <pt x="1672" y="1522" on="1"/>
      </contour>
    </TTGlyph>
    <TTGlyph name="Wacute" xMin="22" yMin="-16" xMax="1896" yMax="1980">
      <component glyphName="acute.cap" x="774" y="0" flags="0x0"/>
      <component glyphName="W" x="0" y="0" flags="0x0"/>
    </TTGlyph>
    <TTGlyph name="Wcircumflex" xMin="22" yMin="-16" xMax="1896" yMax="1990">
      <component glyphName="W" x="0" y="0" flags="0x0"/>
      <component glyphName="circumflex.cap" x="554" y="0" flags="0x0"/>
    </TTGlyph>
    <TTGlyph name="Wdieresis" xMin="22" yMin="-16" xMax="1896" yMax="1955">
      <component glyphName="dieresis.cap" x="514" y="0" flags="0x0"/>
      <component glyphName="W" x="0" y="0" flags="0x0"/>
    </TTGlyph>
    <TTGlyph name="Wgrave" xMin="22" yMin="-16" xMax="1896" yMax="1980">
      <component glyphName="grave.cap" x="550" y="0" flags="0x0"/>
      <component glyphName="W" x="0" y="0" flags="0x0"/>
    </TTGlyph>
    <TTGlyph name="X" xMin="43" yMin="0" xMax="1272" yMax="1523">
      <contour>
        <pt x="1272" y="0" on="1"/>
        <pt x="1018" y="0" on="1"/>
        <pt x="749" y="448" on="1"/>
        <pt x="645" y="619" on="1"/>
        <pt x="544" y="448" on="1"/>
        <pt x="282" y="0" on="1"/>
        <pt x="43" y="0" on="1"/>
        <pt x="523" y="786" on="1"/>
        <pt x="45" y="1522" on="1"/>
        <pt x="296" y="1523" on="1"/>
        <pt x="544" y="1120" on="1"/>
        <pt x="667" y="918" on="1"/>
        <pt x="1023" y="1522" on="1"/>
        <pt x="1262" y="1522" on="1"/>
        <pt x="785" y="754" on="1"/>
      </contour>
    </TTGlyph>
    <TTGlyph name="Y" xMin="22" yMin="0" xMax="1242" yMax="1522">
      <contour>
        <pt x="749" y="594" on="1"/>
        <pt x="749" y="0" on="1"/>
        <pt x="523" y="0" on="1"/>
        <pt x="523" y="594" on="1"/>
        <pt x="22" y="1522" on="1"/>
        <pt x="260" y="1522" on="1"/>
        <pt x="598" y="862" on="1"/>
        <pt x="641" y="757" on="1"/>
        <pt x="677" y="862" on="1"/>
        <pt x="1008" y="1522" on="1"/>
        <pt x="1242" y="1522" on="1"/>
      </contour>
    </TTGlyph>
    <TTGlyph name="Yacute" xMin="22" yMin="0" xMax="1242" yMax="1980">
      <component glyphName="Y" x="0" y="0" flags="0x0"/>
      <component glyphName="acute.cap" x="464" y="0" flags="0x0"/>
    </TTGlyph>
    <TTGlyph name="Ycircumflex" xMin="22" yMin="0" xMax="1242" yMax="1990">
      <component glyphName="Y" x="0" y="0" flags="0x0"/>
      <component glyphName="circumflex.cap" x="244" y="0" flags="0x0"/>
    </TTGlyph>
    <TTGlyph name="Ydieresis" xMin="22" yMin="0" xMax="1242" yMax="1955">
      <component glyphName="Y" x="0" y="0" flags="0x0"/>
      <component glyphName="dieresis.cap" x="204" y="0" flags="0x0"/>
    </TTGlyph>
    <TTGlyph name="Ygrave" xMin="22" yMin="0" xMax="1242" yMax="1980">
      <component glyphName="Y" x="0" y="0" flags="0x0"/>
      <component glyphName="grave.cap" x="240" y="0" flags="0x0"/>
    </TTGlyph>
    <TTGlyph name="Z" xMin="89" yMin="0" xMax="1216" yMax="1522">
      <contour>
        <pt x="866" y="1273" on="1"/>
        <pt x="924" y="1344" on="1"/>
        <pt x="174" y="1344" on="1"/>
        <pt x="174" y="1522" on="1"/>
        <pt x="1170" y="1522" on="1"/>
        <pt x="1216" y="1441" on="1"/>
        <pt x="456" y="260" on="1"/>
        <pt x="382" y="175" on="1"/>
        <pt x="1157" y="175" on="1"/>
        <pt x="1157" y="0" on="1"/>
        <pt x="134" y="0" on="1"/>
        <pt x="89" y="84" on="1"/>
      </contour>
    </TTGlyph>
    <TTGlyph name="Zacute" xMin="89" yMin="0" xMax="1216" yMax="1980">
      <component glyphName="Z" x="0" y="0" flags="0x0"/>
      <component glyphName="acute.cap" x="493" y="0" flags="0x0"/>
    </TTGlyph>
    <TTGlyph name="Zcaron" xMin="89" yMin="0" xMax="1216" yMax="1990">
      <component glyphName="caron.cap" x="288" y="0" flags="0x0"/>
      <component glyphName="Z" x="0" y="0" flags="0x0"/>
    </TTGlyph>
    <TTGlyph name="Zdotaccent" xMin="89" yMin="0" xMax="1216" yMax="1956">
      <component glyphName="dotaccent.cap" x="479" y="0" flags="0x0"/>
      <component glyphName="Z" x="0" y="0" flags="0x0"/>
    </TTGlyph>
    <TTGlyph name="a" xMin="94" yMin="-16" xMax="970" yMax="1157">
      <contour>
        <pt x="696" y="1157" on="0"/>
        <pt x="872" y="1097" on="0"/>
        <pt x="970" y="938" on="0"/>
        <pt x="970" y="794" on="1"/>
        <pt x="970" y="-16" on="1"/>
        <pt x="880" y="-16" on="1"/>
        <pt x="835" y="-16" on="0"/>
        <pt x="789" y="-4" on="0"/>
        <pt x="763" y="40" on="0"/>
        <pt x="763" y="88" on="1"/>
        <pt x="763" y="96" on="1"/>
        <pt x="713" y="50" on="0"/>
        <pt x="538" y="-16" on="0"/>
        <pt x="443" y="-16" on="1"/>
        <pt x="342" y="-16" on="0"/>
        <pt x="183" y="62" on="0"/>
        <pt x="94" y="207" on="0"/>
        <pt x="94" y="305" on="1"/>
        <pt x="94" y="413" on="0"/>
        <pt x="211" y="571" on="0"/>
        <pt x="316" y="614" on="1"/>
        <pt x="409" y="651" on="0"/>
        <pt x="644" y="688" on="0"/>
        <pt x="750" y="688" on="1"/>
        <pt x="750" y="803" on="1"/>
        <pt x="750" y="883" on="0"/>
        <pt x="699" y="963" on="0"/>
        <pt x="597" y="991" on="0"/>
        <pt x="507" y="991" on="1"/>
        <pt x="459" y="991" on="0"/>
        <pt x="334" y="965" on="0"/>
        <pt x="225" y="926" on="0"/>
        <pt x="199" y="908" on="1"/>
        <pt x="145" y="1052" on="1"/>
        <pt x="171" y="1068" on="0"/>
        <pt x="308" y="1118" on="0"/>
        <pt x="483" y="1157" on="0"/>
        <pt x="564" y="1157" on="1"/>
      </contour>
      <contour>
        <pt x="555" y="148" on="0"/>
        <pt x="659" y="176" on="0"/>
        <pt x="738" y="215" on="0"/>
        <pt x="750" y="229" on="1"/>
        <pt x="750" y="548" on="1"/>
        <pt x="677" y="548" on="0"/>
        <pt x="494" y="520" on="0"/>
        <pt x="438" y="493" on="1"/>
        <pt x="377" y="464" on="0"/>
        <pt x="311" y="386" on="0"/>
        <pt x="311" y="324" on="1"/>
        <pt x="311" y="148" on="0"/>
        <pt x="508" y="148" on="1"/>
      </contour>
    </TTGlyph>
    <TTGlyph name="aacute" xMin="94" yMin="-16" xMax="970" yMax="1783">
      <component glyphName="a" x="0" y="0" flags="0x0"/>
      <component glyphName="acute" x="386" y="0" flags="0x0"/>
    </TTGlyph>
    <TTGlyph name="abreve" xMin="94" yMin="-16" xMax="970" yMax="1685">
      <component glyphName="a" x="0" y="0" flags="0x0"/>
      <component glyphName="breve" x="174" y="0" flags="0x0"/>
    </TTGlyph>
    <TTGlyph name="acircumflex" xMin="94" yMin="-16" xMax="970" yMax="1682">
      <component glyphName="a" x="0" y="0" flags="0x0"/>
      <component glyphName="circumflex" x="145" y="0" flags="0x0"/>
    </TTGlyph>
    <TTGlyph name="acute" xMin="50" yMin="1294" xMax="544" yMax="1783">
      <contour>
        <pt x="71" y="1407" on="1"/>
        <pt x="190" y="1538" on="0"/>
        <pt x="327" y="1697" on="0"/>
        <pt x="388" y="1783" on="1"/>
        <pt x="544" y="1648" on="1"/>
        <pt x="520" y="1608" on="0"/>
        <pt x="362" y="1447" on="0"/>
        <pt x="196" y="1307" on="0"/>
        <pt x="161" y="1294" on="1"/>
        <pt x="50" y="1384" on="1"/>
      </contour>
    </TTGlyph>
    <TTGlyph name="acute.cap" xMin="58" yMin="1573" xMax="547" yMax="1980">
      <contour>
        <pt x="114" y="1715" on="0"/>
        <pt x="398" y="1972" on="0"/>
        <pt x="401" y="1980" on="1"/>
        <pt x="547" y="1847" on="1"/>
        <pt x="473" y="1771" on="0"/>
        <pt x="233" y="1602" on="0"/>
        <pt x="151" y="1573" on="1"/>
        <pt x="58" y="1665" on="1"/>
      </contour>
    </TTGlyph>
    <TTGlyph name="adieresis" xMin="94" yMin="-16" xMax="970" yMax="1642">
      <component glyphName="a" x="0" y="0" flags="0x0"/>
      <component glyphName="dieresis" x="135" y="0" flags="0x0"/>
    </TTGlyph>
    <TTGlyph name="ae" xMin="94" yMin="-16" xMax="1683" yMax="1157">
      <contour>
        <pt x="1683" y="645" on="0"/>
        <pt x="1679" y="556" on="0"/>
        <pt x="1672" y="522" on="1"/>
        <pt x="970" y="522" on="1"/>
        <pt x="971" y="515" on="0"/>
        <pt x="971" y="502" on="1"/>
        <pt x="980" y="308" on="0"/>
        <pt x="1162" y="151" on="0"/>
        <pt x="1316" y="151" on="1"/>
        <pt x="1377" y="151" on="0"/>
        <pt x="1565" y="189" on="0"/>
        <pt x="1605" y="212" on="1"/>
        <pt x="1647" y="86" on="1"/>
        <pt x="1592" y="42" on="0"/>
        <pt x="1366" y="-16" on="0"/>
        <pt x="1259" y="-16" on="1"/>
        <pt x="992" y="-16" on="0"/>
        <pt x="862" y="162" on="1"/>
        <pt x="785" y="72" on="0"/>
        <pt x="574" y="-16" on="0"/>
        <pt x="449" y="-16" on="1"/>
        <pt x="348" y="-16" on="0"/>
        <pt x="186" y="62" on="0"/>
        <pt x="94" y="207" on="0"/>
        <pt x="94" y="305" on="1"/>
        <pt x="94" y="412" on="0"/>
        <pt x="214" y="570" on="0"/>
        <pt x="316" y="614" on="1"/>
        <pt x="492" y="688" on="0"/>
        <pt x="751" y="688" on="1"/>
        <pt x="751" y="803" on="1"/>
        <pt x="751" y="883" on="0"/>
        <pt x="703" y="963" on="0"/>
        <pt x="610" y="991" on="0"/>
        <pt x="527" y="991" on="1"/>
        <pt x="455" y="991" on="0"/>
        <pt x="251" y="934" on="0"/>
        <pt x="204" y="905" on="1"/>
        <pt x="150" y="1052" on="1"/>
        <pt x="177" y="1068" on="0"/>
        <pt x="321" y="1118" on="0"/>
        <pt x="501" y="1157" on="0"/>
        <pt x="581" y="1157" on="1"/>
        <pt x="708" y="1157" on="0"/>
        <pt x="868" y="1094" on="0"/>
        <pt x="908" y="1014" on="1"/>
        <pt x="974" y="1082" on="0"/>
        <pt x="1158" y="1156" on="0"/>
        <pt x="1273" y="1156" on="1"/>
        <pt x="1386" y="1156" on="0"/>
        <pt x="1569" y="1057" on="0"/>
        <pt x="1679" y="863" on="0"/>
        <pt x="1683" y="726" on="1"/>
      </contour>
      <contour>
        <pt x="1479" y="700" on="0"/>
        <pt x="1479" y="715" on="1"/>
        <pt x="1479" y="842" on="0"/>
        <pt x="1376" y="1000" on="0"/>
        <pt x="1251" y="1000" on="1"/>
        <pt x="1140" y="1000" on="0"/>
        <pt x="994" y="843" on="0"/>
        <pt x="976" y="668" on="1"/>
        <pt x="1477" y="668" on="1"/>
      </contour>
      <contour>
        <pt x="586" y="148" on="0"/>
        <pt x="760" y="223" on="0"/>
        <pt x="800" y="279" on="1"/>
        <pt x="757" y="396" on="0"/>
        <pt x="754" y="550" on="1"/>
        <pt x="753" y="548" on="1"/>
        <pt x="664" y="548" on="0"/>
        <pt x="496" y="521" on="0"/>
        <pt x="438" y="493" on="1"/>
        <pt x="378" y="464" on="0"/>
        <pt x="315" y="386" on="0"/>
        <pt x="315" y="324" on="1"/>
        <pt x="315" y="236" on="0"/>
        <pt x="406" y="148" on="0"/>
        <pt x="504" y="148" on="1"/>
      </contour>
    </TTGlyph>
    <TTGlyph name="aeacute" xMin="94" yMin="-16" xMax="1683" yMax="1783">
      <component glyphName="acute" x="724" y="0" flags="0x0"/>
      <component glyphName="ae" x="0" y="0" flags="0x0"/>
    </TTGlyph>
    <TTGlyph name="agrave" xMin="94" yMin="-16" xMax="970" yMax="1783">
      <component glyphName="a" x="0" y="0" flags="0x0"/>
      <component glyphName="grave" x="131" y="0" flags="0x0"/>
    </TTGlyph>
    <TTGlyph name="amacron" xMin="94" yMin="-16" xMax="970" yMax="1588">
      <component glyphName="a" x="0" y="0" flags="0x0"/>
      <component glyphName="macron" x="244" y="0" flags="0x0"/>
    </TTGlyph>
    <TTGlyph name="ampersand" xMin="147" yMin="-16" xMax="1429" yMax="1546">
      <contour>
        <pt x="1261" y="149" on="0"/>
        <pt x="1361" y="119" on="0"/>
        <pt x="1429" y="112" on="1"/>
        <pt x="1429" y="-1" on="1"/>
        <pt x="1378" y="-16" on="0"/>
        <pt x="1312" y="-16" on="1"/>
        <pt x="1238" y="-16" on="0"/>
        <pt x="1123" y="22" on="0"/>
        <pt x="1063" y="63" on="1"/>
        <pt x="996" y="28" on="0"/>
        <pt x="829" y="-16" on="0"/>
        <pt x="752" y="-16" on="1"/>
        <pt x="571" y="-16" on="0"/>
        <pt x="299" y="76" on="0"/>
        <pt x="147" y="261" on="0"/>
        <pt x="147" y="394" on="1"/>
        <pt x="147" y="526" on="0"/>
        <pt x="316" y="721" on="0"/>
        <pt x="458" y="787" on="1"/>
        <pt x="379" y="892" on="0"/>
        <pt x="289" y="1080" on="0"/>
        <pt x="289" y="1188" on="1"/>
        <pt x="289" y="1298" on="0"/>
        <pt x="391" y="1459" on="0"/>
        <pt x="578" y="1546" on="0"/>
        <pt x="703" y="1546" on="1"/>
        <pt x="816" y="1546" on="0"/>
        <pt x="986" y="1450" on="0"/>
        <pt x="1077" y="1292" on="0"/>
        <pt x="1077" y="1202" on="1"/>
        <pt x="1077" y="1081" on="0"/>
        <pt x="998" y="906" on="0"/>
        <pt x="851" y="781" on="0"/>
        <pt x="738" y="729" on="1"/>
        <pt x="804" y="637" on="0"/>
        <pt x="1011" y="373" on="0"/>
        <pt x="1081" y="295" on="1"/>
        <pt x="1163" y="380" on="0"/>
        <pt x="1163" y="523" on="1"/>
        <pt x="1163" y="613" on="0"/>
        <pt x="1130" y="728" on="1"/>
        <pt x="1322" y="728" on="1"/>
        <pt x="1351" y="627" on="0"/>
        <pt x="1351" y="522" on="1"/>
        <pt x="1351" y="303" on="0"/>
        <pt x="1213" y="180" on="1"/>
      </contour>
      <contour>
        <pt x="609" y="1390" on="0"/>
        <pt x="493" y="1294" on="0"/>
        <pt x="493" y="1193" on="1"/>
        <pt x="493" y="1132" on="0"/>
        <pt x="517" y="1046" on="0"/>
        <pt x="561" y="973" on="0"/>
        <pt x="608" y="909" on="1"/>
        <pt x="639" y="866" on="0"/>
        <pt x="645" y="858" on="1"/>
        <pt x="766" y="910" on="0"/>
        <pt x="890" y="1071" on="0"/>
        <pt x="890" y="1199" on="1"/>
        <pt x="890" y="1243" on="0"/>
        <pt x="846" y="1331" on="0"/>
        <pt x="759" y="1390" on="0"/>
        <pt x="699" y="1390" on="1"/>
      </contour>
      <contour>
        <pt x="792" y="143" on="0"/>
        <pt x="879" y="163" on="0"/>
        <pt x="926" y="183" on="1"/>
        <pt x="846" y="273" on="0"/>
        <pt x="640" y="542" on="0"/>
        <pt x="557" y="658" on="1"/>
        <pt x="462" y="608" on="0"/>
        <pt x="354" y="478" on="0"/>
        <pt x="354" y="400" on="1"/>
        <pt x="354" y="331" on="0"/>
        <pt x="431" y="215" on="0"/>
        <pt x="603" y="143" on="0"/>
        <pt x="739" y="143" on="1"/>
      </contour>
    </TTGlyph>
    <TTGlyph name="aogonek" xMin="94" yMin="-512" xMax="1042" yMax="1157">
      <contour>
        <pt x="967" y="-364" on="0"/>
        <pt x="1042" y="-335" on="1"/>
        <pt x="1042" y="-453" on="1"/>
        <pt x="1002" y="-483" on="0"/>
        <pt x="874" y="-512" on="0"/>
        <pt x="805" y="-512" on="1"/>
        <pt x="695" y="-512" on="0"/>
        <pt x="559" y="-400" on="0"/>
        <pt x="559" y="-298" on="1"/>
        <pt x="559" y="-242" on="0"/>
        <pt x="625" y="-128" on="0"/>
        <pt x="732" y="-33" on="0"/>
        <pt x="793" y="-1" on="1"/>
        <pt x="778" y="10" on="0"/>
        <pt x="763" y="52" on="0"/>
        <pt x="763" y="88" on="1"/>
        <pt x="763" y="96" on="1"/>
        <pt x="713" y="50" on="0"/>
        <pt x="538" y="-16" on="0"/>
        <pt x="443" y="-16" on="1"/>
        <pt x="342" y="-16" on="0"/>
        <pt x="183" y="62" on="0"/>
        <pt x="94" y="207" on="0"/>
        <pt x="94" y="305" on="1"/>
        <pt x="94" y="413" on="0"/>
        <pt x="211" y="571" on="0"/>
        <pt x="316" y="614" on="1"/>
        <pt x="409" y="651" on="0"/>
        <pt x="644" y="688" on="0"/>
        <pt x="750" y="688" on="1"/>
        <pt x="750" y="803" on="1"/>
        <pt x="750" y="883" on="0"/>
        <pt x="699" y="963" on="0"/>
        <pt x="597" y="991" on="0"/>
        <pt x="507" y="991" on="1"/>
        <pt x="459" y="991" on="0"/>
        <pt x="334" y="965" on="0"/>
        <pt x="225" y="926" on="0"/>
        <pt x="199" y="908" on="1"/>
        <pt x="145" y="1052" on="1"/>
        <pt x="171" y="1068" on="0"/>
        <pt x="308" y="1118" on="0"/>
        <pt x="483" y="1157" on="0"/>
        <pt x="564" y="1157" on="1"/>
        <pt x="696" y="1157" on="0"/>
        <pt x="872" y="1097" on="0"/>
        <pt x="970" y="938" on="0"/>
        <pt x="970" y="794" on="1"/>
        <pt x="970" y="-16" on="1"/>
        <pt x="955" y="-16" on="1"/>
        <pt x="873" y="-68" on="0"/>
        <pt x="775" y="-190" on="0"/>
        <pt x="775" y="-256" on="1"/>
        <pt x="775" y="-318" on="0"/>
        <pt x="842" y="-364" on="0"/>
        <pt x="903" y="-364" on="1"/>
      </contour>
      <contour>
        <pt x="555" y="148" on="0"/>
        <pt x="659" y="176" on="0"/>
        <pt x="738" y="215" on="0"/>
        <pt x="750" y="229" on="1"/>
        <pt x="750" y="548" on="1"/>
        <pt x="677" y="548" on="0"/>
        <pt x="494" y="520" on="0"/>
        <pt x="438" y="493" on="1"/>
        <pt x="377" y="464" on="0"/>
        <pt x="311" y="386" on="0"/>
        <pt x="311" y="324" on="1"/>
        <pt x="311" y="148" on="0"/>
        <pt x="508" y="148" on="1"/>
      </contour>
    </TTGlyph>
    <TTGlyph name="approxequal" xMin="215" yMin="255" xMax="1221" yMax="1070">
      <component glyphName="asciitilde" x="0" y="-359" flags="0x4"/>
      <component glyphName="asciitilde" x="-1" y="100" flags="0x4"/>
    </TTGlyph>
    <TTGlyph name="aring" xMin="94" yMin="-16" xMax="970" yMax="1873">
      <component glyphName="a" x="0" y="0" flags="0x0"/>
      <component glyphName="ring" x="201" y="0" flags="0x0"/>
    </TTGlyph>
    <TTGlyph name="asciicircum" xMin="185" yMin="490" xMax="1178" yMax="1531">
      <contour>
        <pt x="682" y="1288" on="1"/>
        <pt x="967" y="490" on="1"/>
        <pt x="1178" y="490" on="1"/>
        <pt x="784" y="1531" on="1"/>
        <pt x="579" y="1531" on="1"/>
        <pt x="185" y="490" on="1"/>
        <pt x="396" y="490" on="1"/>
      </contour>
    </TTGlyph>
    <TTGlyph name="asciitilde" xMin="216" yMin="614" xMax="1221" yMax="970">
      <contour>
        <pt x="234" y="804" on="0"/>
        <pt x="323" y="903" on="0"/>
        <pt x="455" y="970" on="0"/>
        <pt x="532" y="970" on="1"/>
        <pt x="580" y="970" on="0"/>
        <pt x="660" y="944" on="0"/>
        <pt x="719" y="906" on="0"/>
        <pt x="758" y="876" on="1"/>
        <pt x="805" y="838" on="0"/>
        <pt x="873" y="802" on="0"/>
        <pt x="916" y="802" on="1"/>
        <pt x="982" y="802" on="0"/>
        <pt x="1078" y="862" on="0"/>
        <pt x="1118" y="916" on="1"/>
        <pt x="1221" y="817" on="1"/>
        <pt x="1200" y="762" on="0"/>
        <pt x="1115" y="670" on="0"/>
        <pt x="985" y="614" on="0"/>
        <pt x="904" y="614" on="1"/>
        <pt x="856" y="614" on="0"/>
        <pt x="778" y="640" on="0"/>
        <pt x="723" y="677" on="0"/>
        <pt x="683" y="708" on="1"/>
        <pt x="636" y="746" on="0"/>
        <pt x="568" y="783" on="0"/>
        <pt x="524" y="783" on="1"/>
        <pt x="459" y="783" on="0"/>
        <pt x="372" y="724" on="0"/>
        <pt x="331" y="669" on="1"/>
        <pt x="216" y="758" on="1"/>
      </contour>
    </TTGlyph>
    <TTGlyph name="asterisk" xMin="117" yMin="647" xMax="1091" yMax="1660">
      <contour>
        <pt x="561" y="1080" on="1"/>
        <pt x="435" y="959" on="1"/>
        <pt x="217" y="813" on="1"/>
        <pt x="121" y="977" on="1"/>
        <pt x="352" y="1101" on="1"/>
        <pt x="517" y="1154" on="1"/>
        <pt x="490" y="1163" on="0"/>
        <pt x="380" y="1195" on="0"/>
        <pt x="351" y="1203" on="1"/>
        <pt x="117" y="1321" on="1"/>
        <pt x="210" y="1486" on="1"/>
        <pt x="430" y="1341" on="1"/>
        <pt x="559" y="1228" on="1"/>
        <pt x="554" y="1255" on="0"/>
        <pt x="527" y="1366" on="0"/>
        <pt x="520" y="1395" on="1"/>
        <pt x="501" y="1660" on="1"/>
        <pt x="693" y="1660" on="1"/>
        <pt x="680" y="1398" on="1"/>
        <pt x="646" y="1230" on="1"/>
        <pt x="666" y="1249" on="0"/>
        <pt x="749" y="1328" on="0"/>
        <pt x="771" y="1348" on="1"/>
        <pt x="991" y="1494" on="1"/>
        <pt x="1086" y="1331" on="1"/>
        <pt x="854" y="1210" on="1"/>
        <pt x="690" y="1155" on="1"/>
        <pt x="855" y="1106" on="1"/>
        <pt x="1091" y="991" on="1"/>
        <pt x="994" y="821" on="1"/>
        <pt x="777" y="965" on="1"/>
        <pt x="646" y="1078" on="1"/>
        <pt x="685" y="910" on="1"/>
        <pt x="706" y="648" on="1"/>
        <pt x="514" y="647" on="1"/>
        <pt x="526" y="910" on="1"/>
      </contour>
    </TTGlyph>
    <TTGlyph name="at" xMin="213" yMin="-478" xMax="2008" yMax="1543">
      <contour>
        <pt x="1286" y="208" on="0"/>
        <pt x="1286" y="225" on="1"/>
        <pt x="1286" y="262" on="0"/>
        <pt x="1292" y="313" on="1"/>
        <pt x="1217" y="170" on="0"/>
        <pt x="1027" y="-5" on="0"/>
        <pt x="919" y="-5" on="1"/>
        <pt x="849" y="-5" on="0"/>
        <pt x="720" y="90" on="0"/>
        <pt x="637" y="282" on="0"/>
        <pt x="637" y="418" on="1"/>
        <pt x="637" y="568" on="0"/>
        <pt x="758" y="866" on="0"/>
        <pt x="1010" y="1063" on="0"/>
        <pt x="1195" y="1063" on="1"/>
        <pt x="1264" y="1063" on="0"/>
        <pt x="1387" y="1036" on="0"/>
        <pt x="1427" y="1008" on="1"/>
        <pt x="1599" y="1039" on="1"/>
        <pt x="1568" y="922" on="0"/>
        <pt x="1494" y="573" on="0"/>
        <pt x="1473" y="437" on="1"/>
        <pt x="1453" y="302" on="0"/>
        <pt x="1453" y="244" on="1"/>
        <pt x="1453" y="154" on="0"/>
        <pt x="1490" y="154" on="1"/>
        <pt x="1565" y="154" on="0"/>
        <pt x="1725" y="330" on="0"/>
        <pt x="1831" y="626" on="0"/>
        <pt x="1831" y="796" on="1"/>
        <pt x="1831" y="1027" on="0"/>
        <pt x="1672" y="1293" on="0"/>
        <pt x="1401" y="1397" on="0"/>
        <pt x="1213" y="1397" on="1"/>
        <pt x="988" y="1397" on="0"/>
        <pt x="610" y="1154" on="0"/>
        <pt x="389" y="720" on="0"/>
        <pt x="389" y="445" on="1"/>
        <pt x="389" y="172" on="0"/>
        <pt x="582" y="-175" on="0"/>
        <pt x="899" y="-330" on="0"/>
        <pt x="1093" y="-330" on="1"/>
        <pt x="1227" y="-330" on="0"/>
        <pt x="1436" y="-279" on="0"/>
        <pt x="1503" y="-246" on="1"/>
        <pt x="1542" y="-375" on="1"/>
        <pt x="1475" y="-417" on="0"/>
        <pt x="1212" y="-478" on="0"/>
        <pt x="1073" y="-478" on="1"/>
        <pt x="826" y="-478" on="0"/>
        <pt x="437" y="-277" on="0"/>
        <pt x="213" y="128" on="0"/>
        <pt x="213" y="424" on="1"/>
        <pt x="213" y="755" on="0"/>
        <pt x="485" y="1264" on="0"/>
        <pt x="959" y="1543" on="0"/>
        <pt x="1252" y="1543" on="1"/>
        <pt x="1476" y="1543" on="0"/>
        <pt x="1818" y="1377" on="0"/>
        <pt x="2008" y="1056" on="0"/>
        <pt x="2008" y="832" on="1"/>
        <pt x="2008" y="578" on="0"/>
        <pt x="1846" y="198" on="0"/>
        <pt x="1584" y="-5" on="0"/>
        <pt x="1438" y="-5" on="1"/>
        <pt x="1367" y="-5" on="0"/>
        <pt x="1295" y="89" on="0"/>
        <pt x="1288" y="182" on="1"/>
      </contour>
      <contour>
        <pt x="1030" y="172" on="0"/>
        <pt x="1200" y="404" on="0"/>
        <pt x="1336" y="724" on="0"/>
        <pt x="1352" y="839" on="1"/>
        <pt x="1329" y="877" on="0"/>
        <pt x="1227" y="914" on="0"/>
        <pt x="1175" y="914" on="1"/>
        <pt x="1070" y="914" on="0"/>
        <pt x="913" y="784" on="0"/>
        <pt x="828" y="582" on="0"/>
        <pt x="825" y="475" on="1"/>
        <pt x="821" y="335" on="0"/>
        <pt x="888" y="172" on="0"/>
        <pt x="965" y="172" on="1"/>
      </contour>
    </TTGlyph>
    <TTGlyph name="atilde" xMin="94" yMin="-16" xMax="981" yMax="1648">
      <component glyphName="a" x="0" y="0" flags="0x0"/>
      <component glyphName="tilde" x="100" y="0" flags="0x0"/>
    </TTGlyph>
    <TTGlyph name="b" xMin="166" yMin="-18" xMax="1141" yMax="1661">
      <contour>
        <pt x="815" y="1156" on="0"/>
        <pt x="1019" y="1035" on="0"/>
        <pt x="1141" y="790" on="0"/>
        <pt x="1141" y="612" on="1"/>
        <pt x="1141" y="429" on="0"/>
        <pt x="998" y="142" on="0"/>
        <pt x="736" y="-18" on="0"/>
        <pt x="566" y="-18" on="1"/>
        <pt x="492" y="-18" on="0"/>
        <pt x="323" y="10" on="0"/>
        <pt x="189" y="49" on="0"/>
        <pt x="166" y="64" on="1"/>
        <pt x="166" y="1661" on="1"/>
        <pt x="386" y="1661" on="1"/>
        <pt x="386" y="1189" on="1"/>
        <pt x="378" y="1030" on="1"/>
        <pt x="431" y="1084" on="0"/>
        <pt x="578" y="1156" on="0"/>
        <pt x="691" y="1156" on="1"/>
      </contour>
      <contour>
        <pt x="917" y="790" on="0"/>
        <pt x="770" y="983" on="0"/>
        <pt x="630" y="983" on="1"/>
        <pt x="557" y="983" on="0"/>
        <pt x="434" y="928" on="0"/>
        <pt x="386" y="890" on="1"/>
        <pt x="386" y="184" on="1"/>
        <pt x="443" y="144" on="0"/>
        <pt x="591" y="144" on="1"/>
        <pt x="685" y="144" on="0"/>
        <pt x="833" y="248" on="0"/>
        <pt x="917" y="450" on="0"/>
        <pt x="917" y="593" on="1"/>
      </contour>
    </TTGlyph>
    <TTGlyph name="backslash" xMin="42" yMin="-363" xMax="810" yMax="1599">
      <contour>
        <pt x="810" y="-363" on="1"/>
        <pt x="612" y="-363" on="1"/>
        <pt x="42" y="1599" on="1"/>
        <pt x="240" y="1599" on="1"/>
      </contour>
    </TTGlyph>
    <TTGlyph name="bar" xMin="326" yMin="-188" xMax="529" yMax="1780">
      <contour>
        <pt x="529" y="1780" on="1"/>
        <pt x="529" y="-188" on="1"/>
        <pt x="326" y="-188" on="1"/>
        <pt x="326" y="1780" on="1"/>
      </contour>
    </TTGlyph>
    <TTGlyph name="braceleft" xMin="75" yMin="-196" xMax="802" yMax="1742">
      <contour>
        <pt x="536" y="923" on="0"/>
        <pt x="492" y="882" on="1"/>
        <pt x="462" y="853" on="0"/>
        <pt x="367" y="806" on="0"/>
        <pt x="295" y="777" on="1"/>
        <pt x="437" y="722" on="0"/>
        <pt x="496" y="660" on="1"/>
        <pt x="536" y="617" on="0"/>
        <pt x="536" y="572" on="1"/>
        <pt x="536" y="-49" on="1"/>
        <pt x="802" y="-49" on="1"/>
        <pt x="802" y="-161" on="1"/>
        <pt x="737" y="-179" on="0"/>
        <pt x="606" y="-196" on="0"/>
        <pt x="525" y="-196" on="1"/>
        <pt x="447" y="-196" on="0"/>
        <pt x="362" y="-150" on="0"/>
        <pt x="327" y="-41" on="0"/>
        <pt x="327" y="60" on="1"/>
        <pt x="327" y="571" on="1"/>
        <pt x="327" y="599" on="0"/>
        <pt x="245" y="658" on="0"/>
        <pt x="126" y="701" on="0"/>
        <pt x="75" y="706" on="1"/>
        <pt x="75" y="848" on="1"/>
        <pt x="127" y="853" on="0"/>
        <pt x="246" y="892" on="0"/>
        <pt x="327" y="947" on="0"/>
        <pt x="327" y="975" on="1"/>
        <pt x="327" y="1486" on="1"/>
        <pt x="327" y="1587" on="0"/>
        <pt x="362" y="1696" on="0"/>
        <pt x="447" y="1742" on="0"/>
        <pt x="525" y="1742" on="1"/>
        <pt x="588" y="1742" on="0"/>
        <pt x="694" y="1732" on="0"/>
        <pt x="768" y="1722" on="1"/>
        <pt x="802" y="1718" on="1"/>
        <pt x="802" y="1596" on="1"/>
        <pt x="536" y="1596" on="1"/>
        <pt x="536" y="976" on="1"/>
      </contour>
    </TTGlyph>
    <TTGlyph name="braceright" xMin="170" yMin="-196" xMax="897" yMax="1742">
      <contour>
        <pt x="645" y="947" on="0"/>
        <pt x="726" y="892" on="0"/>
        <pt x="845" y="853" on="0"/>
        <pt x="897" y="848" on="1"/>
        <pt x="897" y="706" on="1"/>
        <pt x="846" y="701" on="0"/>
        <pt x="727" y="658" on="0"/>
        <pt x="645" y="599" on="0"/>
        <pt x="645" y="571" on="1"/>
        <pt x="645" y="60" on="1"/>
        <pt x="645" y="-41" on="0"/>
        <pt x="610" y="-150" on="0"/>
        <pt x="525" y="-196" on="0"/>
        <pt x="447" y="-196" on="1"/>
        <pt x="366" y="-196" on="0"/>
        <pt x="235" y="-179" on="0"/>
        <pt x="170" y="-161" on="1"/>
        <pt x="170" y="-49" on="1"/>
        <pt x="436" y="-49" on="1"/>
        <pt x="436" y="572" on="1"/>
        <pt x="436" y="617" on="0"/>
        <pt x="476" y="660" on="1"/>
        <pt x="535" y="722" on="0"/>
        <pt x="677" y="777" on="1"/>
        <pt x="605" y="806" on="0"/>
        <pt x="510" y="853" on="0"/>
        <pt x="480" y="882" on="1"/>
        <pt x="436" y="923" on="0"/>
        <pt x="436" y="976" on="1"/>
        <pt x="436" y="1596" on="1"/>
        <pt x="170" y="1596" on="1"/>
        <pt x="170" y="1718" on="1"/>
        <pt x="204" y="1722" on="1"/>
        <pt x="278" y="1732" on="0"/>
        <pt x="384" y="1742" on="0"/>
        <pt x="447" y="1742" on="1"/>
        <pt x="525" y="1742" on="0"/>
        <pt x="610" y="1696" on="0"/>
        <pt x="645" y="1587" on="0"/>
        <pt x="645" y="1486" on="1"/>
        <pt x="645" y="975" on="1"/>
      </contour>
    </TTGlyph>
    <TTGlyph name="bracketleft" xMin="185" yMin="-191" xMax="665" yMax="1737">
      <contour>
        <pt x="185" y="1588" on="0"/>
        <pt x="216" y="1693" on="0"/>
        <pt x="296" y="1737" on="0"/>
        <pt x="375" y="1737" on="1"/>
        <pt x="439" y="1737" on="0"/>
        <pt x="537" y="1729" on="0"/>
        <pt x="603" y="1720" on="1"/>
        <pt x="665" y="1713" on="1"/>
        <pt x="665" y="1593" on="1"/>
        <pt x="397" y="1593" on="1"/>
        <pt x="397" y="-49" on="1"/>
        <pt x="665" y="-51" on="1"/>
        <pt x="665" y="-167" on="1"/>
        <pt x="574" y="-180" on="0"/>
        <pt x="458" y="-191" on="0"/>
        <pt x="375" y="-191" on="1"/>
        <pt x="296" y="-191" on="0"/>
        <pt x="216" y="-147" on="0"/>
        <pt x="185" y="-42" on="0"/>
        <pt x="185" y="60" on="1"/>
        <pt x="185" y="1486" on="1"/>
      </contour>
    </TTGlyph>
    <TTGlyph name="bracketright" xMin="172" yMin="-191" xMax="652" yMax="1737">
      <contour>
        <pt x="652" y="60" on="1"/>
        <pt x="652" y="-42" on="0"/>
        <pt x="621" y="-147" on="0"/>
        <pt x="541" y="-191" on="0"/>
        <pt x="462" y="-191" on="1"/>
        <pt x="379" y="-191" on="0"/>
        <pt x="263" y="-180" on="0"/>
        <pt x="172" y="-167" on="1"/>
        <pt x="172" y="-51" on="1"/>
        <pt x="440" y="-49" on="1"/>
        <pt x="440" y="1593" on="1"/>
        <pt x="172" y="1593" on="1"/>
        <pt x="172" y="1713" on="1"/>
        <pt x="234" y="1720" on="1"/>
        <pt x="300" y="1729" on="0"/>
        <pt x="398" y="1737" on="0"/>
        <pt x="462" y="1737" on="1"/>
        <pt x="541" y="1737" on="0"/>
        <pt x="621" y="1693" on="0"/>
        <pt x="652" y="1588" on="0"/>
        <pt x="652" y="1486" on="1"/>
      </contour>
    </TTGlyph>
    <TTGlyph name="breve" xMin="48" yMin="1308" xMax="736" yMax="1685">
      <contour>
        <pt x="203" y="1685" on="1"/>
        <pt x="204" y="1645" on="0"/>
        <pt x="223" y="1562" on="0"/>
        <pt x="307" y="1480" on="0"/>
        <pt x="393" y="1480" on="1"/>
        <pt x="513" y="1480" on="0"/>
        <pt x="582" y="1617" on="0"/>
        <pt x="585" y="1685" on="1"/>
        <pt x="735" y="1685" on="1"/>
        <pt x="736" y="1675" on="0"/>
        <pt x="736" y="1654" on="1"/>
        <pt x="736" y="1564" on="0"/>
        <pt x="648" y="1405" on="0"/>
        <pt x="491" y="1308" on="0"/>
        <pt x="392" y="1308" on="1"/>
        <pt x="288" y="1308" on="0"/>
        <pt x="132" y="1404" on="0"/>
        <pt x="48" y="1563" on="0"/>
        <pt x="48" y="1654" on="1"/>
        <pt x="48" y="1675" on="0"/>
        <pt x="49" y="1685" on="1"/>
      </contour>
    </TTGlyph>
    <TTGlyph name="breve.cap" xMin="48" yMin="1632" xMax="734" yMax="1970">
      <contour>
        <pt x="202" y="1970" on="1"/>
        <pt x="203" y="1937" on="0"/>
        <pt x="222" y="1870" on="0"/>
        <pt x="306" y="1805" on="0"/>
        <pt x="391" y="1805" on="1"/>
        <pt x="512" y="1805" on="0"/>
        <pt x="582" y="1915" on="0"/>
        <pt x="584" y="1970" on="1"/>
        <pt x="733" y="1970" on="1"/>
        <pt x="734" y="1960" on="0"/>
        <pt x="734" y="1940" on="1"/>
        <pt x="734" y="1856" on="0"/>
        <pt x="648" y="1715" on="0"/>
        <pt x="492" y="1632" on="0"/>
        <pt x="391" y="1632" on="1"/>
        <pt x="285" y="1632" on="0"/>
        <pt x="130" y="1714" on="0"/>
        <pt x="48" y="1855" on="0"/>
        <pt x="48" y="1940" on="1"/>
        <pt x="48" y="1960" on="0"/>
        <pt x="49" y="1970" on="1"/>
      </contour>
    </TTGlyph>
    <TTGlyph name="brokenbar" xMin="326" yMin="-186" xMax="529" yMax="1780">
      <contour>
        <pt x="529" y="1780" on="1"/>
        <pt x="529" y="950" on="1"/>
        <pt x="326" y="950" on="1"/>
        <pt x="326" y="1780" on="1"/>
      </contour>
      <contour>
        <pt x="529" y="641" on="1"/>
        <pt x="529" y="-186" on="1"/>
        <pt x="326" y="-186" on="1"/>
        <pt x="326" y="641" on="1"/>
      </contour>
    </TTGlyph>
    <TTGlyph name="bullet" xMin="207" yMin="499" xMax="648" yMax="952">
      <contour>
        <pt x="207" y="777" on="0"/>
        <pt x="270" y="887" on="0"/>
        <pt x="377" y="952" on="0"/>
        <pt x="438" y="952" on="1"/>
        <pt x="495" y="952" on="0"/>
        <pt x="592" y="896" on="0"/>
        <pt x="648" y="800" on="0"/>
        <pt x="648" y="741" on="1"/>
        <pt x="648" y="676" on="0"/>
        <pt x="585" y="565" on="0"/>
        <pt x="479" y="499" on="0"/>
        <pt x="418" y="499" on="1"/>
        <pt x="361" y="499" on="0"/>
        <pt x="264" y="557" on="0"/>
        <pt x="207" y="655" on="0"/>
        <pt x="207" y="712" on="1"/>
      </contour>
    </TTGlyph>
    <TTGlyph name="c" xMin="97" yMin="-16" xMax="948" yMax="1156">
      <contour>
        <pt x="745" y="1156" on="0"/>
        <pt x="895" y="1119" on="0"/>
        <pt x="928" y="1097" on="1"/>
        <pt x="893" y="923" on="1"/>
        <pt x="847" y="955" on="0"/>
        <pt x="723" y="986" on="0"/>
        <pt x="637" y="986" on="1"/>
        <pt x="551" y="986" on="0"/>
        <pt x="402" y="898" on="0"/>
        <pt x="310" y="711" on="0"/>
        <pt x="310" y="569" on="1"/>
        <pt x="310" y="437" on="0"/>
        <pt x="394" y="248" on="0"/>
        <pt x="540" y="150" on="0"/>
        <pt x="631" y="150" on="1"/>
        <pt x="710" y="150" on="0"/>
        <pt x="860" y="191" on="0"/>
        <pt x="903" y="217" on="1"/>
        <pt x="948" y="92" on="1"/>
        <pt x="895" y="43" on="0"/>
        <pt x="705" y="-16" on="0"/>
        <pt x="598" y="-16" on="1"/>
        <pt x="442" y="-16" on="0"/>
        <pt x="215" y="133" on="0"/>
        <pt x="97" y="393" on="0"/>
        <pt x="97" y="558" on="1"/>
        <pt x="97" y="729" on="0"/>
        <pt x="222" y="1000" on="0"/>
        <pt x="470" y="1156" on="0"/>
        <pt x="648" y="1156" on="1"/>
      </contour>
    </TTGlyph>
    <TTGlyph name="cacute" xMin="97" yMin="-16" xMax="976" yMax="1783">
      <component glyphName="acute" x="432" y="0" flags="0x0"/>
      <component glyphName="c" x="0" y="0" flags="0x0"/>
    </TTGlyph>
    <TTGlyph name="caron" xMin="47" yMin="1293" xMax="789" yMax="1682">
      <contour>
        <pt x="422" y="1459" on="1"/>
        <pt x="654" y="1681" on="1"/>
        <pt x="789" y="1625" on="1"/>
        <pt x="521" y="1293" on="1"/>
        <pt x="323" y="1293" on="1"/>
        <pt x="47" y="1626" on="1"/>
        <pt x="173" y="1682" on="1"/>
      </contour>
    </TTGlyph>
    <TTGlyph name="caron.cap" xMin="48" yMin="1670" xMax="733" yMax="1990">
      <contour>
        <pt x="176" y="1990" on="1"/>
        <pt x="392" y="1816" on="1"/>
        <pt x="613" y="1990" on="1"/>
        <pt x="733" y="1933" on="1"/>
        <pt x="491" y="1670" on="1"/>
        <pt x="294" y="1670" on="1"/>
        <pt x="48" y="1930" on="1"/>
      </contour>
    </TTGlyph>
    <TTGlyph name="caronvertical" xMin="50" yMin="1034" xMax="302" yMax="1687">
      <contour>
        <pt x="57" y="1096" on="1"/>
        <pt x="69" y="1137" on="1"/>
        <pt x="87" y="1194" on="0"/>
        <pt x="105" y="1295" on="0"/>
        <pt x="105" y="1383" on="1"/>
        <pt x="105" y="1439" on="0"/>
        <pt x="70" y="1560" on="0"/>
        <pt x="50" y="1585" on="1"/>
        <pt x="64" y="1632" on="1"/>
        <pt x="240" y="1687" on="1"/>
        <pt x="271" y="1659" on="0"/>
        <pt x="302" y="1530" on="0"/>
        <pt x="302" y="1446" on="1"/>
        <pt x="302" y="1321" on="0"/>
        <pt x="228" y="1097" on="0"/>
        <pt x="175" y="1034" on="1"/>
        <pt x="65" y="1068" on="1"/>
      </contour>
    </TTGlyph>
    <TTGlyph name="ccaron" xMin="97" yMin="-16" xMax="982" yMax="1710">
      <component glyphName="caron" x="193" y="28" flags="0x4"/>
      <component glyphName="c" x="0" y="0" flags="0x0"/>
    </TTGlyph>
    <TTGlyph name="ccedilla" xMin="97" yMin="-464" xMax="948" yMax="1156">
      <contour>
        <pt x="902" y="49" on="0"/>
        <pt x="741" y="-8" on="0"/>
        <pt x="647" y="-14" on="1"/>
        <pt x="677" y="-79" on="0"/>
        <pt x="677" y="-180" on="1"/>
        <pt x="677" y="-195" on="0"/>
        <pt x="675" y="-229" on="1"/>
        <pt x="665" y="-348" on="0"/>
        <pt x="530" y="-464" on="0"/>
        <pt x="435" y="-464" on="1"/>
        <pt x="393" y="-464" on="0"/>
        <pt x="305" y="-448" on="0"/>
        <pt x="288" y="-436" on="1"/>
        <pt x="303" y="-294" on="1"/>
        <pt x="325" y="-308" on="0"/>
        <pt x="385" y="-308" on="1"/>
        <pt x="438" y="-308" on="0"/>
        <pt x="507" y="-235" on="0"/>
        <pt x="512" y="-158" on="1"/>
        <pt x="517" y="-115" on="0"/>
        <pt x="517" y="-88" on="1"/>
        <pt x="517" y="-44" on="0"/>
        <pt x="507" y="-9" on="1"/>
        <pt x="378" y="12" on="0"/>
        <pt x="193" y="168" on="0"/>
        <pt x="97" y="410" on="0"/>
        <pt x="97" y="558" on="1"/>
        <pt x="97" y="729" on="0"/>
        <pt x="222" y="1000" on="0"/>
        <pt x="470" y="1156" on="0"/>
        <pt x="648" y="1156" on="1"/>
        <pt x="745" y="1156" on="0"/>
        <pt x="895" y="1119" on="0"/>
        <pt x="928" y="1097" on="1"/>
        <pt x="893" y="923" on="1"/>
        <pt x="847" y="955" on="0"/>
        <pt x="723" y="986" on="0"/>
        <pt x="637" y="986" on="1"/>
        <pt x="551" y="986" on="0"/>
        <pt x="402" y="898" on="0"/>
        <pt x="310" y="711" on="0"/>
        <pt x="310" y="569" on="1"/>
        <pt x="310" y="437" on="0"/>
        <pt x="394" y="248" on="0"/>
        <pt x="540" y="150" on="0"/>
        <pt x="631" y="150" on="1"/>
        <pt x="710" y="150" on="0"/>
        <pt x="860" y="191" on="0"/>
        <pt x="903" y="217" on="1"/>
        <pt x="948" y="92" on="1"/>
      </contour>
    </TTGlyph>
    <TTGlyph name="ccircumflex" xMin="97" yMin="-16" xMax="980" yMax="1682">
      <component glyphName="circumflex" x="191" y="0" flags="0x0"/>
      <component glyphName="c" x="0" y="0" flags="0x0"/>
    </TTGlyph>
    <TTGlyph name="cdotaccent" xMin="97" yMin="-16" xMax="948" yMax="1638">
      <component glyphName="c" x="0" y="0" flags="0x0"/>
      <component glyphName="dotaccent" x="410" y="0" flags="0x0"/>
    </TTGlyph>
    <TTGlyph name="cedilla" xMin="47" yMin="-464" xMax="436" yMax="34">
      <contour>
        <pt x="84" y="-308" on="0"/>
        <pt x="144" y="-308" on="1"/>
        <pt x="197" y="-308" on="0"/>
        <pt x="266" y="-235" on="0"/>
        <pt x="271" y="-158" on="1"/>
        <pt x="276" y="-126" on="0"/>
        <pt x="276" y="-89" on="1"/>
        <pt x="276" y="-20" on="0"/>
        <pt x="251" y="30" on="1"/>
        <pt x="334" y="34" on="1"/>
        <pt x="377" y="30" on="1"/>
        <pt x="406" y="-1" on="0"/>
        <pt x="436" y="-110" on="0"/>
        <pt x="436" y="-179" on="1"/>
        <pt x="436" y="-195" on="0"/>
        <pt x="434" y="-229" on="1"/>
        <pt x="424" y="-348" on="0"/>
        <pt x="289" y="-464" on="0"/>
        <pt x="194" y="-464" on="1"/>
        <pt x="152" y="-464" on="0"/>
        <pt x="64" y="-448" on="0"/>
        <pt x="47" y="-436" on="1"/>
        <pt x="62" y="-294" on="1"/>
      </contour>
    </TTGlyph>
    <TTGlyph name="cent" xMin="157" yMin="-216" xMax="1008" yMax="1377">
      <contour>
        <pt x="965" y="52" on="0"/>
        <pt x="820" y="-3" on="0"/>
        <pt x="734" y="-12" on="1"/>
        <pt x="731" y="-216" on="1"/>
        <pt x="581" y="-216" on="1"/>
        <pt x="585" y="-11" on="1"/>
        <pt x="451" y="6" on="0"/>
        <pt x="257" y="161" on="0"/>
        <pt x="157" y="407" on="0"/>
        <pt x="157" y="558" on="1"/>
        <pt x="157" y="714" on="0"/>
        <pt x="261" y="968" on="0"/>
        <pt x="468" y="1131" on="0"/>
        <pt x="617" y="1150" on="1"/>
        <pt x="623" y="1377" on="1"/>
        <pt x="772" y="1377" on="1"/>
        <pt x="767" y="1154" on="1"/>
        <pt x="844" y="1148" on="0"/>
        <pt x="961" y="1115" on="0"/>
        <pt x="988" y="1097" on="1"/>
        <pt x="953" y="923" on="1"/>
        <pt x="907" y="955" on="0"/>
        <pt x="783" y="986" on="0"/>
        <pt x="697" y="986" on="1"/>
        <pt x="611" y="986" on="0"/>
        <pt x="462" y="898" on="0"/>
        <pt x="370" y="711" on="0"/>
        <pt x="370" y="569" on="1"/>
        <pt x="370" y="437" on="0"/>
        <pt x="454" y="248" on="0"/>
        <pt x="600" y="150" on="0"/>
        <pt x="691" y="150" on="1"/>
        <pt x="770" y="150" on="0"/>
        <pt x="920" y="191" on="0"/>
        <pt x="963" y="217" on="1"/>
        <pt x="1008" y="92" on="1"/>
      </contour>
    </TTGlyph>
    <TTGlyph name="circumflex" xMin="47" yMin="1293" xMax="789" yMax="1682">
      <contour>
        <pt x="323" y="1682" on="1"/>
        <pt x="521" y="1682" on="1"/>
        <pt x="789" y="1350" on="1"/>
        <pt x="654" y="1294" on="1"/>
        <pt x="422" y="1516" on="1"/>
        <pt x="173" y="1293" on="1"/>
        <pt x="47" y="1349" on="1"/>
      </contour>
    </TTGlyph>
    <TTGlyph name="circumflex.cap" xMin="48" yMin="1632" xMax="766" yMax="1990">
      <contour>
        <pt x="307" y="1990" on="1"/>
        <pt x="504" y="1990" on="1"/>
        <pt x="766" y="1692" on="1"/>
        <pt x="622" y="1632" on="1"/>
        <pt x="406" y="1834" on="1"/>
        <pt x="185" y="1632" on="1"/>
        <pt x="48" y="1689" on="1"/>
      </contour>
    </TTGlyph>
    <TTGlyph name="colon" xMin="147" yMin="-22" xMax="455" yMax="1100">
      <component glyphName="period" x="0" y="0" flags="0x0"/>
      <component glyphName="period" x="0" y="796" flags="0x4"/>
    </TTGlyph>
    <TTGlyph name="colonmonetary" xMin="95" yMin="-354" xMax="1205" yMax="1815">
      <contour>
        <pt x="641" y="1815" on="1"/>
        <pt x="758" y="1815" on="1"/>
        <pt x="739" y="1535" on="1"/>
        <pt x="774" y="1538" on="0"/>
        <pt x="807" y="1538" on="1"/>
        <pt x="854" y="1538" on="0"/>
        <pt x="876" y="1537" on="1"/>
        <pt x="895" y="1815" on="1"/>
        <pt x="1012" y="1815" on="1"/>
        <pt x="993" y="1527" on="1"/>
        <pt x="1078" y="1516" on="0"/>
        <pt x="1173" y="1489" on="1"/>
        <pt x="1205" y="1481" on="1"/>
        <pt x="1172" y="1275" on="1"/>
        <pt x="1133" y="1296" on="0"/>
        <pt x="1054" y="1327" on="0"/>
        <pt x="980" y="1338" on="1"/>
        <pt x="903" y="172" on="1"/>
        <pt x="997" y="181" on="0"/>
        <pt x="1161" y="231" on="0"/>
        <pt x="1194" y="261" on="1"/>
        <pt x="1195" y="64" on="1"/>
        <pt x="1118" y="33" on="0"/>
        <pt x="983" y="-6" on="0"/>
        <pt x="890" y="-13" on="1"/>
        <pt x="868" y="-354" on="1"/>
        <pt x="751" y="-354" on="1"/>
        <pt x="773" y="-15" on="1"/>
        <pt x="710" y="-12" on="0"/>
        <pt x="637" y="1" on="1"/>
        <pt x="614" y="-354" on="1"/>
        <pt x="497" y="-354" on="1"/>
        <pt x="523" y="36" on="1"/>
        <pt x="389" y="89" on="0"/>
        <pt x="197" y="293" on="0"/>
        <pt x="95" y="579" on="0"/>
        <pt x="95" y="753" on="1"/>
        <pt x="95" y="957" on="0"/>
        <pt x="232" y="1273" on="0"/>
        <pt x="470" y="1475" on="0"/>
        <pt x="621" y="1514" on="1"/>
      </contour>
      <contour>
        <pt x="864" y="1348" on="1"/>
        <pt x="851" y="1349" on="0"/>
        <pt x="824" y="1349" on="1"/>
        <pt x="776" y="1349" on="0"/>
        <pt x="726" y="1341" on="1"/>
        <pt x="650" y="197" on="1"/>
        <pt x="716" y="173" on="0"/>
        <pt x="785" y="169" on="1"/>
      </contour>
      <contour>
        <pt x="607" y="1304" on="1"/>
        <pt x="473" y="1241" on="0"/>
        <pt x="327" y="964" on="0"/>
        <pt x="327" y="769" on="1"/>
        <pt x="327" y="600" on="0"/>
        <pt x="436" y="335" on="0"/>
        <pt x="537" y="259" on="1"/>
      </contour>
    </TTGlyph>
    <TTGlyph name="comma" xMin="151" yMin="-500" xMax="490" yMax="271">
      <contour>
        <pt x="207" y="-354" on="0"/>
        <pt x="282" y="-209" on="0"/>
        <pt x="282" y="-124" on="1"/>
        <pt x="282" y="-82" on="0"/>
        <pt x="247" y="10" on="0"/>
        <pt x="190" y="74" on="0"/>
        <pt x="160" y="77" on="1"/>
        <pt x="160" y="140" on="1"/>
        <pt x="299" y="271" on="1"/>
        <pt x="365" y="247" on="0"/>
        <pt x="451" y="140" on="0"/>
        <pt x="490" y="9" on="0"/>
        <pt x="490" y="-54" on="1"/>
        <pt x="490" y="-160" on="0"/>
        <pt x="418" y="-344" on="0"/>
        <pt x="297" y="-473" on="0"/>
        <pt x="225" y="-500" on="1"/>
        <pt x="151" y="-408" on="1"/>
        <pt x="151" y="-382" on="1"/>
      </contour>
    </TTGlyph>
    <TTGlyph name="copyright" xMin="194" yMin="82" xMax="1935" yMax="1840">
      <contour>
        <pt x="1303" y="1840" on="0"/>
        <pt x="1703" y="1605" on="0"/>
        <pt x="1935" y="1202" on="0"/>
        <pt x="1935" y="963" on="1"/>
        <pt x="1935" y="723" on="0"/>
        <pt x="1702" y="319" on="0"/>
        <pt x="1303" y="82" on="0"/>
        <pt x="1064" y="82" on="1"/>
        <pt x="825" y="82" on="0"/>
        <pt x="426" y="319" on="0"/>
        <pt x="194" y="723" on="0"/>
        <pt x="194" y="963" on="1"/>
        <pt x="194" y="1202" on="0"/>
        <pt x="426" y="1605" on="0"/>
        <pt x="825" y="1840" on="0"/>
        <pt x="1064" y="1840" on="1"/>
      </contour>
      <contour>
        <pt x="1269" y="211" on="0"/>
        <pt x="1602" y="413" on="0"/>
        <pt x="1792" y="758" on="0"/>
        <pt x="1792" y="963" on="1"/>
        <pt x="1792" y="1168" on="0"/>
        <pt x="1602" y="1512" on="0"/>
        <pt x="1269" y="1714" on="0"/>
        <pt x="1064" y="1714" on="1"/>
        <pt x="859" y="1714" on="0"/>
        <pt x="526" y="1512" on="0"/>
        <pt x="336" y="1168" on="0"/>
        <pt x="336" y="963" on="1"/>
        <pt x="336" y="758" on="0"/>
        <pt x="526" y="413" on="0"/>
        <pt x="859" y="211" on="0"/>
        <pt x="1064" y="211" on="1"/>
      </contour>
      <contour>
        <pt x="1257" y="1450" on="0"/>
        <pt x="1355" y="1394" on="1"/>
        <pt x="1323" y="1230" on="1"/>
        <pt x="1227" y="1293" on="0"/>
        <pt x="1098" y="1293" on="1"/>
        <pt x="1009" y="1293" on="0"/>
        <pt x="881" y="1209" on="0"/>
        <pt x="815" y="1062" on="0"/>
        <pt x="815" y="971" on="1"/>
        <pt x="815" y="865" on="0"/>
        <pt x="884" y="714" on="0"/>
        <pt x="1007" y="636" on="0"/>
        <pt x="1088" y="636" on="1"/>
        <pt x="1160" y="636" on="0"/>
        <pt x="1291" y="672" on="0"/>
        <pt x="1335" y="697" on="1"/>
        <pt x="1380" y="573" on="1"/>
        <pt x="1330" y="531" on="0"/>
        <pt x="1158" y="479" on="0"/>
        <pt x="1061" y="479" on="1"/>
        <pt x="927" y="479" on="0"/>
        <pt x="727" y="611" on="0"/>
        <pt x="621" y="830" on="0"/>
        <pt x="621" y="956" on="1"/>
        <pt x="621" y="1098" on="0"/>
        <pt x="736" y="1322" on="0"/>
        <pt x="960" y="1450" on="0"/>
        <pt x="1117" y="1450" on="1"/>
      </contour>
    </TTGlyph>
    <TTGlyph name="currency" xMin="199" yMin="181" xMax="1335" yMax="1365">
      <contour>
        <pt x="1207" y="632" on="0"/>
        <pt x="1126" y="518" on="1"/>
        <pt x="1331" y="312" on="1"/>
        <pt x="1204" y="185" on="1"/>
        <pt x="995" y="395" on="1"/>
        <pt x="890" y="331" on="0"/>
        <pt x="764" y="331" on="1"/>
        <pt x="644" y="331" on="0"/>
        <pt x="537" y="393" on="1"/>
        <pt x="326" y="181" on="1"/>
        <pt x="199" y="308" on="1"/>
        <pt x="405" y="515" on="1"/>
        <pt x="365" y="570" on="0"/>
        <pt x="322" y="702" on="0"/>
        <pt x="322" y="773" on="1"/>
        <pt x="322" y="844" on="0"/>
        <pt x="364" y="975" on="0"/>
        <pt x="404" y="1030" on="1"/>
        <pt x="199" y="1235" on="1"/>
        <pt x="325" y="1363" on="1"/>
        <pt x="535" y="1151" on="1"/>
        <pt x="640" y="1215" on="0"/>
        <pt x="764" y="1215" on="1"/>
        <pt x="888" y="1215" on="0"/>
        <pt x="994" y="1152" on="1"/>
        <pt x="1208" y="1365" on="1"/>
        <pt x="1335" y="1238" on="1"/>
        <pt x="1126" y="1029" on="1"/>
        <pt x="1165" y="974" on="0"/>
        <pt x="1207" y="844" on="0"/>
        <pt x="1207" y="773" on="1"/>
      </contour>
      <contour>
        <pt x="837" y="495" on="0"/>
        <pt x="958" y="570" on="0"/>
        <pt x="1029" y="698" on="0"/>
        <pt x="1029" y="773" on="1"/>
        <pt x="1029" y="848" on="0"/>
        <pt x="958" y="975" on="0"/>
        <pt x="837" y="1050" on="0"/>
        <pt x="765" y="1050" on="1"/>
        <pt x="693" y="1050" on="0"/>
        <pt x="571" y="975" on="0"/>
        <pt x="499" y="848" on="0"/>
        <pt x="499" y="773" on="1"/>
        <pt x="499" y="698" on="0"/>
        <pt x="571" y="570" on="0"/>
        <pt x="693" y="495" on="0"/>
        <pt x="765" y="495" on="1"/>
      </contour>
    </TTGlyph>
    <TTGlyph name="d" xMin="97" yMin="-16" xMax="1071" yMax="1664">
      <contour>
        <pt x="1071" y="1664" on="1"/>
        <pt x="1071" y="-16" on="1"/>
        <pt x="976" y="-16" on="1"/>
        <pt x="937" y="-16" on="0"/>
        <pt x="890" y="-4" on="0"/>
        <pt x="863" y="34" on="0"/>
        <pt x="863" y="72" on="1"/>
        <pt x="863" y="113" on="1"/>
        <pt x="809" y="58" on="0"/>
        <pt x="661" y="-16" on="0"/>
        <pt x="546" y="-16" on="1"/>
        <pt x="422" y="-16" on="0"/>
        <pt x="219" y="105" on="0"/>
        <pt x="97" y="350" on="0"/>
        <pt x="97" y="528" on="1"/>
        <pt x="97" y="711" on="0"/>
        <pt x="239" y="997" on="0"/>
        <pt x="498" y="1156" on="0"/>
        <pt x="668" y="1156" on="1"/>
        <pt x="764" y="1156" on="0"/>
        <pt x="854" y="1128" on="1"/>
        <pt x="851" y="1189" on="1"/>
        <pt x="851" y="1664" on="1"/>
      </contour>
      <contour>
        <pt x="321" y="350" on="0"/>
        <pt x="468" y="157" on="0"/>
        <pt x="607" y="157" on="1"/>
        <pt x="680" y="157" on="0"/>
        <pt x="805" y="212" on="0"/>
        <pt x="851" y="249" on="1"/>
        <pt x="851" y="946" on="1"/>
        <pt x="821" y="972" on="0"/>
        <pt x="721" y="996" on="0"/>
        <pt x="646" y="996" on="1"/>
        <pt x="553" y="996" on="0"/>
        <pt x="405" y="892" on="0"/>
        <pt x="321" y="689" on="0"/>
        <pt x="321" y="547" on="1"/>
      </contour>
    </TTGlyph>
    <TTGlyph name="dagger" xMin="124" yMin="200" xMax="902" yMax="1658">
      <contour>
        <pt x="124" y="1125" on="1"/>
        <pt x="125" y="1288" on="1"/>
        <pt x="414" y="1284" on="1"/>
        <pt x="411" y="1658" on="1"/>
        <pt x="615" y="1658" on="1"/>
        <pt x="612" y="1284" on="1"/>
        <pt x="902" y="1288" on="1"/>
        <pt x="902" y="1125" on="1"/>
        <pt x="612" y="1128" on="1"/>
        <pt x="601" y="200" on="1"/>
        <pt x="425" y="200" on="1"/>
        <pt x="414" y="1128" on="1"/>
      </contour>
    </TTGlyph>
    <TTGlyph name="daggerdbl" xMin="124" yMin="-356" xMax="902" yMax="1658">
      <contour>
        <pt x="124" y="476" on="1"/>
        <pt x="124" y="639" on="1"/>
        <pt x="413" y="636" on="1"/>
        <pt x="413" y="1128" on="1"/>
        <pt x="124" y="1125" on="1"/>
        <pt x="125" y="1288" on="1"/>
        <pt x="413" y="1285" on="1"/>
        <pt x="410" y="1658" on="1"/>
        <pt x="615" y="1658" on="1"/>
        <pt x="611" y="1285" on="1"/>
        <pt x="902" y="1288" on="1"/>
        <pt x="902" y="1125" on="1"/>
        <pt x="611" y="1128" on="1"/>
        <pt x="611" y="636" on="1"/>
        <pt x="901" y="639" on="1"/>
        <pt x="901" y="476" on="1"/>
        <pt x="611" y="479" on="1"/>
        <pt x="595" y="-356" on="1"/>
        <pt x="428" y="-356" on="1"/>
        <pt x="413" y="479" on="1"/>
      </contour>
    </TTGlyph>
    <TTGlyph name="dcaron" xMin="97" yMin="-16" xMax="1545" yMax="1687">
      <component glyphName="d" x="0" y="0" flags="0x0"/>
      <component glyphName="caronvertical" x="1243" y="0" flags="0x0"/>
    </TTGlyph>
    <TTGlyph name="dcroat" xMin="97" yMin="-16" xMax="1212" yMax="1664">
      <contour>
        <pt x="1212" y="1306" on="1"/>
        <pt x="1071" y="1306" on="1"/>
        <pt x="1071" y="-16" on="1"/>
        <pt x="976" y="-16" on="1"/>
        <pt x="937" y="-16" on="0"/>
        <pt x="890" y="-4" on="0"/>
        <pt x="863" y="34" on="0"/>
        <pt x="863" y="72" on="1"/>
        <pt x="863" y="113" on="1"/>
        <pt x="809" y="58" on="0"/>
        <pt x="661" y="-16" on="0"/>
        <pt x="546" y="-16" on="1"/>
        <pt x="422" y="-16" on="0"/>
        <pt x="219" y="105" on="0"/>
        <pt x="97" y="350" on="0"/>
        <pt x="97" y="528" on="1"/>
        <pt x="97" y="711" on="0"/>
        <pt x="239" y="997" on="0"/>
        <pt x="498" y="1156" on="0"/>
        <pt x="668" y="1156" on="1"/>
        <pt x="764" y="1156" on="0"/>
        <pt x="854" y="1128" on="1"/>
        <pt x="851" y="1189" on="1"/>
        <pt x="851" y="1306" on="1"/>
        <pt x="581" y="1306" on="1"/>
        <pt x="581" y="1447" on="1"/>
        <pt x="851" y="1447" on="1"/>
        <pt x="851" y="1664" on="1"/>
        <pt x="1071" y="1664" on="1"/>
        <pt x="1071" y="1447" on="1"/>
        <pt x="1212" y="1447" on="1"/>
      </contour>
      <contour>
        <pt x="321" y="350" on="0"/>
        <pt x="468" y="157" on="0"/>
        <pt x="607" y="157" on="1"/>
        <pt x="680" y="157" on="0"/>
        <pt x="805" y="212" on="0"/>
        <pt x="851" y="249" on="1"/>
        <pt x="851" y="946" on="1"/>
        <pt x="821" y="972" on="0"/>
        <pt x="721" y="996" on="0"/>
        <pt x="646" y="996" on="1"/>
        <pt x="553" y="996" on="0"/>
        <pt x="405" y="892" on="0"/>
        <pt x="321" y="689" on="0"/>
        <pt x="321" y="547" on="1"/>
      </contour>
    </TTGlyph>
    <TTGlyph name="degree" xMin="116" yMin="939" xMax="796" yMax="1617">
      <contour>
        <pt x="550" y="1617" on="0"/>
        <pt x="705" y="1529" on="0"/>
        <pt x="796" y="1374" on="0"/>
        <pt x="796" y="1278" on="1"/>
        <pt x="796" y="1181" on="0"/>
        <pt x="706" y="1027" on="0"/>
        <pt x="550" y="939" on="0"/>
        <pt x="456" y="939" on="1"/>
        <pt x="363" y="939" on="0"/>
        <pt x="207" y="1027" on="0"/>
        <pt x="116" y="1182" on="0"/>
        <pt x="116" y="1278" on="1"/>
        <pt x="116" y="1375" on="0"/>
        <pt x="206" y="1529" on="0"/>
        <pt x="362" y="1617" on="0"/>
        <pt x="456" y="1617" on="1"/>
      </contour>
      <contour>
        <pt x="507" y="1083" on="0"/>
        <pt x="591" y="1134" on="0"/>
        <pt x="641" y="1223" on="0"/>
        <pt x="641" y="1278" on="1"/>
        <pt x="641" y="1333" on="0"/>
        <pt x="591" y="1422" on="0"/>
        <pt x="507" y="1472" on="0"/>
        <pt x="456" y="1472" on="1"/>
        <pt x="405" y="1472" on="0"/>
        <pt x="321" y="1422" on="0"/>
        <pt x="272" y="1333" on="0"/>
        <pt x="272" y="1278" on="1"/>
        <pt x="272" y="1223" on="0"/>
        <pt x="321" y="1134" on="0"/>
        <pt x="406" y="1083" on="0"/>
        <pt x="456" y="1083" on="1"/>
      </contour>
    </TTGlyph>
    <TTGlyph name="dieresis" xMin="60" yMin="1363" xMax="803" yMax="1642">
      <contour>
        <pt x="60" y="1533" on="0"/>
        <pt x="105" y="1602" on="0"/>
        <pt x="177" y="1642" on="0"/>
        <pt x="215" y="1642" on="1"/>
        <pt x="280" y="1642" on="0"/>
        <pt x="345" y="1570" on="0"/>
        <pt x="345" y="1512" on="1"/>
        <pt x="345" y="1469" on="0"/>
        <pt x="302" y="1401" on="0"/>
        <pt x="231" y="1363" on="0"/>
        <pt x="191" y="1363" on="1"/>
        <pt x="135" y="1363" on="0"/>
        <pt x="60" y="1434" on="0"/>
        <pt x="60" y="1493" on="1"/>
      </contour>
      <contour>
        <pt x="518" y="1533" on="0"/>
        <pt x="563" y="1602" on="0"/>
        <pt x="635" y="1642" on="0"/>
        <pt x="673" y="1642" on="1"/>
        <pt x="737" y="1642" on="0"/>
        <pt x="803" y="1569" on="0"/>
        <pt x="803" y="1512" on="1"/>
        <pt x="803" y="1469" on="0"/>
        <pt x="760" y="1401" on="0"/>
        <pt x="689" y="1363" on="0"/>
        <pt x="649" y="1363" on="1"/>
        <pt x="593" y="1363" on="0"/>
        <pt x="518" y="1434" on="0"/>
        <pt x="518" y="1493" on="1"/>
      </contour>
    </TTGlyph>
    <TTGlyph name="dieresis.cap" xMin="50" yMin="1667" xMax="843" yMax="1955">
      <contour>
        <pt x="50" y="1843" on="0"/>
        <pt x="95" y="1914" on="0"/>
        <pt x="169" y="1955" on="0"/>
        <pt x="209" y="1955" on="1"/>
        <pt x="277" y="1955" on="0"/>
        <pt x="347" y="1880" on="0"/>
        <pt x="347" y="1821" on="1"/>
        <pt x="347" y="1776" on="0"/>
        <pt x="303" y="1706" on="0"/>
        <pt x="229" y="1667" on="0"/>
        <pt x="187" y="1667" on="1"/>
        <pt x="130" y="1667" on="0"/>
        <pt x="50" y="1740" on="0"/>
        <pt x="50" y="1800" on="1"/>
      </contour>
      <contour>
        <pt x="546" y="1843" on="0"/>
        <pt x="592" y="1914" on="0"/>
        <pt x="666" y="1955" on="0"/>
        <pt x="705" y="1955" on="1"/>
        <pt x="773" y="1955" on="0"/>
        <pt x="843" y="1880" on="0"/>
        <pt x="843" y="1821" on="1"/>
        <pt x="843" y="1776" on="0"/>
        <pt x="799" y="1706" on="0"/>
        <pt x="725" y="1667" on="0"/>
        <pt x="683" y="1667" on="1"/>
        <pt x="626" y="1667" on="0"/>
        <pt x="546" y="1740" on="0"/>
        <pt x="546" y="1800" on="1"/>
      </contour>
    </TTGlyph>
    <TTGlyph name="divide" xMin="229" yMin="225" xMax="1164" yMax="1329">
      <contour>
        <pt x="551" y="1212" on="0"/>
        <pt x="598" y="1286" on="0"/>
        <pt x="674" y="1329" on="0"/>
        <pt x="715" y="1329" on="1"/>
        <pt x="783" y="1329" on="0"/>
        <pt x="857" y="1250" on="0"/>
        <pt x="857" y="1189" on="1"/>
        <pt x="857" y="1143" on="0"/>
        <pt x="811" y="1070" on="0"/>
        <pt x="735" y="1029" on="0"/>
        <pt x="692" y="1029" on="1"/>
        <pt x="654" y="1029" on="0"/>
        <pt x="589" y="1063" on="0"/>
        <pt x="551" y="1127" on="0"/>
        <pt x="551" y="1168" on="1"/>
      </contour>
      <contour>
        <pt x="1164" y="858" on="1"/>
        <pt x="1164" y="688" on="1"/>
        <pt x="229" y="688" on="1"/>
        <pt x="229" y="858" on="1"/>
      </contour>
      <contour>
        <pt x="550" y="407" on="0"/>
        <pt x="597" y="481" on="0"/>
        <pt x="673" y="524" on="0"/>
        <pt x="714" y="524" on="1"/>
        <pt x="782" y="524" on="0"/>
        <pt x="856" y="446" on="0"/>
        <pt x="856" y="385" on="1"/>
        <pt x="856" y="339" on="0"/>
        <pt x="810" y="266" on="0"/>
        <pt x="734" y="225" on="0"/>
        <pt x="691" y="225" on="1"/>
        <pt x="653" y="225" on="0"/>
        <pt x="588" y="259" on="0"/>
        <pt x="550" y="322" on="0"/>
        <pt x="550" y="363" on="1"/>
      </contour>
    </TTGlyph>
    <TTGlyph name="dollar" xMin="232" yMin="-237" xMax="1169" yMax="1762">
      <contour>
        <pt x="1169" y="216" on="0"/>
        <pt x="949" y="9" on="0"/>
        <pt x="757" y="-11" on="1"/>
        <pt x="755" y="-237" on="1"/>
        <pt x="592" y="-237" on="1"/>
        <pt x="594" y="-14" on="1"/>
        <pt x="476" y="-7" on="0"/>
        <pt x="276" y="45" on="0"/>
        <pt x="235" y="71" on="1"/>
        <pt x="288" y="254" on="1"/>
        <pt x="349" y="216" on="0"/>
        <pt x="549" y="161" on="0"/>
        <pt x="647" y="161" on="1"/>
        <pt x="795" y="161" on="0"/>
        <pt x="950" y="263" on="0"/>
        <pt x="950" y="372" on="1"/>
        <pt x="950" y="444" on="0"/>
        <pt x="875" y="546" on="0"/>
        <pt x="743" y="626" on="0"/>
        <pt x="613" y="689" on="1"/>
        <pt x="446" y="770" on="0"/>
        <pt x="232" y="996" on="0"/>
        <pt x="232" y="1147" on="1"/>
        <pt x="232" y="1322" on="0"/>
        <pt x="457" y="1510" on="0"/>
        <pt x="633" y="1532" on="1"/>
        <pt x="635" y="1762" on="1"/>
        <pt x="798" y="1762" on="1"/>
        <pt x="796" y="1536" on="1"/>
        <pt x="899" y="1531" on="0"/>
        <pt x="1049" y="1486" on="0"/>
        <pt x="1092" y="1459" on="1"/>
        <pt x="1047" y="1283" on="1"/>
        <pt x="982" y="1322" on="0"/>
        <pt x="846" y="1363" on="0"/>
        <pt x="735" y="1363" on="1"/>
        <pt x="659" y="1363" on="0"/>
        <pt x="527" y="1323" on="0"/>
        <pt x="445" y="1239" on="0"/>
        <pt x="445" y="1177" on="1"/>
        <pt x="445" y="1104" on="0"/>
        <pt x="503" y="1007" on="0"/>
        <pt x="624" y="926" on="0"/>
        <pt x="748" y="862" on="1"/>
        <pt x="876" y="796" on="0"/>
        <pt x="1049" y="679" on="0"/>
        <pt x="1169" y="509" on="0"/>
        <pt x="1169" y="398" on="1"/>
      </contour>
    </TTGlyph>
    <TTGlyph name="dong" xMin="115" yMin="0" xMax="1292" yMax="1694">
      <contour>
        <pt x="849" y="1521" on="1"/>
        <pt x="849" y="1694" on="1"/>
        <pt x="1072" y="1694" on="1"/>
        <pt x="1072" y="1521" on="1"/>
        <pt x="1292" y="1521" on="1"/>
        <pt x="1292" y="1353" on="1"/>
        <pt x="1072" y="1353" on="1"/>
        <pt x="1072" y="291" on="1"/>
        <pt x="908" y="291" on="1"/>
        <pt x="885" y="291" on="0"/>
        <pt x="885" y="331" on="1"/>
        <pt x="885" y="401" on="1"/>
        <pt x="837" y="356" on="0"/>
        <pt x="691" y="291" on="0"/>
        <pt x="572" y="291" on="1"/>
        <pt x="458" y="291" on="0"/>
        <pt x="269" y="390" on="0"/>
        <pt x="157" y="590" on="0"/>
        <pt x="157" y="736" on="1"/>
        <pt x="157" y="897" on="0"/>
        <pt x="277" y="1127" on="0"/>
        <pt x="505" y="1248" on="0"/>
        <pt x="664" y="1248" on="1"/>
        <pt x="767" y="1248" on="0"/>
        <pt x="853" y="1230" on="1"/>
        <pt x="849" y="1353" on="1"/>
        <pt x="511" y="1353" on="1"/>
        <pt x="511" y="1521" on="1"/>
      </contour>
      <contour>
        <pt x="849" y="1013" on="1"/>
        <pt x="848" y="1015" on="0"/>
        <pt x="826" y="1044" on="0"/>
        <pt x="734" y="1065" on="0"/>
        <pt x="660" y="1065" on="1"/>
        <pt x="552" y="1065" on="0"/>
        <pt x="436" y="979" on="0"/>
        <pt x="396" y="840" on="0"/>
        <pt x="396" y="742" on="1"/>
        <pt x="396" y="650" on="0"/>
        <pt x="455" y="530" on="0"/>
        <pt x="544" y="475" on="0"/>
        <pt x="590" y="475" on="1"/>
        <pt x="705" y="475" on="0"/>
        <pt x="808" y="519" on="0"/>
        <pt x="843" y="557" on="0"/>
        <pt x="849" y="562" on="1"/>
      </contour>
      <contour>
        <pt x="1220" y="197" on="1"/>
        <pt x="1220" y="0" on="1"/>
        <pt x="115" y="0" on="1"/>
        <pt x="115" y="197" on="1"/>
      </contour>
    </TTGlyph>
    <TTGlyph name="dotaccent" xMin="50" yMin="1347" xMax="353" yMax="1638">
      <contour>
        <pt x="50" y="1524" on="0"/>
        <pt x="97" y="1596" on="0"/>
        <pt x="173" y="1638" on="0"/>
        <pt x="212" y="1638" on="1"/>
        <pt x="280" y="1638" on="0"/>
        <pt x="353" y="1562" on="0"/>
        <pt x="353" y="1503" on="1"/>
        <pt x="353" y="1459" on="0"/>
        <pt x="307" y="1387" on="0"/>
        <pt x="233" y="1347" on="0"/>
        <pt x="191" y="1347" on="1"/>
        <pt x="153" y="1347" on="0"/>
        <pt x="89" y="1380" on="0"/>
        <pt x="50" y="1442" on="0"/>
        <pt x="50" y="1482" on="1"/>
      </contour>
    </TTGlyph>
    <TTGlyph name="dotaccent.cap" xMin="52" yMin="1669" xMax="351" yMax="1956">
      <contour>
        <pt x="52" y="1844" on="0"/>
        <pt x="98" y="1915" on="0"/>
        <pt x="173" y="1956" on="0"/>
        <pt x="212" y="1956" on="1"/>
        <pt x="280" y="1956" on="0"/>
        <pt x="351" y="1882" on="0"/>
        <pt x="351" y="1823" on="1"/>
        <pt x="351" y="1778" on="0"/>
        <pt x="306" y="1708" on="0"/>
        <pt x="233" y="1669" on="0"/>
        <pt x="191" y="1669" on="1"/>
        <pt x="133" y="1669" on="0"/>
        <pt x="52" y="1742" on="0"/>
        <pt x="52" y="1802" on="1"/>
      </contour>
    </TTGlyph>
    <TTGlyph name="dotlessi" xMin="193" yMin="0" xMax="413" yMax="1138">
      <contour>
        <pt x="413" y="1138" on="1"/>
        <pt x="413" y="0" on="1"/>
        <pt x="193" y="0" on="1"/>
        <pt x="193" y="1138" on="1"/>
      </contour>
    </TTGlyph>
    <TTGlyph name="e" xMin="97" yMin="-16" xMax="1026" yMax="1158">
      <contour>
        <pt x="1026" y="645" on="0"/>
        <pt x="1022" y="556" on="0"/>
        <pt x="1015" y="522" on="1"/>
        <pt x="312" y="522" on="1"/>
        <pt x="313" y="515" on="0"/>
        <pt x="313" y="502" on="1"/>
        <pt x="330" y="150" on="0"/>
        <pt x="661" y="150" on="1"/>
        <pt x="721" y="150" on="0"/>
        <pt x="905" y="188" on="0"/>
        <pt x="945" y="212" on="1"/>
        <pt x="987" y="86" on="1"/>
        <pt x="932" y="41" on="0"/>
        <pt x="708" y="-16" on="0"/>
        <pt x="602" y="-16" on="1"/>
        <pt x="441" y="-16" on="0"/>
        <pt x="215" y="123" on="0"/>
        <pt x="97" y="387" on="0"/>
        <pt x="97" y="572" on="1"/>
        <pt x="97" y="740" on="0"/>
        <pt x="214" y="1002" on="0"/>
        <pt x="443" y="1153" on="0"/>
        <pt x="606" y="1156" on="1"/>
        <pt x="721" y="1158" on="0"/>
        <pt x="909" y="1060" on="0"/>
        <pt x="1022" y="864" on="0"/>
        <pt x="1026" y="726" on="1"/>
      </contour>
      <contour>
        <pt x="822" y="700" on="0"/>
        <pt x="822" y="715" on="1"/>
        <pt x="822" y="842" on="0"/>
        <pt x="719" y="1000" on="0"/>
        <pt x="594" y="1000" on="1"/>
        <pt x="483" y="1000" on="0"/>
        <pt x="336" y="843" on="0"/>
        <pt x="318" y="668" on="1"/>
        <pt x="820" y="668" on="1"/>
      </contour>
    </TTGlyph>
    <TTGlyph name="eacute" xMin="97" yMin="-16" xMax="1026" yMax="1783">
      <component glyphName="acute" x="417" y="0" flags="0x0"/>
      <component glyphName="e" x="0" y="0" flags="0x0"/>
    </TTGlyph>
    <TTGlyph name="ebreve" xMin="97" yMin="-16" xMax="1026" yMax="1685">
      <component glyphName="e" x="0" y="0" flags="0x0"/>
      <component glyphName="breve" x="205" y="0" flags="0x0"/>
    </TTGlyph>
    <TTGlyph name="ecaron" xMin="97" yMin="-16" xMax="1026" yMax="1710">
      <component glyphName="caron" x="178" y="28" flags="0x4"/>
      <component glyphName="e" x="0" y="0" flags="0x0"/>
    </TTGlyph>
    <TTGlyph name="ecircumflex" xMin="97" yMin="-16" xMax="1026" yMax="1682">
      <component glyphName="circumflex" x="176" y="0" flags="0x0"/>
      <component glyphName="e" x="0" y="0" flags="0x0"/>
    </TTGlyph>
    <TTGlyph name="edieresis" xMin="97" yMin="-16" xMax="1026" yMax="1642">
      <component glyphName="dieresis" x="166" y="0" flags="0x0"/>
      <component glyphName="e" x="0" y="0" flags="0x0"/>
    </TTGlyph>
    <TTGlyph name="edotaccent" xMin="97" yMin="-16" xMax="1026" yMax="1638">
      <component glyphName="e" x="0" y="0" flags="0x0"/>
      <component glyphName="dotaccent" x="395" y="0" flags="0x0"/>
    </TTGlyph>
    <TTGlyph name="egrave" xMin="97" yMin="-16" xMax="1026" yMax="1783">
      <component glyphName="e" x="0" y="0" flags="0x0"/>
      <component glyphName="grave" x="162" y="0" flags="0x0"/>
    </TTGlyph>
    <TTGlyph name="eight" xMin="152" yMin="-16" xMax="1177" yMax="1565">
      <contour>
        <pt x="1177" y="262" on="0"/>
        <pt x="1041" y="77" on="0"/>
        <pt x="813" y="-16" on="0"/>
        <pt x="675" y="-16" on="1"/>
        <pt x="539" y="-16" on="0"/>
        <pt x="302" y="67" on="0"/>
        <pt x="152" y="247" on="0"/>
        <pt x="152" y="385" on="1"/>
        <pt x="152" y="506" on="0"/>
        <pt x="303" y="727" on="0"/>
        <pt x="462" y="804" on="1"/>
        <pt x="344" y="879" on="0"/>
        <pt x="211" y="1063" on="0"/>
        <pt x="211" y="1194" on="1"/>
        <pt x="211" y="1313" on="0"/>
        <pt x="335" y="1480" on="0"/>
        <pt x="546" y="1565" on="0"/>
        <pt x="675" y="1565" on="1"/>
        <pt x="805" y="1565" on="0"/>
        <pt x="1005" y="1478" on="0"/>
        <pt x="1116" y="1319" on="0"/>
        <pt x="1116" y="1216" on="1"/>
        <pt x="1116" y="1140" on="0"/>
        <pt x="1057" y="985" on="0"/>
        <pt x="931" y="848" on="0"/>
        <pt x="837" y="802" on="1"/>
        <pt x="943" y="741" on="0"/>
        <pt x="1086" y="631" on="0"/>
        <pt x="1177" y="486" on="0"/>
        <pt x="1177" y="395" on="1"/>
      </contour>
      <contour>
        <pt x="596" y="1412" on="0"/>
        <pt x="481" y="1363" on="0"/>
        <pt x="414" y="1270" on="0"/>
        <pt x="414" y="1207" on="1"/>
        <pt x="414" y="1139" on="0"/>
        <pt x="486" y="1026" on="0"/>
        <pt x="605" y="934" on="0"/>
        <pt x="692" y="884" on="1"/>
        <pt x="766" y="909" on="0"/>
        <pt x="866" y="1009" on="0"/>
        <pt x="914" y="1134" on="0"/>
        <pt x="914" y="1199" on="1"/>
        <pt x="914" y="1263" on="0"/>
        <pt x="854" y="1359" on="0"/>
        <pt x="743" y="1412" on="0"/>
        <pt x="668" y="1412" on="1"/>
      </contour>
      <contour>
        <pt x="754" y="138" on="0"/>
        <pt x="881" y="195" on="0"/>
        <pt x="959" y="301" on="0"/>
        <pt x="959" y="373" on="1"/>
        <pt x="959" y="449" on="0"/>
        <pt x="873" y="565" on="0"/>
        <pt x="744" y="649" on="0"/>
        <pt x="632" y="708" on="1"/>
        <pt x="624" y="713" on="0"/>
        <pt x="608" y="721" on="1"/>
        <pt x="498" y="676" on="0"/>
        <pt x="363" y="505" on="0"/>
        <pt x="363" y="402" on="1"/>
        <pt x="363" y="275" on="0"/>
        <pt x="522" y="138" on="0"/>
        <pt x="683" y="138" on="1"/>
      </contour>
    </TTGlyph>
    <TTGlyph name="ellipsis" xMin="187" yMin="-22" xMax="1860" yMax="304">
      <contour>
        <pt x="187" y="179" on="0"/>
        <pt x="233" y="257" on="0"/>
        <pt x="307" y="304" on="0"/>
        <pt x="348" y="304" on="1"/>
        <pt x="418" y="304" on="0"/>
        <pt x="495" y="214" on="0"/>
        <pt x="495" y="148" on="1"/>
        <pt x="495" y="101" on="0"/>
        <pt x="450" y="23" on="0"/>
        <pt x="375" y="-22" on="0"/>
        <pt x="333" y="-22" on="1"/>
        <pt x="295" y="-22" on="0"/>
        <pt x="227" y="19" on="0"/>
        <pt x="187" y="90" on="0"/>
        <pt x="187" y="133" on="1"/>
      </contour>
      <contour>
        <pt x="870" y="180" on="0"/>
        <pt x="916" y="258" on="0"/>
        <pt x="990" y="304" on="0"/>
        <pt x="1030" y="304" on="1"/>
        <pt x="1100" y="304" on="0"/>
        <pt x="1177" y="214" on="0"/>
        <pt x="1177" y="148" on="1"/>
        <pt x="1177" y="101" on="0"/>
        <pt x="1132" y="23" on="0"/>
        <pt x="1057" y="-22" on="0"/>
        <pt x="1015" y="-22" on="1"/>
        <pt x="977" y="-22" on="0"/>
        <pt x="910" y="19" on="0"/>
        <pt x="870" y="91" on="0"/>
        <pt x="870" y="135" on="1"/>
      </contour>
      <contour>
        <pt x="1552" y="180" on="0"/>
        <pt x="1598" y="258" on="0"/>
        <pt x="1672" y="304" on="0"/>
        <pt x="1713" y="304" on="1"/>
        <pt x="1783" y="304" on="0"/>
        <pt x="1860" y="215" on="0"/>
        <pt x="1860" y="149" on="1"/>
        <pt x="1860" y="102" on="0"/>
        <pt x="1815" y="23" on="0"/>
        <pt x="1740" y="-22" on="0"/>
        <pt x="1698" y="-22" on="1"/>
        <pt x="1660" y="-22" on="0"/>
        <pt x="1592" y="19" on="0"/>
        <pt x="1552" y="91" on="0"/>
        <pt x="1552" y="135" on="1"/>
      </contour>
    </TTGlyph>
    <TTGlyph name="emacron" xMin="97" yMin="-16" xMax="1026" yMax="1588">
      <component glyphName="e" x="0" y="0" flags="0x0"/>
      <component glyphName="macron" x="275" y="0" flags="0x0"/>
    </TTGlyph>
    <TTGlyph name="emdash" xMin="240" yMin="683" xMax="2103" yMax="860">
      <contour>
        <pt x="2103" y="860" on="1"/>
        <pt x="2103" y="683" on="1"/>
        <pt x="240" y="683" on="1"/>
        <pt x="240" y="860" on="1"/>
      </contour>
    </TTGlyph>
    <TTGlyph name="endash" xMin="240" yMin="683" xMax="1452" yMax="860">
      <contour>
        <pt x="1452" y="860" on="1"/>
        <pt x="1452" y="683" on="1"/>
        <pt x="240" y="683" on="1"/>
        <pt x="240" y="860" on="1"/>
      </contour>
    </TTGlyph>
    <TTGlyph name="eng" xMin="176" yMin="-507" xMax="1109" yMax="1160">
      <contour>
        <pt x="371" y="1138" on="1"/>
        <pt x="372" y="1018" on="1"/>
        <pt x="447" y="1069" on="0"/>
        <pt x="668" y="1154" on="0"/>
        <pt x="770" y="1157" on="1"/>
        <pt x="895" y="1160" on="0"/>
        <pt x="1041" y="1077" on="0"/>
        <pt x="1108" y="883" on="0"/>
        <pt x="1109" y="714" on="1"/>
        <pt x="1109" y="-16" on="1"/>
        <pt x="1109" y="-256" on="0"/>
        <pt x="949" y="-507" on="0"/>
        <pt x="792" y="-507" on="1"/>
        <pt x="758" y="-507" on="0"/>
        <pt x="650" y="-498" on="0"/>
        <pt x="638" y="-493" on="1"/>
        <pt x="638" y="-341" on="1"/>
        <pt x="652" y="-346" on="0"/>
        <pt x="724" y="-352" on="0"/>
        <pt x="746" y="-352" on="1"/>
        <pt x="805" y="-352" on="0"/>
        <pt x="866" y="-297" on="0"/>
        <pt x="889" y="-168" on="0"/>
        <pt x="889" y="-45" on="1"/>
        <pt x="889" y="711" on="1"/>
        <pt x="889" y="811" on="0"/>
        <pt x="856" y="924" on="0"/>
        <pt x="766" y="977" on="0"/>
        <pt x="681" y="973" on="1"/>
        <pt x="621" y="971" on="0"/>
        <pt x="460" y="915" on="0"/>
        <pt x="396" y="869" on="1"/>
        <pt x="396" y="0" on="1"/>
        <pt x="176" y="0" on="1"/>
        <pt x="176" y="1138" on="1"/>
      </contour>
    </TTGlyph>
    <TTGlyph name="eogonek" xMin="97" yMin="-512" xMax="1026" yMax="1158">
      <contour>
        <pt x="1026" y="645" on="0"/>
        <pt x="1022" y="556" on="0"/>
        <pt x="1015" y="522" on="1"/>
        <pt x="312" y="522" on="1"/>
        <pt x="313" y="515" on="0"/>
        <pt x="313" y="502" on="1"/>
        <pt x="330" y="150" on="0"/>
        <pt x="661" y="150" on="1"/>
        <pt x="721" y="150" on="0"/>
        <pt x="905" y="188" on="0"/>
        <pt x="945" y="212" on="1"/>
        <pt x="987" y="86" on="1"/>
        <pt x="971" y="74" on="1"/>
        <pt x="972" y="74" on="1"/>
        <pt x="904" y="31" on="0"/>
        <pt x="796" y="-86" on="0"/>
        <pt x="735" y="-208" on="0"/>
        <pt x="735" y="-256" on="1"/>
        <pt x="735" y="-318" on="0"/>
        <pt x="802" y="-364" on="0"/>
        <pt x="863" y="-364" on="1"/>
        <pt x="927" y="-364" on="0"/>
        <pt x="1002" y="-335" on="1"/>
        <pt x="1002" y="-453" on="1"/>
        <pt x="962" y="-483" on="0"/>
        <pt x="834" y="-512" on="0"/>
        <pt x="765" y="-512" on="1"/>
        <pt x="655" y="-512" on="0"/>
        <pt x="519" y="-399" on="0"/>
        <pt x="519" y="-297" on="1"/>
        <pt x="519" y="-250" on="0"/>
        <pt x="570" y="-140" on="0"/>
        <pt x="658" y="-40" on="0"/>
        <pt x="711" y="-8" on="1"/>
        <pt x="652" y="-16" on="0"/>
        <pt x="602" y="-16" on="1"/>
        <pt x="441" y="-16" on="0"/>
        <pt x="215" y="123" on="0"/>
        <pt x="97" y="387" on="0"/>
        <pt x="97" y="572" on="1"/>
        <pt x="97" y="740" on="0"/>
        <pt x="214" y="1002" on="0"/>
        <pt x="443" y="1153" on="0"/>
        <pt x="606" y="1156" on="1"/>
        <pt x="721" y="1158" on="0"/>
        <pt x="909" y="1060" on="0"/>
        <pt x="1022" y="864" on="0"/>
        <pt x="1026" y="726" on="1"/>
      </contour>
      <contour>
        <pt x="822" y="700" on="0"/>
        <pt x="822" y="715" on="1"/>
        <pt x="822" y="842" on="0"/>
        <pt x="719" y="1000" on="0"/>
        <pt x="594" y="1000" on="1"/>
        <pt x="483" y="1000" on="0"/>
        <pt x="336" y="843" on="0"/>
        <pt x="318" y="668" on="1"/>
        <pt x="820" y="668" on="1"/>
      </contour>
    </TTGlyph>
    <TTGlyph name="equal" xMin="242" yMin="433" xMax="1157" yMax="1116">
      <contour>
        <pt x="1157" y="1116" on="1"/>
        <pt x="1157" y="949" on="1"/>
        <pt x="242" y="949" on="1"/>
        <pt x="242" y="1116" on="1"/>
      </contour>
      <contour>
        <pt x="1157" y="599" on="1"/>
        <pt x="1157" y="433" on="1"/>
        <pt x="242" y="433" on="1"/>
        <pt x="242" y="599" on="1"/>
      </contour>
    </TTGlyph>
    <TTGlyph name="estimated" xMin="104" yMin="-16" xMax="1269" yMax="1359">
      <contour>
        <pt x="382" y="626" on="1"/>
        <pt x="382" y="270" on="1"/>
        <pt x="494" y="112" on="0"/>
        <pt x="748" y="112" on="1"/>
        <pt x="848" y="112" on="0"/>
        <pt x="1048" y="175" on="0"/>
        <pt x="1113" y="212" on="1"/>
        <pt x="1161" y="90" on="1"/>
        <pt x="1098" y="45" on="0"/>
        <pt x="844" y="-16" on="0"/>
        <pt x="727" y="-16" on="1"/>
        <pt x="531" y="-16" on="0"/>
        <pt x="251" y="148" on="0"/>
        <pt x="104" y="457" on="0"/>
        <pt x="104" y="671" on="1"/>
        <pt x="104" y="871" on="0"/>
        <pt x="244" y="1177" on="0"/>
        <pt x="526" y="1353" on="0"/>
        <pt x="731" y="1356" on="1"/>
        <pt x="877" y="1359" on="0"/>
        <pt x="1118" y="1232" on="0"/>
        <pt x="1264" y="992" on="0"/>
        <pt x="1269" y="832" on="1"/>
        <pt x="1269" y="750" on="0"/>
        <pt x="1265" y="660" on="0"/>
        <pt x="1258" y="626" on="1"/>
      </contour>
      <contour>
        <pt x="612" y="1227" on="0"/>
        <pt x="439" y="1147" on="0"/>
        <pt x="382" y="1063" on="1"/>
        <pt x="382" y="768" on="1"/>
        <pt x="1009" y="768" on="1"/>
        <pt x="1009" y="1115" on="1"/>
        <pt x="917" y="1227" on="0"/>
        <pt x="718" y="1227" on="1"/>
      </contour>
    </TTGlyph>
    <TTGlyph name="eth" xMin="95" yMin="-27" xMax="1114" yMax="1811">
      <contour>
        <pt x="887" y="1399" on="0"/>
        <pt x="1114" y="908" on="0"/>
        <pt x="1114" y="608" on="1"/>
        <pt x="1114" y="399" on="0"/>
        <pt x="987" y="114" on="0"/>
        <pt x="756" y="-27" on="0"/>
        <pt x="599" y="-27" on="1"/>
        <pt x="446" y="-27" on="0"/>
        <pt x="218" y="115" on="0"/>
        <pt x="95" y="377" on="0"/>
        <pt x="95" y="553" on="1"/>
        <pt x="95" y="737" on="0"/>
        <pt x="222" y="1009" on="0"/>
        <pt x="452" y="1154" on="0"/>
        <pt x="604" y="1154" on="1"/>
        <pt x="669" y="1154" on="0"/>
        <pt x="778" y="1115" on="0"/>
        <pt x="820" y="1080" on="1"/>
        <pt x="781" y="1189" on="0"/>
        <pt x="643" y="1378" on="0"/>
        <pt x="553" y="1455" on="1"/>
        <pt x="419" y="1306" on="1"/>
        <pt x="304" y="1396" on="1"/>
        <pt x="437" y="1539" on="1"/>
        <pt x="329" y="1609" on="0"/>
        <pt x="222" y="1646" on="1"/>
        <pt x="274" y="1771" on="1"/>
        <pt x="418" y="1726" on="0"/>
        <pt x="542" y="1653" on="1"/>
        <pt x="578" y="1692" on="0"/>
        <pt x="663" y="1795" on="0"/>
        <pt x="676" y="1811" on="1"/>
        <pt x="793" y="1721" on="1"/>
        <pt x="781" y="1707" on="0"/>
        <pt x="699" y="1613" on="0"/>
        <pt x="661" y="1574" on="1"/>
        <pt x="674" y="1564" on="1"/>
      </contour>
      <contour>
        <pt x="896" y="692" on="1"/>
        <pt x="896" y="782" on="0"/>
        <pt x="890" y="849" on="1"/>
        <pt x="883" y="883" on="0"/>
        <pt x="819" y="947" on="0"/>
        <pt x="699" y="990" on="0"/>
        <pt x="615" y="990" on="1"/>
        <pt x="466" y="990" on="0"/>
        <pt x="313" y="757" on="0"/>
        <pt x="313" y="561" on="1"/>
        <pt x="313" y="433" on="0"/>
        <pt x="381" y="236" on="0"/>
        <pt x="518" y="124" on="0"/>
        <pt x="616" y="124" on="1"/>
        <pt x="700" y="124" on="0"/>
        <pt x="826" y="230" on="0"/>
        <pt x="895" y="425" on="0"/>
        <pt x="895" y="554" on="1"/>
      </contour>
    </TTGlyph>
    <TTGlyph name="exclam" xMin="147" yMin="-22" xMax="455" yMax="1780">
      <contour>
        <pt x="430" y="1780" on="1"/>
        <pt x="406" y="506" on="1"/>
        <pt x="210" y="506" on="1"/>
        <pt x="182" y="1780" on="1"/>
      </contour>
      <contour>
        <pt x="147" y="180" on="0"/>
        <pt x="193" y="258" on="0"/>
        <pt x="267" y="304" on="0"/>
        <pt x="307" y="304" on="1"/>
        <pt x="377" y="304" on="0"/>
        <pt x="455" y="215" on="0"/>
        <pt x="455" y="149" on="1"/>
        <pt x="455" y="102" on="0"/>
        <pt x="410" y="23" on="0"/>
        <pt x="335" y="-22" on="0"/>
        <pt x="293" y="-22" on="1"/>
        <pt x="254" y="-22" on="0"/>
        <pt x="187" y="19" on="0"/>
        <pt x="147" y="91" on="0"/>
        <pt x="147" y="135" on="1"/>
      </contour>
    </TTGlyph>
    <TTGlyph name="exclamdbl" xMin="188" yMin="-22" xMax="1192" yMax="1780">
      <component glyphName="exclam" x="41" y="0" flags="0x0"/>
      <component glyphName="exclam" x="737" y="0" flags="0x0"/>
    </TTGlyph>
    <TTGlyph name="exclamdown" xMin="147" yMin="-436" xMax="455" yMax="1366">
      <contour>
        <pt x="455" y="1164" on="0"/>
        <pt x="409" y="1086" on="0"/>
        <pt x="335" y="1040" on="0"/>
        <pt x="295" y="1040" on="1"/>
        <pt x="225" y="1040" on="0"/>
        <pt x="147" y="1129" on="0"/>
        <pt x="147" y="1195" on="1"/>
        <pt x="147" y="1242" on="0"/>
        <pt x="192" y="1321" on="0"/>
        <pt x="267" y="1366" on="0"/>
        <pt x="309" y="1366" on="1"/>
        <pt x="348" y="1366" on="0"/>
        <pt x="415" y="1325" on="0"/>
        <pt x="455" y="1253" on="0"/>
        <pt x="455" y="1209" on="1"/>
      </contour>
      <contour>
        <pt x="172" y="-436" on="1"/>
        <pt x="196" y="838" on="1"/>
        <pt x="392" y="838" on="1"/>
        <pt x="420" y="-436" on="1"/>
      </contour>
    </TTGlyph>
    <TTGlyph name="f" xMin="75" yMin="0" xMax="803" yMax="1682">
      <contour>
        <pt x="75" y="974" on="1"/>
        <pt x="75" y="1096" on="1"/>
        <pt x="248" y="1140" on="1"/>
        <pt x="248" y="1239" on="1"/>
        <pt x="248" y="1399" on="0"/>
        <pt x="371" y="1597" on="0"/>
        <pt x="559" y="1682" on="0"/>
        <pt x="661" y="1682" on="1"/>
        <pt x="703" y="1682" on="0"/>
        <pt x="783" y="1668" on="0"/>
        <pt x="803" y="1660" on="1"/>
        <pt x="803" y="1486" on="1"/>
        <pt x="771" y="1497" on="0"/>
        <pt x="696" y="1506" on="0"/>
        <pt x="631" y="1506" on="1"/>
        <pt x="557" y="1506" on="0"/>
        <pt x="468" y="1394" on="0"/>
        <pt x="468" y="1289" on="1"/>
        <pt x="468" y="1140" on="1"/>
        <pt x="750" y="1140" on="1"/>
        <pt x="750" y="974" on="1"/>
        <pt x="468" y="974" on="1"/>
        <pt x="468" y="0" on="1"/>
        <pt x="248" y="0" on="1"/>
        <pt x="248" y="974" on="1"/>
      </contour>
    </TTGlyph>
    <TTGlyph name="f_f" xMin="75" yMin="0" xMax="1614" yMax="1682">
      <component glyphName="f" x="0" y="0" flags="0x0"/>
      <component glyphName="f" x="811" y="0" flags="0x0"/>
    </TTGlyph>
    <TTGlyph name="f_f_i" xMin="75" yMin="0" xMax="2076" yMax="1682">
      <component glyphName="f" x="0" y="0" flags="0x0"/>
      <component glyphName="f" x="811" y="0" flags="0x0"/>
      <component glyphName="dotlessi" x="1622" y="0" flags="0x0"/>
      <component glyphName="dotaccent" x="1723" y="0" flags="0x0"/>
    </TTGlyph>
    <TTGlyph name="f_f_l" xMin="75" yMin="0" xMax="2039" yMax="1682">
      <component glyphName="f" x="0" y="0" flags="0x0"/>
      <component glyphName="f" x="811" y="0" flags="0x0"/>
      <component glyphName="l" x="1622" y="0" flags="0x0"/>
    </TTGlyph>
    <TTGlyph name="ffi_dflt" xMin="151" yMin="0" xMax="2220" yMax="1682">
      <component glyphName="dotlessi" x="0" y="0" flags="0x0"/>
      <component glyphName="dotaccent" x="101" y="0" flags="0x0"/>
      <component glyphName="f" x="606" y="0" flags="0x0"/>
      <component glyphName="f" x="1417" y="0" flags="0x0"/>
    </TTGlyph>
    <TTGlyph name="fi" xMin="75" yMin="0" xMax="1265" yMax="1682">
      <component glyphName="f" x="0" y="0" flags="0x0"/>
      <component glyphName="dotlessi" x="811" y="0" flags="0x0"/>
      <component glyphName="dotaccent" x="912" y="0" flags="0x0"/>
    </TTGlyph>
    <TTGlyph name="fi_trk" xMin="151" yMin="0" xMax="1409" yMax="1682">
      <component glyphName="dotlessi" x="0" y="0" flags="0x0"/>
      <component glyphName="dotaccent" x="101" y="0" flags="0x0"/>
      <component glyphName="f" x="606" y="0" flags="0x0"/>
    </TTGlyph>
    <TTGlyph name="five" xMin="204" yMin="-349" xMax="1080" yMax="1252">
      <contour>
        <pt x="205" y="-188" on="1"/>
        <pt x="249" y="-190" on="0"/>
        <pt x="271" y="-190" on="1"/>
        <pt x="438" y="-190" on="0"/>
        <pt x="705" y="-83" on="0"/>
        <pt x="856" y="105" on="0"/>
        <pt x="856" y="223" on="1"/>
        <pt x="856" y="376" on="0"/>
        <pt x="699" y="527" on="0"/>
        <pt x="530" y="527" on="1"/>
        <pt x="412" y="527" on="0"/>
        <pt x="260" y="479" on="1"/>
        <pt x="210" y="509" on="1"/>
        <pt x="266" y="1252" on="1"/>
        <pt x="1037" y="1252" on="1"/>
        <pt x="1015" y="1062" on="1"/>
        <pt x="437" y="1062" on="1"/>
        <pt x="398" y="662" on="1"/>
        <pt x="529" y="691" on="0"/>
        <pt x="627" y="691" on="1"/>
        <pt x="773" y="691" on="0"/>
        <pt x="976" y="580" on="0"/>
        <pt x="1080" y="376" on="0"/>
        <pt x="1080" y="237" on="1"/>
        <pt x="1080" y="90" on="0"/>
        <pt x="904" y="-177" on="0"/>
        <pt x="563" y="-346" on="0"/>
        <pt x="328" y="-349" on="1"/>
        <pt x="245" y="-349" on="0"/>
        <pt x="204" y="-336" on="1"/>
      </contour>
    </TTGlyph>
    <TTGlyph name="fl" xMin="75" yMin="0" xMax="1228" yMax="1682">
      <component glyphName="f" x="0" y="0" flags="0x0"/>
      <component glyphName="l" x="811" y="0" flags="0x0"/>
    </TTGlyph>
    <TTGlyph name="florin" xMin="217" yMin="-356" xMax="1057" yMax="1685">
      <contour>
        <pt x="217" y="972" on="1"/>
        <pt x="225" y="1086" on="1"/>
        <pt x="434" y="1140" on="1"/>
        <pt x="442" y="1204" on="1"/>
        <pt x="472" y="1454" on="0"/>
        <pt x="723" y="1685" on="0"/>
        <pt x="907" y="1685" on="1"/>
        <pt x="967" y="1685" on="0"/>
        <pt x="1042" y="1674" on="0"/>
        <pt x="1057" y="1667" on="1"/>
        <pt x="1044" y="1488" on="1"/>
        <pt x="1029" y="1497" on="0"/>
        <pt x="944" y="1507" on="0"/>
        <pt x="879" y="1507" on="1"/>
        <pt x="792" y="1507" on="0"/>
        <pt x="679" y="1400" on="0"/>
        <pt x="664" y="1268" on="1"/>
        <pt x="649" y="1140" on="1"/>
        <pt x="948" y="1140" on="1"/>
        <pt x="935" y="972" on="1"/>
        <pt x="636" y="972" on="1"/>
        <pt x="525" y="-356" on="1"/>
        <pt x="310" y="-356" on="1"/>
        <pt x="422" y="972" on="1"/>
      </contour>
    </TTGlyph>
    <TTGlyph name="four" xMin="116" yMin="-376" xMax="1271" yMax="1299">
      <contour>
        <pt x="1271" y="0" on="1"/>
        <pt x="1040" y="0" on="1"/>
        <pt x="1040" y="-376" on="1"/>
        <pt x="820" y="-376" on="1"/>
        <pt x="820" y="0" on="1"/>
        <pt x="170" y="0" on="1"/>
        <pt x="116" y="104" on="1"/>
        <pt x="700" y="1299" on="1"/>
        <pt x="779" y="1299" on="1"/>
        <pt x="915" y="1215" on="1"/>
        <pt x="449" y="321" on="1"/>
        <pt x="360" y="170" on="1"/>
        <pt x="820" y="170" on="1"/>
        <pt x="838" y="603" on="1"/>
        <pt x="1040" y="603" on="1"/>
        <pt x="1040" y="170" on="1"/>
        <pt x="1271" y="170" on="1"/>
      </contour>
    </TTGlyph>
    <TTGlyph name="four.numr" xMin="107" yMin="593" xMax="1056" yMax="1780">
      <contour>
        <pt x="861" y="875" on="1"/>
        <pt x="861" y="593" on="1"/>
        <pt x="657" y="593" on="1"/>
        <pt x="658" y="875" on="1"/>
        <pt x="159" y="875" on="1"/>
        <pt x="107" y="969" on="1"/>
        <pt x="589" y="1780" on="1"/>
        <pt x="657" y="1780" on="1"/>
        <pt x="788" y="1703" on="1"/>
        <pt x="392" y="1095" on="1"/>
        <pt x="350" y="1026" on="1"/>
        <pt x="658" y="1026" on="1"/>
        <pt x="658" y="1029" on="1"/>
        <pt x="666" y="1278" on="1"/>
        <pt x="861" y="1298" on="1"/>
        <pt x="861" y="1026" on="1"/>
        <pt x="1055" y="1026" on="1"/>
        <pt x="1056" y="875" on="1"/>
      </contour>
    </TTGlyph>
    <TTGlyph name="fraction" xMin="143" yMin="0" xMax="882" yMax="1530">
      <contour>
        <pt x="682" y="1530" on="1"/>
        <pt x="882" y="1530" on="1"/>
        <pt x="340" y="0" on="1"/>
        <pt x="143" y="0" on="1"/>
      </contour>
    </TTGlyph>
    <TTGlyph name="franc" xMin="-10" yMin="0" xMax="1074" yMax="1522">
      <contour>
        <pt x="195" y="427" on="1"/>
        <pt x="195" y="1522" on="1"/>
        <pt x="1074" y="1522" on="1"/>
        <pt x="1074" y="1343" on="1"/>
        <pt x="429" y="1343" on="1"/>
        <pt x="429" y="852" on="1"/>
        <pt x="913" y="852" on="1"/>
        <pt x="913" y="673" on="1"/>
        <pt x="429" y="673" on="1"/>
        <pt x="429" y="427" on="1"/>
        <pt x="680" y="427" on="1"/>
        <pt x="680" y="244" on="1"/>
        <pt x="429" y="244" on="1"/>
        <pt x="429" y="0" on="1"/>
        <pt x="195" y="0" on="1"/>
        <pt x="195" y="244" on="1"/>
        <pt x="-10" y="244" on="1"/>
        <pt x="-10" y="427" on="1"/>
      </contour>
    </TTGlyph>
    <TTGlyph name="g" xMin="110" yMin="-517" xMax="1187" yMax="1156">
      <contour>
        <pt x="1187" y="973" on="1"/>
        <pt x="978" y="973" on="1"/>
        <pt x="1029" y="887" on="0"/>
        <pt x="1029" y="775" on="1"/>
        <pt x="1029" y="652" on="0"/>
        <pt x="909" y="475" on="0"/>
        <pt x="701" y="384" on="0"/>
        <pt x="570" y="384" on="1"/>
        <pt x="502" y="384" on="0"/>
        <pt x="446" y="397" on="1"/>
        <pt x="418" y="378" on="0"/>
        <pt x="382" y="316" on="0"/>
        <pt x="382" y="283" on="1"/>
        <pt x="382" y="220" on="0"/>
        <pt x="439" y="173" on="0"/>
        <pt x="512" y="173" on="1"/>
        <pt x="719" y="173" on="1"/>
        <pt x="956" y="173" on="0"/>
        <pt x="1139" y="-4" on="0"/>
        <pt x="1139" y="-145" on="1"/>
        <pt x="1139" y="-256" on="0"/>
        <pt x="991" y="-425" on="0"/>
        <pt x="740" y="-517" on="0"/>
        <pt x="588" y="-517" on="1"/>
        <pt x="363" y="-517" on="0"/>
        <pt x="110" y="-349" on="0"/>
        <pt x="110" y="-181" on="1"/>
        <pt x="110" y="-103" on="0"/>
        <pt x="204" y="17" on="0"/>
        <pt x="269" y="53" on="1"/>
        <pt x="181" y="104" on="0"/>
        <pt x="181" y="218" on="1"/>
        <pt x="181" y="276" on="0"/>
        <pt x="256" y="399" on="0"/>
        <pt x="321" y="443" on="1"/>
        <pt x="229" y="492" on="0"/>
        <pt x="124" y="658" on="0"/>
        <pt x="124" y="762" on="1"/>
        <pt x="124" y="893" on="0"/>
        <pt x="244" y="1070" on="0"/>
        <pt x="453" y="1156" on="0"/>
        <pt x="587" y="1156" on="1"/>
        <pt x="750" y="1156" on="0"/>
        <pt x="863" y="1087" on="1"/>
        <pt x="901" y="1113" on="0"/>
        <pt x="1017" y="1148" on="0"/>
        <pt x="1076" y="1148" on="1"/>
        <pt x="1187" y="1148" on="1"/>
      </contour>
      <contour>
        <pt x="691" y="531" on="0"/>
        <pt x="810" y="637" on="0"/>
        <pt x="810" y="767" on="1"/>
        <pt x="810" y="885" on="0"/>
        <pt x="698" y="1007" on="0"/>
        <pt x="585" y="1007" on="1"/>
        <pt x="475" y="1007" on="0"/>
        <pt x="343" y="904" on="0"/>
        <pt x="343" y="772" on="1"/>
        <pt x="343" y="667" on="0"/>
        <pt x="458" y="531" on="0"/>
        <pt x="575" y="531" on="1"/>
      </contour>
      <contour>
        <pt x="454" y="0" on="0"/>
        <pt x="397" y="7" on="1"/>
        <pt x="363" y="-23" on="0"/>
        <pt x="324" y="-97" on="0"/>
        <pt x="324" y="-155" on="1"/>
        <pt x="324" y="-262" on="0"/>
        <pt x="451" y="-366" on="0"/>
        <pt x="593" y="-366" on="1"/>
        <pt x="684" y="-366" on="0"/>
        <pt x="837" y="-326" on="0"/>
        <pt x="929" y="-248" on="0"/>
        <pt x="929" y="-193" on="1"/>
        <pt x="929" y="-127" on="0"/>
        <pt x="882" y="-44" on="0"/>
        <pt x="759" y="0" on="0"/>
        <pt x="647" y="0" on="1"/>
        <pt x="545" y="0" on="1"/>
      </contour>
    </TTGlyph>
    <TTGlyph name="gbreve" xMin="110" yMin="-517" xMax="1187" yMax="1685">
      <component glyphName="g" x="0" y="0" flags="0x0"/>
      <component glyphName="breve" x="205" y="0" flags="0x0"/>
    </TTGlyph>
    <TTGlyph name="gcaron" xMin="110" yMin="-517" xMax="1187" yMax="1710">
      <component glyphName="g" x="0" y="0" flags="0x0"/>
      <component glyphName="caron" x="178" y="28" flags="0x4"/>
    </TTGlyph>
    <TTGlyph name="gcircumflex" xMin="110" yMin="-517" xMax="1187" yMax="1682">
      <component glyphName="circumflex" x="176" y="0" flags="0x0"/>
      <component glyphName="g" x="0" y="0" flags="0x0"/>
    </TTGlyph>
    <TTGlyph name="gcommaaccent" xMin="110" yMin="-517" xMax="1187" yMax="1802">
      <contour>
        <pt x="528" y="1343" on="0"/>
        <pt x="471" y="1457" on="0"/>
        <pt x="471" y="1536" on="1"/>
        <pt x="471" y="1601" on="0"/>
        <pt x="519" y="1712" on="0"/>
        <pt x="589" y="1787" on="0"/>
        <pt x="623" y="1802" on="1"/>
        <pt x="698" y="1761" on="1"/>
        <pt x="698" y="1735" on="1"/>
        <pt x="682" y="1716" on="0"/>
        <pt x="659" y="1636" on="0"/>
        <pt x="659" y="1590" on="1"/>
        <pt x="659" y="1549" on="0"/>
        <pt x="697" y="1472" on="0"/>
        <pt x="726" y="1466" on="1"/>
        <pt x="726" y="1416" on="1"/>
        <pt x="568" y="1324" on="1"/>
      </contour>
      <contour>
        <pt x="1187" y="973" on="1"/>
        <pt x="978" y="973" on="1"/>
        <pt x="1029" y="887" on="0"/>
        <pt x="1029" y="775" on="1"/>
        <pt x="1029" y="652" on="0"/>
        <pt x="909" y="475" on="0"/>
        <pt x="701" y="384" on="0"/>
        <pt x="570" y="384" on="1"/>
        <pt x="502" y="384" on="0"/>
        <pt x="446" y="397" on="1"/>
        <pt x="418" y="378" on="0"/>
        <pt x="382" y="316" on="0"/>
        <pt x="382" y="283" on="1"/>
        <pt x="382" y="220" on="0"/>
        <pt x="439" y="173" on="0"/>
        <pt x="512" y="173" on="1"/>
        <pt x="719" y="173" on="1"/>
        <pt x="956" y="173" on="0"/>
        <pt x="1139" y="-4" on="0"/>
        <pt x="1139" y="-145" on="1"/>
        <pt x="1139" y="-256" on="0"/>
        <pt x="991" y="-425" on="0"/>
        <pt x="740" y="-517" on="0"/>
        <pt x="588" y="-517" on="1"/>
        <pt x="363" y="-517" on="0"/>
        <pt x="110" y="-349" on="0"/>
        <pt x="110" y="-181" on="1"/>
        <pt x="110" y="-103" on="0"/>
        <pt x="204" y="17" on="0"/>
        <pt x="269" y="53" on="1"/>
        <pt x="181" y="104" on="0"/>
        <pt x="181" y="218" on="1"/>
        <pt x="181" y="276" on="0"/>
        <pt x="256" y="399" on="0"/>
        <pt x="321" y="443" on="1"/>
        <pt x="229" y="492" on="0"/>
        <pt x="124" y="658" on="0"/>
        <pt x="124" y="762" on="1"/>
        <pt x="124" y="893" on="0"/>
        <pt x="244" y="1070" on="0"/>
        <pt x="453" y="1156" on="0"/>
        <pt x="587" y="1156" on="1"/>
        <pt x="750" y="1156" on="0"/>
        <pt x="863" y="1087" on="1"/>
        <pt x="901" y="1113" on="0"/>
        <pt x="1017" y="1148" on="0"/>
        <pt x="1076" y="1148" on="1"/>
        <pt x="1187" y="1148" on="1"/>
      </contour>
      <contour>
        <pt x="691" y="531" on="0"/>
        <pt x="810" y="637" on="0"/>
        <pt x="810" y="767" on="1"/>
        <pt x="810" y="885" on="0"/>
        <pt x="698" y="1007" on="0"/>
        <pt x="585" y="1007" on="1"/>
        <pt x="475" y="1007" on="0"/>
        <pt x="343" y="904" on="0"/>
        <pt x="343" y="772" on="1"/>
        <pt x="343" y="667" on="0"/>
        <pt x="458" y="531" on="0"/>
        <pt x="575" y="531" on="1"/>
      </contour>
      <contour>
        <pt x="454" y="0" on="0"/>
        <pt x="397" y="7" on="1"/>
        <pt x="363" y="-23" on="0"/>
        <pt x="324" y="-97" on="0"/>
        <pt x="324" y="-155" on="1"/>
        <pt x="324" y="-262" on="0"/>
        <pt x="451" y="-366" on="0"/>
        <pt x="593" y="-366" on="1"/>
        <pt x="684" y="-366" on="0"/>
        <pt x="837" y="-326" on="0"/>
        <pt x="929" y="-248" on="0"/>
        <pt x="929" y="-193" on="1"/>
        <pt x="929" y="-127" on="0"/>
        <pt x="882" y="-44" on="0"/>
        <pt x="759" y="0" on="0"/>
        <pt x="647" y="0" on="1"/>
        <pt x="545" y="0" on="1"/>
      </contour>
    </TTGlyph>
    <TTGlyph name="gdotaccent" xMin="110" yMin="-517" xMax="1187" yMax="1638">
      <component glyphName="g" x="0" y="0" flags="0x0"/>
      <component glyphName="dotaccent" x="395" y="0" flags="0x0"/>
    </TTGlyph>
    <TTGlyph name="germandbls" xMin="36" yMin="-16" xMax="1236" yMax="1579">
      <contour>
        <pt x="873" y="834" on="0"/>
        <pt x="912" y="764" on="0"/>
        <pt x="971" y="708" on="0"/>
        <pt x="1022" y="668" on="1"/>
        <pt x="1090" y="614" on="0"/>
        <pt x="1175" y="528" on="0"/>
        <pt x="1236" y="399" on="0"/>
        <pt x="1236" y="313" on="1"/>
        <pt x="1236" y="198" on="0"/>
        <pt x="1124" y="50" on="0"/>
        <pt x="944" y="-16" on="0"/>
        <pt x="839" y="-16" on="1"/>
        <pt x="767" y="-16" on="0"/>
        <pt x="639" y="3" on="0"/>
        <pt x="608" y="17" on="1"/>
        <pt x="608" y="190" on="1"/>
        <pt x="644" y="169" on="0"/>
        <pt x="765" y="138" on="0"/>
        <pt x="847" y="138" on="1"/>
        <pt x="917" y="138" on="0"/>
        <pt x="1013" y="210" on="0"/>
        <pt x="1013" y="289" on="1"/>
        <pt x="1013" y="336" on="0"/>
        <pt x="973" y="412" on="0"/>
        <pt x="915" y="471" on="0"/>
        <pt x="864" y="515" on="1"/>
        <pt x="802" y="567" on="0"/>
        <pt x="724" y="650" on="0"/>
        <pt x="670" y="771" on="0"/>
        <pt x="670" y="851" on="1"/>
        <pt x="670" y="896" on="0"/>
        <pt x="699" y="971" on="0"/>
        <pt x="741" y="1029" on="0"/>
        <pt x="777" y="1071" on="1"/>
        <pt x="811" y="1111" on="0"/>
        <pt x="852" y="1166" on="0"/>
        <pt x="879" y="1235" on="0"/>
        <pt x="879" y="1275" on="1"/>
        <pt x="879" y="1349" on="0"/>
        <pt x="778" y="1423" on="0"/>
        <pt x="682" y="1423" on="1"/>
        <pt x="546" y="1423" on="0"/>
        <pt x="394" y="1207" on="0"/>
        <pt x="394" y="948" on="1"/>
        <pt x="394" y="0" on="1"/>
        <pt x="174" y="0" on="1"/>
        <pt x="174" y="966" on="1"/>
        <pt x="174" y="974" on="1"/>
        <pt x="36" y="974" on="1"/>
        <pt x="36" y="1103" on="1"/>
        <pt x="190" y="1143" on="1"/>
        <pt x="218" y="1290" on="0"/>
        <pt x="368" y="1486" on="0"/>
        <pt x="586" y="1579" on="0"/>
        <pt x="719" y="1579" on="1"/>
        <pt x="825" y="1579" on="0"/>
        <pt x="997" y="1515" on="0"/>
        <pt x="1097" y="1390" on="0"/>
        <pt x="1097" y="1303" on="1"/>
        <pt x="1097" y="1245" on="0"/>
        <pt x="1060" y="1151" on="0"/>
        <pt x="1007" y="1081" on="0"/>
        <pt x="965" y="1036" on="1"/>
        <pt x="918" y="986" on="0"/>
        <pt x="873" y="917" on="0"/>
        <pt x="873" y="877" on="1"/>
      </contour>
    </TTGlyph>
    <TTGlyph name="grave" xMin="50" yMin="1294" xMax="545" yMax="1783">
      <contour>
        <pt x="395" y="1312" on="0"/>
        <pt x="235" y="1445" on="0"/>
        <pt x="82" y="1599" on="0"/>
        <pt x="50" y="1648" on="1"/>
        <pt x="207" y="1783" on="1"/>
        <pt x="304" y="1658" on="0"/>
        <pt x="513" y="1421" on="1"/>
        <pt x="545" y="1384" on="1"/>
        <pt x="434" y="1294" on="1"/>
      </contour>
    </TTGlyph>
    <TTGlyph name="grave.cap" xMin="50" yMin="1573" xMax="539" yMax="1980">
      <contour>
        <pt x="400" y="1590" on="0"/>
        <pt x="240" y="1688" on="0"/>
        <pt x="87" y="1805" on="0"/>
        <pt x="50" y="1847" on="1"/>
        <pt x="196" y="1980" on="1"/>
        <pt x="199" y="1972" on="0"/>
        <pt x="483" y="1715" on="0"/>
        <pt x="539" y="1665" on="1"/>
        <pt x="447" y="1573" on="1"/>
      </contour>
    </TTGlyph>
    <TTGlyph name="greater" xMin="234" yMin="252" xMax="1200" yMax="1296">
      <contour>
        <pt x="1200" y="850" on="1"/>
        <pt x="1200" y="696" on="1"/>
        <pt x="234" y="252" on="1"/>
        <pt x="234" y="460" on="1"/>
        <pt x="965" y="773" on="1"/>
        <pt x="234" y="1091" on="1"/>
        <pt x="234" y="1296" on="1"/>
      </contour>
    </TTGlyph>
    <TTGlyph name="greaterequal" xMin="238" yMin="0" xMax="1208" yMax="1281">
      <contour>
        <pt x="1208" y="850" on="1"/>
        <pt x="1208" y="695" on="1"/>
        <pt x="238" y="264" on="1"/>
        <pt x="238" y="467" on="1"/>
        <pt x="979" y="773" on="1"/>
        <pt x="238" y="1079" on="1"/>
        <pt x="238" y="1281" on="1"/>
      </contour>
      <contour>
        <pt x="238" y="162" on="1"/>
        <pt x="1208" y="162" on="1"/>
        <pt x="1208" y="0" on="1"/>
        <pt x="238" y="0" on="1"/>
      </contour>
    </TTGlyph>
    <TTGlyph name="gtilde" xMin="110" yMin="-517" xMax="1187" yMax="1648">
      <component glyphName="g" x="0" y="0" flags="0x0"/>
      <component glyphName="tilde" x="131" y="0" flags="0x0"/>
    </TTGlyph>
    <TTGlyph name="guillemotleft" xMin="245" yMin="104" xMax="1676" yMax="1133">
      <component glyphName="guilsinglleft" x="0" y="0" flags="0x0"/>
      <component glyphName="guilsinglleft" x="731" y="0" flags="0x0"/>
    </TTGlyph>
    <TTGlyph name="guillemotright" xMin="259" yMin="104" xMax="1690" yMax="1133">
      <contour>
        <pt x="316" y="1133" on="1"/>
        <pt x="959" y="703" on="1"/>
        <pt x="959" y="519" on="1"/>
        <pt x="316" y="104" on="1"/>
        <pt x="259" y="263" on="1"/>
        <pt x="743" y="615" on="1"/>
        <pt x="259" y="970" on="1"/>
      </contour>
      <contour>
        <pt x="1690" y="703" on="1"/>
        <pt x="1690" y="519" on="1"/>
        <pt x="1047" y="104" on="1"/>
        <pt x="990" y="263" on="1"/>
        <pt x="1474" y="615" on="1"/>
        <pt x="990" y="970" on="1"/>
        <pt x="1047" y="1133" on="1"/>
      </contour>
    </TTGlyph>
    <TTGlyph name="guilsinglleft" xMin="245" yMin="104" xMax="945" yMax="1133">
      <contour>
        <pt x="461" y="615" on="1"/>
        <pt x="945" y="263" on="1"/>
        <pt x="888" y="104" on="1"/>
        <pt x="245" y="519" on="1"/>
        <pt x="245" y="703" on="1"/>
        <pt x="888" y="1133" on="1"/>
        <pt x="945" y="970" on="1"/>
      </contour>
    </TTGlyph>
    <TTGlyph name="guilsinglright" xMin="259" yMin="104" xMax="959" yMax="1133">
      <contour>
        <pt x="959" y="703" on="1"/>
        <pt x="959" y="519" on="1"/>
        <pt x="316" y="104" on="1"/>
        <pt x="259" y="263" on="1"/>
        <pt x="743" y="615" on="1"/>
        <pt x="259" y="970" on="1"/>
        <pt x="316" y="1133" on="1"/>
      </contour>
    </TTGlyph>
    <TTGlyph name="h" xMin="176" yMin="0" xMax="1119" yMax="1664">
      <contour>
        <pt x="903" y="1157" on="0"/>
        <pt x="1050" y="1062" on="0"/>
        <pt x="1119" y="859" on="0"/>
        <pt x="1119" y="695" on="1"/>
        <pt x="1119" y="0" on="1"/>
        <pt x="899" y="0" on="1"/>
        <pt x="899" y="711" on="1"/>
        <pt x="899" y="808" on="0"/>
        <pt x="860" y="924" on="0"/>
        <pt x="763" y="977" on="0"/>
        <pt x="677" y="973" on="1"/>
        <pt x="617" y="971" on="0"/>
        <pt x="461" y="916" on="0"/>
        <pt x="396" y="869" on="1"/>
        <pt x="396" y="0" on="1"/>
        <pt x="176" y="0" on="1"/>
        <pt x="176" y="1664" on="1"/>
        <pt x="396" y="1664" on="1"/>
        <pt x="396" y="1189" on="1"/>
        <pt x="386" y="1028" on="1"/>
        <pt x="460" y="1081" on="0"/>
        <pt x="681" y="1157" on="0"/>
        <pt x="784" y="1157" on="1"/>
      </contour>
    </TTGlyph>
    <TTGlyph name="hbar" xMin="36" yMin="0" xMax="1119" yMax="1664">
      <contour>
        <pt x="903" y="1157" on="0"/>
        <pt x="1050" y="1062" on="0"/>
        <pt x="1119" y="859" on="0"/>
        <pt x="1119" y="695" on="1"/>
        <pt x="1119" y="0" on="1"/>
        <pt x="899" y="0" on="1"/>
        <pt x="899" y="711" on="1"/>
        <pt x="899" y="808" on="0"/>
        <pt x="860" y="924" on="0"/>
        <pt x="763" y="977" on="0"/>
        <pt x="677" y="973" on="1"/>
        <pt x="617" y="971" on="0"/>
        <pt x="461" y="916" on="0"/>
        <pt x="396" y="869" on="1"/>
        <pt x="396" y="0" on="1"/>
        <pt x="176" y="0" on="1"/>
        <pt x="176" y="1284" on="1"/>
        <pt x="36" y="1284" on="1"/>
        <pt x="36" y="1416" on="1"/>
        <pt x="176" y="1416" on="1"/>
        <pt x="176" y="1664" on="1"/>
        <pt x="396" y="1664" on="1"/>
        <pt x="396" y="1416" on="1"/>
        <pt x="628" y="1416" on="1"/>
        <pt x="628" y="1284" on="1"/>
        <pt x="396" y="1284" on="1"/>
        <pt x="396" y="1189" on="1"/>
        <pt x="386" y="1028" on="1"/>
        <pt x="460" y="1081" on="0"/>
        <pt x="681" y="1157" on="0"/>
        <pt x="784" y="1157" on="1"/>
      </contour>
    </TTGlyph>
    <TTGlyph name="hcircumflex" xMin="176" yMin="0" xMax="1119" yMax="1990">
      <component glyphName="h" x="0" y="0" flags="0x0"/>
      <component glyphName="circumflex.cap" x="348" y="0" flags="0x0"/>
    </TTGlyph>
    <TTGlyph name="hungarumlaut" xMin="42" yMin="1319" xMax="963" yMax="1798">
      <contour>
        <pt x="301" y="1798" on="1"/>
        <pt x="463" y="1687" on="1"/>
        <pt x="433" y="1636" on="0"/>
        <pt x="310" y="1480" on="0"/>
        <pt x="182" y="1344" on="0"/>
        <pt x="145" y="1319" on="1"/>
        <pt x="42" y="1390" on="1"/>
      </contour>
      <contour>
        <pt x="808" y="1789" on="1"/>
        <pt x="963" y="1679" on="1"/>
        <pt x="938" y="1631" on="0"/>
        <pt x="814" y="1477" on="0"/>
        <pt x="681" y="1342" on="0"/>
        <pt x="642" y="1319" on="1"/>
        <pt x="541" y="1390" on="1"/>
      </contour>
    </TTGlyph>
    <TTGlyph name="hungarumlaut.cap" xMin="56" yMin="1641" xMax="903" yMax="2000">
      <contour>
        <pt x="62" y="1716" on="0"/>
        <pt x="260" y="1991" on="0"/>
        <pt x="263" y="2000" on="1"/>
        <pt x="435" y="1913" on="1"/>
        <pt x="369" y="1822" on="0"/>
        <pt x="232" y="1674" on="0"/>
        <pt x="180" y="1641" on="1"/>
        <pt x="56" y="1710" on="1"/>
      </contour>
      <contour>
        <pt x="531" y="1716" on="0"/>
        <pt x="736" y="1984" on="0"/>
        <pt x="740" y="1992" on="1"/>
        <pt x="903" y="1904" on="1"/>
        <pt x="847" y="1823" on="0"/>
        <pt x="705" y="1674" on="0"/>
        <pt x="649" y="1641" on="1"/>
        <pt x="524" y="1710" on="1"/>
      </contour>
    </TTGlyph>
    <TTGlyph name="hyphen" xMin="250" yMin="683" xMax="1100" yMax="860">
      <contour>
        <pt x="1100" y="860" on="1"/>
        <pt x="1100" y="683" on="1"/>
        <pt x="250" y="683" on="1"/>
        <pt x="250" y="860" on="1"/>
      </contour>
    </TTGlyph>
    <TTGlyph name="i" xMin="151" yMin="0" xMax="454" yMax="1638">
      <component glyphName="dotlessi" x="0" y="0" flags="0x0"/>
      <component glyphName="dotaccent" x="101" y="0" flags="0x0"/>
    </TTGlyph>
    <TTGlyph name="i.cy" xMin="151" yMin="0" xMax="454" yMax="1638">
      <component glyphName="dotlessi" x="0" y="0" flags="0x0"/>
      <component glyphName="dotaccent" x="101" y="0" flags="0x0"/>
    </TTGlyph>
    <TTGlyph name="i.dot" xMin="151" yMin="0" xMax="454" yMax="1638">
      <component glyphName="dotlessi" x="0" y="0" flags="0x0"/>
      <component glyphName="dotaccent" x="101" y="0" flags="0x0"/>
    </TTGlyph>
    <TTGlyph name="iacute" xMin="173" yMin="0" xMax="667" yMax="1783">
      <component glyphName="acute" x="123" y="0" flags="0x0"/>
      <component glyphName="dotlessi" x="0" y="0" flags="0x0"/>
    </TTGlyph>
    <TTGlyph name="ibreve" xMin="-41" yMin="0" xMax="647" yMax="1685">
      <component glyphName="dotlessi" x="0" y="0" flags="0x0"/>
      <component glyphName="breve" x="-89" y="0" flags="0x0"/>
    </TTGlyph>
    <TTGlyph name="icircumflex" xMin="-71" yMin="0" xMax="671" yMax="1682">
      <component glyphName="circumflex" x="-118" y="0" flags="0x0"/>
      <component glyphName="dotlessi" x="0" y="0" flags="0x0"/>
    </TTGlyph>
    <TTGlyph name="idieresis" xMin="-56" yMin="0" xMax="663" yMax="1642">
      <contour>
        <pt x="-56" y="1533" on="0"/>
        <pt x="-11" y="1602" on="0"/>
        <pt x="61" y="1642" on="0"/>
        <pt x="99" y="1642" on="1"/>
        <pt x="164" y="1642" on="0"/>
        <pt x="229" y="1570" on="0"/>
        <pt x="229" y="1512" on="1"/>
        <pt x="229" y="1469" on="0"/>
        <pt x="186" y="1401" on="0"/>
        <pt x="115" y="1363" on="0"/>
        <pt x="75" y="1363" on="1"/>
        <pt x="19" y="1363" on="0"/>
        <pt x="-56" y="1434" on="0"/>
        <pt x="-56" y="1493" on="1"/>
      </contour>
      <contour>
        <pt x="378" y="1533" on="0"/>
        <pt x="423" y="1602" on="0"/>
        <pt x="495" y="1642" on="0"/>
        <pt x="533" y="1642" on="1"/>
        <pt x="597" y="1642" on="0"/>
        <pt x="663" y="1569" on="0"/>
        <pt x="663" y="1512" on="1"/>
        <pt x="663" y="1469" on="0"/>
        <pt x="620" y="1401" on="0"/>
        <pt x="549" y="1363" on="0"/>
        <pt x="509" y="1363" on="1"/>
        <pt x="453" y="1363" on="0"/>
        <pt x="378" y="1434" on="0"/>
        <pt x="378" y="1493" on="1"/>
      </contour>
      <contour>
        <pt x="413" y="1138" on="1"/>
        <pt x="413" y="0" on="1"/>
        <pt x="193" y="0" on="1"/>
        <pt x="193" y="1138" on="1"/>
      </contour>
    </TTGlyph>
    <TTGlyph name="igrave" xMin="-82" yMin="0" xMax="413" yMax="1783">
      <component glyphName="dotlessi" x="0" y="0" flags="0x0"/>
      <component glyphName="grave" x="-132" y="0" flags="0x0"/>
    </TTGlyph>
    <TTGlyph name="ij" xMin="151" yMin="-507" xMax="1064" yMax="1638">
      <component glyphName="dotlessi" x="0" y="0" flags="0x0"/>
      <component glyphName="dotaccent" x="101" y="0" flags="0x0"/>
      <component glyphName="uni0237" x="606" y="0" flags="0x0"/>
      <component glyphName="dotaccent" x="711" y="0" flags="0x0"/>
    </TTGlyph>
    <TTGlyph name="ij_acutecomb" xMin="173" yMin="-507" xMax="1267" yMax="1783">
      <contour>
        <pt x="194" y="1407" on="1"/>
        <pt x="313" y="1538" on="0"/>
        <pt x="450" y="1697" on="0"/>
        <pt x="511" y="1783" on="1"/>
        <pt x="667" y="1648" on="1"/>
        <pt x="643" y="1608" on="0"/>
        <pt x="485" y="1447" on="0"/>
        <pt x="319" y="1307" on="0"/>
        <pt x="284" y="1294" on="1"/>
        <pt x="173" y="1384" on="1"/>
      </contour>
      <contour>
        <pt x="794" y="1407" on="1"/>
        <pt x="913" y="1538" on="0"/>
        <pt x="1050" y="1697" on="0"/>
        <pt x="1111" y="1783" on="1"/>
        <pt x="1267" y="1648" on="1"/>
        <pt x="1243" y="1608" on="0"/>
        <pt x="1085" y="1447" on="0"/>
        <pt x="919" y="1307" on="0"/>
        <pt x="884" y="1294" on="1"/>
        <pt x="773" y="1384" on="1"/>
      </contour>
      <contour>
        <pt x="413" y="1138" on="1"/>
        <pt x="413" y="0" on="1"/>
        <pt x="193" y="0" on="1"/>
        <pt x="193" y="1138" on="1"/>
      </contour>
      <contour>
        <pt x="543" y="-339" on="0"/>
        <pt x="619" y="-353" on="0"/>
        <pt x="644" y="-353" on="1"/>
        <pt x="731" y="-353" on="0"/>
        <pt x="799" y="-205" on="0"/>
        <pt x="799" y="-48" on="1"/>
        <pt x="799" y="1138" on="1"/>
        <pt x="1019" y="1138" on="1"/>
        <pt x="1019" y="37" on="1"/>
        <pt x="1019" y="-250" on="0"/>
        <pt x="842" y="-507" on="0"/>
        <pt x="666" y="-507" on="1"/>
        <pt x="633" y="-507" on="0"/>
        <pt x="537" y="-500" on="0"/>
        <pt x="527" y="-494" on="1"/>
        <pt x="527" y="-331" on="1"/>
      </contour>
    </TTGlyph>
    <TTGlyph name="imacron" xMin="31" yMin="0" xMax="578" yMax="1588">
      <component glyphName="dotlessi" x="0" y="0" flags="0x0"/>
      <component glyphName="macron" x="-19" y="0" flags="0x0"/>
    </TTGlyph>
    <TTGlyph name="infinity" xMin="74" yMin="225" xMax="1730" yMax="1008">
      <contour>
        <pt x="1457" y="1008" on="0"/>
        <pt x="1641" y="900" on="0"/>
        <pt x="1730" y="728" on="0"/>
        <pt x="1730" y="631" on="1"/>
        <pt x="1730" y="504" on="0"/>
        <pt x="1628" y="321" on="0"/>
        <pt x="1435" y="225" on="0"/>
        <pt x="1300" y="225" on="1"/>
        <pt x="1207" y="225" on="0"/>
        <pt x="1063" y="290" on="0"/>
        <pt x="958" y="393" on="0"/>
        <pt x="903" y="467" on="1"/>
        <pt x="826" y="360" on="0"/>
        <pt x="612" y="226" on="0"/>
        <pt x="484" y="226" on="1"/>
        <pt x="361" y="226" on="0"/>
        <pt x="174" y="329" on="0"/>
        <pt x="74" y="501" on="0"/>
        <pt x="74" y="602" on="1"/>
        <pt x="74" y="736" on="0"/>
        <pt x="186" y="919" on="0"/>
        <pt x="376" y="1008" on="0"/>
        <pt x="494" y="1008" on="1"/>
        <pt x="590" y="1008" on="0"/>
        <pt x="740" y="941" on="0"/>
        <pt x="851" y="834" on="0"/>
        <pt x="908" y="758" on="1"/>
        <pt x="986" y="867" on="0"/>
        <pt x="1199" y="1008" on="0"/>
        <pt x="1323" y="1008" on="1"/>
      </contour>
      <contour>
        <pt x="594" y="378" on="0"/>
        <pt x="733" y="494" on="0"/>
        <pt x="804" y="600" on="1"/>
        <pt x="748" y="681" on="0"/>
        <pt x="675" y="774" on="0"/>
        <pt x="574" y="844" on="0"/>
        <pt x="514" y="844" on="1"/>
        <pt x="433" y="844" on="0"/>
        <pt x="324" y="780" on="0"/>
        <pt x="272" y="675" on="0"/>
        <pt x="272" y="613" on="1"/>
        <pt x="272" y="547" on="0"/>
        <pt x="326" y="441" on="0"/>
        <pt x="436" y="378" on="0"/>
        <pt x="516" y="378" on="1"/>
      </contour>
      <contour>
        <pt x="1398" y="377" on="0"/>
        <pt x="1487" y="443" on="0"/>
        <pt x="1532" y="550" on="0"/>
        <pt x="1532" y="613" on="1"/>
        <pt x="1532" y="676" on="0"/>
        <pt x="1475" y="781" on="0"/>
        <pt x="1366" y="843" on="0"/>
        <pt x="1290" y="843" on="1"/>
        <pt x="1210" y="843" on="0"/>
        <pt x="1079" y="730" on="0"/>
        <pt x="1009" y="623" on="1"/>
        <pt x="1060" y="550" on="0"/>
        <pt x="1151" y="448" on="0"/>
        <pt x="1268" y="377" on="0"/>
        <pt x="1334" y="377" on="1"/>
      </contour>
    </TTGlyph>
    <TTGlyph name="integral" xMin="111" yMin="-518" xMax="964" yMax="1685">
      <contour>
        <pt x="194" y="-261" on="1"/>
        <pt x="228" y="-295" on="0"/>
        <pt x="336" y="-354" on="0"/>
        <pt x="412" y="-354" on="1"/>
        <pt x="492" y="-354" on="0"/>
        <pt x="591" y="-299" on="0"/>
        <pt x="643" y="-158" on="0"/>
        <pt x="643" y="-30" on="1"/>
        <pt x="643" y="62" on="0"/>
        <pt x="590" y="254" on="0"/>
        <pt x="512" y="430" on="0"/>
        <pt x="445" y="565" on="1"/>
        <pt x="377" y="703" on="0"/>
        <pt x="294" y="892" on="0"/>
        <pt x="237" y="1102" on="0"/>
        <pt x="237" y="1203" on="1"/>
        <pt x="237" y="1345" on="0"/>
        <pt x="332" y="1562" on="0"/>
        <pt x="525" y="1685" on="0"/>
        <pt x="666" y="1685" on="1"/>
        <pt x="768" y="1685" on="0"/>
        <pt x="921" y="1623" on="0"/>
        <pt x="964" y="1558" on="1"/>
        <pt x="852" y="1445" on="1"/>
        <pt x="829" y="1478" on="0"/>
        <pt x="728" y="1521" on="0"/>
        <pt x="661" y="1521" on="1"/>
        <pt x="438" y="1521" on="0"/>
        <pt x="438" y="1202" on="1"/>
        <pt x="438" y="1111" on="0"/>
        <pt x="491" y="919" on="0"/>
        <pt x="569" y="742" on="0"/>
        <pt x="634" y="610" on="1"/>
        <pt x="702" y="472" on="0"/>
        <pt x="785" y="283" on="0"/>
        <pt x="842" y="72" on="0"/>
        <pt x="842" y="-30" on="1"/>
        <pt x="842" y="-257" on="0"/>
        <pt x="653" y="-518" on="0"/>
        <pt x="439" y="-518" on="1"/>
        <pt x="333" y="-518" on="0"/>
        <pt x="154" y="-445" on="0"/>
        <pt x="111" y="-395" on="1"/>
      </contour>
    </TTGlyph>
    <TTGlyph name="iogonek" xMin="23" yMin="-512" xMax="516" yMax="1638">
      <contour>
        <pt x="257" y="1347" on="0"/>
        <pt x="193" y="1380" on="0"/>
        <pt x="154" y="1442" on="0"/>
        <pt x="154" y="1482" on="1"/>
        <pt x="154" y="1524" on="0"/>
        <pt x="201" y="1596" on="0"/>
        <pt x="277" y="1638" on="0"/>
        <pt x="316" y="1638" on="1"/>
        <pt x="384" y="1638" on="0"/>
        <pt x="457" y="1562" on="0"/>
        <pt x="457" y="1503" on="1"/>
        <pt x="457" y="1459" on="0"/>
        <pt x="411" y="1387" on="0"/>
        <pt x="337" y="1347" on="0"/>
        <pt x="295" y="1347" on="1"/>
      </contour>
      <contour>
        <pt x="441" y="-364" on="0"/>
        <pt x="516" y="-335" on="1"/>
        <pt x="516" y="-453" on="1"/>
        <pt x="475" y="-484" on="0"/>
        <pt x="357" y="-512" on="0"/>
        <pt x="289" y="-512" on="1"/>
        <pt x="213" y="-512" on="0"/>
        <pt x="92" y="-458" on="0"/>
        <pt x="23" y="-356" on="0"/>
        <pt x="23" y="-288" on="1"/>
        <pt x="23" y="-206" on="0"/>
        <pt x="139" y="-50" on="0"/>
        <pt x="221" y="0" on="1"/>
        <pt x="193" y="0" on="1"/>
        <pt x="193" y="1138" on="1"/>
        <pt x="413" y="1138" on="1"/>
        <pt x="413" y="0" on="1"/>
        <pt x="388" y="0" on="1"/>
        <pt x="239" y="-95" on="0"/>
        <pt x="239" y="-242" on="1"/>
        <pt x="239" y="-306" on="0"/>
        <pt x="317" y="-364" on="0"/>
        <pt x="377" y="-364" on="1"/>
      </contour>
    </TTGlyph>
    <TTGlyph name="itilde" xMin="-116" yMin="0" xMax="718" yMax="1648">
      <component glyphName="dotlessi" x="0" y="0" flags="0x0"/>
      <component glyphName="tilde" x="-163" y="0" flags="0x0"/>
    </TTGlyph>
    <TTGlyph name="j" xMin="-79" yMin="-507" xMax="458" yMax="1638">
      <component glyphName="uni0237" x="0" y="0" flags="0x0"/>
      <component glyphName="dotaccent" x="105" y="0" flags="0x0"/>
    </TTGlyph>
    <TTGlyph name="jcircumflex" xMin="-79" yMin="-507" xMax="675" yMax="1682">
      <component glyphName="uni0237" x="0" y="0" flags="0x0"/>
      <component glyphName="circumflex" x="-114" y="0" flags="0x0"/>
    </TTGlyph>
    <TTGlyph name="k" xMin="168" yMin="0" xMax="1151" yMax="1661">
      <contour>
        <pt x="524" y="542" on="1"/>
        <pt x="383" y="394" on="1"/>
        <pt x="388" y="223" on="1"/>
        <pt x="388" y="0" on="1"/>
        <pt x="168" y="0" on="1"/>
        <pt x="168" y="1661" on="1"/>
        <pt x="388" y="1661" on="1"/>
        <pt x="388" y="751" on="1"/>
        <pt x="384" y="639" on="1"/>
        <pt x="839" y="1140" on="1"/>
        <pt x="1098" y="1140" on="1"/>
        <pt x="668" y="691" on="1"/>
        <pt x="1151" y="0" on="1"/>
        <pt x="901" y="0" on="1"/>
      </contour>
    </TTGlyph>
    <TTGlyph name="kcommaaccent" xMin="168" yMin="-560" xMax="1151" yMax="1661">
      <component glyphName="uni0326" x="811" y="0" flags="0x0"/>
      <component glyphName="k" x="0" y="0" flags="0x0"/>
    </TTGlyph>
    <TTGlyph name="kgreenlandic" xMin="181" yMin="0" xMax="1168" yMax="1140">
      <contour>
        <pt x="551" y="504" on="1"/>
        <pt x="398" y="336" on="1"/>
        <pt x="404" y="190" on="1"/>
        <pt x="404" y="0" on="1"/>
        <pt x="184" y="0" on="1"/>
        <pt x="181" y="1140" on="1"/>
        <pt x="401" y="1140" on="1"/>
        <pt x="401" y="659" on="1"/>
        <pt x="398" y="579" on="1"/>
        <pt x="878" y="1140" on="1"/>
        <pt x="1129" y="1140" on="1"/>
        <pt x="690" y="658" on="1"/>
        <pt x="1168" y="0" on="1"/>
        <pt x="917" y="0" on="1"/>
      </contour>
    </TTGlyph>
    <TTGlyph name="l" xMin="197" yMin="0" xMax="417" yMax="1664">
      <contour>
        <pt x="417" y="1664" on="1"/>
        <pt x="417" y="0" on="1"/>
        <pt x="197" y="0" on="1"/>
        <pt x="197" y="1664" on="1"/>
      </contour>
    </TTGlyph>
    <TTGlyph name="lacute" xMin="184" yMin="0" xMax="673" yMax="1980">
      <contour>
        <pt x="240" y="1715" on="0"/>
        <pt x="524" y="1972" on="0"/>
        <pt x="527" y="1980" on="1"/>
        <pt x="673" y="1847" on="1"/>
        <pt x="599" y="1771" on="0"/>
        <pt x="359" y="1602" on="0"/>
        <pt x="277" y="1573" on="1"/>
        <pt x="184" y="1665" on="1"/>
      </contour>
      <contour>
        <pt x="417" y="1532" on="1"/>
        <pt x="417" y="0" on="1"/>
        <pt x="197" y="0" on="1"/>
        <pt x="197" y="1532" on="1"/>
      </contour>
    </TTGlyph>
    <TTGlyph name="lcaron" xMin="197" yMin="0" xMax="815" yMax="1687">
      <component glyphName="l" x="0" y="0" flags="0x0"/>
      <component glyphName="caronvertical" x="513" y="0" flags="0x0"/>
    </TTGlyph>
    <TTGlyph name="lcommaaccent" xMin="174" yMin="-560" xMax="429" yMax="1664">
      <component glyphName="uni0326" x="492" y="0" flags="0x0"/>
      <component glyphName="l" x="0" y="0" flags="0x0"/>
    </TTGlyph>
    <TTGlyph name="ldot" xMin="197" yMin="0" xMax="980" yMax="1664">
      <component glyphName="l" x="0" y="0" flags="0x0"/>
      <component glyphName="period" x="525" y="711" flags="0x4"/>
    </TTGlyph>
    <TTGlyph name="less" xMin="168" yMin="252" xMax="1134" yMax="1296">
      <contour>
        <pt x="1134" y="1091" on="1"/>
        <pt x="403" y="773" on="1"/>
        <pt x="1134" y="460" on="1"/>
        <pt x="1134" y="252" on="1"/>
        <pt x="168" y="696" on="1"/>
        <pt x="168" y="850" on="1"/>
        <pt x="1134" y="1296" on="1"/>
      </contour>
    </TTGlyph>
    <TTGlyph name="lessequal" xMin="160" yMin="0" xMax="1130" yMax="1281">
      <contour>
        <pt x="1130" y="1079" on="1"/>
        <pt x="389" y="773" on="1"/>
        <pt x="1130" y="467" on="1"/>
        <pt x="1130" y="264" on="1"/>
        <pt x="160" y="695" on="1"/>
        <pt x="160" y="850" on="1"/>
        <pt x="1130" y="1281" on="1"/>
      </contour>
      <contour>
        <pt x="160" y="162" on="1"/>
        <pt x="1130" y="162" on="1"/>
        <pt x="1130" y="0" on="1"/>
        <pt x="160" y="0" on="1"/>
      </contour>
    </TTGlyph>
    <TTGlyph name="lira" xMin="144" yMin="-20" xMax="1403" yMax="1538">
      <contour>
        <pt x="434" y="988" on="1"/>
        <pt x="434" y="1044" on="1"/>
        <pt x="434" y="1192" on="0"/>
        <pt x="549" y="1416" on="0"/>
        <pt x="765" y="1538" on="0"/>
        <pt x="914" y="1538" on="1"/>
        <pt x="1030" y="1538" on="0"/>
        <pt x="1194" y="1482" on="0"/>
        <pt x="1246" y="1439" on="1"/>
        <pt x="1139" y="1273" on="1"/>
        <pt x="1090" y="1316" on="0"/>
        <pt x="976" y="1364" on="0"/>
        <pt x="892" y="1364" on="1"/>
        <pt x="790" y="1364" on="0"/>
        <pt x="661" y="1214" on="0"/>
        <pt x="662" y="1013" on="1"/>
        <pt x="662" y="988" on="1"/>
        <pt x="1043" y="988" on="1"/>
        <pt x="1043" y="850" on="1"/>
        <pt x="663" y="850" on="1"/>
        <pt x="664" y="720" on="1"/>
        <pt x="1021" y="720" on="1"/>
        <pt x="1021" y="582" on="1"/>
        <pt x="664" y="582" on="1"/>
        <pt x="662" y="434" on="0"/>
        <pt x="630" y="263" on="0"/>
        <pt x="587" y="217" on="1"/>
        <pt x="637" y="208" on="0"/>
        <pt x="706" y="184" on="1"/>
        <pt x="769" y="163" on="0"/>
        <pt x="867" y="142" on="0"/>
        <pt x="940" y="142" on="1"/>
        <pt x="1186" y="142" on="0"/>
        <pt x="1186" y="335" on="1"/>
        <pt x="1186" y="371" on="0"/>
        <pt x="1162" y="436" on="0"/>
        <pt x="1126" y="479" on="0"/>
        <pt x="1110" y="485" on="1"/>
        <pt x="1273" y="567" on="1"/>
        <pt x="1300" y="552" on="0"/>
        <pt x="1361" y="480" on="0"/>
        <pt x="1403" y="377" on="0"/>
        <pt x="1403" y="319" on="1"/>
        <pt x="1403" y="-20" on="0"/>
        <pt x="970" y="-20" on="1"/>
        <pt x="858" y="-20" on="0"/>
        <pt x="687" y="22" on="0"/>
        <pt x="594" y="58" on="1"/>
        <pt x="538" y="79" on="0"/>
        <pt x="481" y="95" on="0"/>
        <pt x="456" y="92" on="1"/>
        <pt x="423" y="55" on="0"/>
        <pt x="310" y="-2" on="0"/>
        <pt x="255" y="-2" on="1"/>
        <pt x="231" y="-2" on="0"/>
        <pt x="179" y="19" on="0"/>
        <pt x="144" y="57" on="0"/>
        <pt x="144" y="82" on="1"/>
        <pt x="144" y="156" on="0"/>
        <pt x="279" y="254" on="0"/>
        <pt x="406" y="261" on="1"/>
        <pt x="423" y="298" on="0"/>
        <pt x="434" y="402" on="0"/>
        <pt x="434" y="472" on="1"/>
        <pt x="434" y="582" on="1"/>
        <pt x="209" y="582" on="1"/>
        <pt x="209" y="720" on="1"/>
        <pt x="434" y="720" on="1"/>
        <pt x="434" y="850" on="1"/>
        <pt x="231" y="850" on="1"/>
        <pt x="231" y="988" on="1"/>
      </contour>
    </TTGlyph>
    <TTGlyph name="logicalnot" xMin="240" yMin="323" xMax="1230" yMax="852">
      <contour>
        <pt x="1230" y="852" on="1"/>
        <pt x="1230" y="323" on="1"/>
        <pt x="1030" y="323" on="1"/>
        <pt x="1030" y="688" on="1"/>
        <pt x="240" y="688" on="1"/>
        <pt x="240" y="852" on="1"/>
      </contour>
    </TTGlyph>
    <TTGlyph name="lozenge" xMin="50" yMin="0" xMax="1125" yMax="1516">
      <contour>
        <pt x="590" y="1516" on="1"/>
        <pt x="1125" y="775" on="1"/>
        <pt x="1125" y="762" on="1"/>
        <pt x="590" y="0" on="1"/>
        <pt x="585" y="0" on="1"/>
        <pt x="50" y="762" on="1"/>
        <pt x="50" y="775" on="1"/>
        <pt x="586" y="1516" on="1"/>
      </contour>
      <contour>
        <pt x="267" y="766" on="1"/>
        <pt x="586" y="293" on="1"/>
        <pt x="589" y="293" on="1"/>
        <pt x="908" y="769" on="1"/>
        <pt x="908" y="772" on="1"/>
        <pt x="589" y="1226" on="1"/>
        <pt x="586" y="1226" on="1"/>
        <pt x="267" y="772" on="1"/>
      </contour>
    </TTGlyph>
    <TTGlyph name="lslash" xMin="30" yMin="0" xMax="596" yMax="1664">
      <contour>
        <pt x="596" y="990" on="1"/>
        <pt x="417" y="921" on="1"/>
        <pt x="417" y="0" on="1"/>
        <pt x="197" y="0" on="1"/>
        <pt x="197" y="837" on="1"/>
        <pt x="30" y="773" on="1"/>
        <pt x="30" y="924" on="1"/>
        <pt x="197" y="991" on="1"/>
        <pt x="197" y="1664" on="1"/>
        <pt x="417" y="1664" on="1"/>
        <pt x="417" y="1079" on="1"/>
        <pt x="596" y="1151" on="1"/>
      </contour>
    </TTGlyph>
</ttFont>
